ISO-10303-21;
HEADER;
FILE_DESCRIPTION(('ViewDefinition [CoordinationView]'),'2;1');
FILE_NAME('','2025-07-04T13:27:15',(''),(''),'IfcOpenShell 0.8.0','IfcOpenShell 0.8.0','');
FILE_SCHEMA(('IFC4'));
ENDSEC;
DATA;
#1=IFCPROJECT('3za5VFM91E$wuUcE$x$nOj',$,'MyProject',$,$,$,$,(#13,#17),#8);
#2=IFCSITE('2prTUI6yPCIQYbyf9c7s4D',$,'MySite',$,$,$,$,$,$,$,$,$,$,$);
#3=IFCRELAGGREGATES('3YvPdY0oT5xgyFHy25y4Ct',$,$,$,#1,(#2));
#4=IFCBUILDING('0ZBhX9O5L69v8YxvEQEEah',$,'MyBuilding',$,$,$,$,$,$,$,$,$);
#5=IFCRELAGGREGATES('2m7vAAjSH3vueU04gOE9ZN',$,$,$,#2,(#4));
#6=IFCSIUNIT(*,.LENGTHUNIT.,$,.METRE.);
#7=IFCSIUNIT(*,.AREAUNIT.,$,.SQUARE_METRE.);
#8=IFCUNITASSIGNMENT((#7,#6));
#9=IFCCARTESIANPOINT((0.,0.,0.));
#10=IFCDIRECTION((0.,0.,1.));
#11=IFCDIRECTION((1.,0.,0.));
#12=IFCAXIS2PLACEMENT3D(#9,#10,#11);
#13=IFCGEOMETRICREPRESENTATIONCONTEXT($,'Model',3,1.E-05,#12,$);
#14=IFCCARTESIANPOINT((0.,0.));
#15=IFCDIRECTION((1.,0.));
#16=IFCAXIS2PLACEMENT2D(#14,#15);
#17=IFCGEOMETRICREPRESENTATIONCONTEXT($,'Plan',2,1.E-05,#16,$);
#18=IFCGEOMETRICREPRESENTATIONSUBCONTEXT('Body','Model',*,*,*,*,#13,$,.MODEL_VIEW.,$);
#19=IFCBUILDINGSTOREY('06VP5hj4T4mOqHDs6CvK5c',$,'Default Storey',$,$,$,$,$,$,$);
#20=IFCBUILDINGELEMENT('0rXnYlnSnBEQmznLsIHg$H',$,'Baum_0001',$,$,$,$,$);
#21=IFCBUILDINGELEMENTPROXY('3l0WgLfjz0s8GYVDRivfnp',$,'Stamm_0001',$,$,#91,#42,$,$);
#22=IFCCARTESIANPOINTLIST3D(((0.0190991564539233,0.,0.),(0.013505143043512,0.013505143043512,0.),(1.16948604088558E-18,0.0190991564539233,0.),(-0.013505143043512,0.013505143043512,0.),(-0.0190991564539233,2.33897208177117E-18,0.),(-0.013505143043512,-0.013505143043512,0.),(-3.50845812265675E-18,-0.0190991564539233,0.),(0.013505143043512,-0.013505143043512,0.),(0.0190991564539233,0.,10.8),(0.013505143043512,0.013505143043512,10.8),(1.16948604088558E-18,0.0190991564539233,10.8),(-0.013505143043512,0.013505143043512,10.8),(-0.0190991564539233,2.33897208177117E-18,10.8),(-0.013505143043512,-0.013505143043512,10.8),(-3.50845812265675E-18,-0.0190991564539233,10.8),(0.013505143043512,-0.013505143043512,10.8)));
#23=IFCINDEXEDPOLYGONALFACE((1,2,9));
#24=IFCINDEXEDPOLYGONALFACE((2,10,9));
#25=IFCINDEXEDPOLYGONALFACE((2,3,10));
#26=IFCINDEXEDPOLYGONALFACE((3,11,10));
#27=IFCINDEXEDPOLYGONALFACE((3,4,11));
#28=IFCINDEXEDPOLYGONALFACE((4,12,11));
#29=IFCINDEXEDPOLYGONALFACE((4,5,12));
#30=IFCINDEXEDPOLYGONALFACE((5,13,12));
#31=IFCINDEXEDPOLYGONALFACE((5,6,13));
#32=IFCINDEXEDPOLYGONALFACE((6,14,13));
#33=IFCINDEXEDPOLYGONALFACE((6,7,14));
#34=IFCINDEXEDPOLYGONALFACE((7,15,14));
#35=IFCINDEXEDPOLYGONALFACE((7,8,15));
#36=IFCINDEXEDPOLYGONALFACE((8,16,15));
#37=IFCINDEXEDPOLYGONALFACE((8,1,16));
#38=IFCINDEXEDPOLYGONALFACE((1,9,16));
#39=IFCINDEXEDPOLYGONALFACE((8,7,6,5,4,3,2,1));
#40=IFCPOLYGONALFACESET(#22,$,(#23,#24,#25,#26,#27,#28,#29,#30,#31,#32,#33,#34,#35,#36,#37,#38,#39),$);
#41=IFCSHAPEREPRESENTATION(#18,'Body','Tessellation',(#40));
#42=IFCPRODUCTDEFINITIONSHAPE($,$,(#41));
#43=IFCSURFACESTYLE('Style',.BOTH.,(#44));
#44=IFCSURFACESTYLESHADING(#45,0.);
#45=IFCCOLOURRGB($,0.49,0.35,0.26);
#46=IFCSTYLEDITEM(#40,(#43),'Style');
#52=IFCBUILDINGELEMENTPROXY('1DJa81a61A89_1eATNCg0l',$,'Krone_0001',$,$,#96,#76,$,$);
#53=IFCCARTESIANPOINTLIST3D(((0.,2.10292444847653,3.40260323340816),(0.,-2.10292444847653,3.40260323340816),(2.10292444847653,3.40260323340816,0.),(-2.10292444847653,3.40260323340816,0.),(3.40260323340816,0.,2.10292444847653),(-3.40260323340816,0.,2.10292444847653),(-0.,-2.10292444847653,-3.40260323340816),(-0.,2.10292444847653,-3.40260323340816),(-2.10292444847653,-3.40260323340816,-0.),(2.10292444847653,-3.40260323340816,-0.),(-3.40260323340816,-0.,-2.10292444847653),(3.40260323340816,-0.,-2.10292444847653)));
#54=IFCINDEXEDPOLYGONALFACE((1,6,2));
#55=IFCINDEXEDPOLYGONALFACE((1,4,6));
#56=IFCINDEXEDPOLYGONALFACE((1,3,4));
#57=IFCINDEXEDPOLYGONALFACE((1,5,3));
#58=IFCINDEXEDPOLYGONALFACE((1,2,5));
#59=IFCINDEXEDPOLYGONALFACE((2,6,9));
#60=IFCINDEXEDPOLYGONALFACE((6,4,11));
#61=IFCINDEXEDPOLYGONALFACE((4,3,8));
#62=IFCINDEXEDPOLYGONALFACE((3,5,12));
#63=IFCINDEXEDPOLYGONALFACE((5,2,10));
#64=IFCINDEXEDPOLYGONALFACE((8,12,7));
#65=IFCINDEXEDPOLYGONALFACE((12,10,7));
#66=IFCINDEXEDPOLYGONALFACE((10,9,7));
#67=IFCINDEXEDPOLYGONALFACE((9,11,7));
#68=IFCINDEXEDPOLYGONALFACE((11,8,7));
#69=IFCINDEXEDPOLYGONALFACE((3,12,8));
#70=IFCINDEXEDPOLYGONALFACE((5,10,12));
#71=IFCINDEXEDPOLYGONALFACE((2,9,10));
#72=IFCINDEXEDPOLYGONALFACE((6,11,9));
#73=IFCINDEXEDPOLYGONALFACE((4,8,11));
#74=IFCPOLYGONALFACESET(#53,$,(#54,#55,#56,#57,#58,#59,#60,#61,#62,#63,#64,#65,#66,#67,#68,#69,#70,#71,#72,#73),$);
#75=IFCSHAPEREPRESENTATION(#18,'Body','Tessellation',(#74));
#76=IFCPRODUCTDEFINITIONSHAPE($,$,(#75));
#77=IFCSURFACESTYLE('Style',.BOTH.,(#78));
#78=IFCSURFACESTYLESHADING(#79,0.);
#79=IFCCOLOURRGB($,0.22,0.55,0.26);
#80=IFCSTYLEDITEM(#74,(#77),'Style');
#86=IFCRELAGGREGATES('1CbOwT0ef3X8s6H$P0wNMa',$,$,$,#20,(#21,#52));
#87=IFCCARTESIANPOINT((558406.01,5927514.51,0.));
#88=IFCDIRECTION((0.,0.,1.));
#89=IFCDIRECTION((1.,0.,0.));
#90=IFCAXIS2PLACEMENT3D(#87,#88,#89);
#91=IFCLOCALPLACEMENT($,#90);
#92=IFCCARTESIANPOINT((558406.01,5927514.51,10.8));
#93=IFCDIRECTION((0.,0.,1.));
#94=IFCDIRECTION((1.,0.,0.));
#95=IFCAXIS2PLACEMENT3D(#92,#93,#94);
#96=IFCLOCALPLACEMENT($,#95);
#97=IFCBUILDINGELEMENT('1AyspyA4X5P9WlG3p5WEe8',$,'Baum_0002',$,$,$,$,$);
#98=IFCBUILDINGELEMENTPROXY('199N5dvTPC3uq0qZh4oCMn',$,'Stamm_0002',$,$,#233,#119,$,$);
#99=IFCCARTESIANPOINTLIST3D(((0.0716218367022123,0.,0.),(0.0506442864131699,0.0506442864131699,0.),(4.38557265332094E-18,0.0716218367022123,0.),(-0.0506442864131699,0.0506442864131699,0.),(-0.0716218367022123,8.77114530664187E-18,0.),(-0.0506442864131699,-0.0506442864131699,0.),(-1.31567179599628E-17,-0.0716218367022123,0.),(0.0506442864131699,-0.0506442864131699,0.),(0.0716218367022123,0.,15.),(0.0506442864131699,0.0506442864131699,15.),(4.38557265332094E-18,0.0716218367022123,15.),(-0.0506442864131699,0.0506442864131699,15.),(-0.0716218367022123,8.77114530664187E-18,15.),(-0.0506442864131699,-0.0506442864131699,15.),(-1.31567179599628E-17,-0.0716218367022123,15.),(0.0506442864131699,-0.0506442864131699,15.)));
#100=IFCINDEXEDPOLYGONALFACE((1,2,9));
#101=IFCINDEXEDPOLYGONALFACE((2,10,9));
#102=IFCINDEXEDPOLYGONALFACE((2,3,10));
#103=IFCINDEXEDPOLYGONALFACE((3,11,10));
#104=IFCINDEXEDPOLYGONALFACE((3,4,11));
#105=IFCINDEXEDPOLYGONALFACE((4,12,11));
#106=IFCINDEXEDPOLYGONALFACE((4,5,12));
#107=IFCINDEXEDPOLYGONALFACE((5,13,12));
#108=IFCINDEXEDPOLYGONALFACE((5,6,13));
#109=IFCINDEXEDPOLYGONALFACE((6,14,13));
#110=IFCINDEXEDPOLYGONALFACE((6,7,14));
#111=IFCINDEXEDPOLYGONALFACE((7,15,14));
#112=IFCINDEXEDPOLYGONALFACE((7,8,15));
#113=IFCINDEXEDPOLYGONALFACE((8,16,15));
#114=IFCINDEXEDPOLYGONALFACE((8,1,16));
#115=IFCINDEXEDPOLYGONALFACE((1,9,16));
#116=IFCINDEXEDPOLYGONALFACE((8,7,6,5,4,3,2,1));
#117=IFCPOLYGONALFACESET(#99,$,(#100,#101,#102,#103,#104,#105,#106,#107,#108,#109,#110,#111,#112,#113,#114,#115,#116),$);
#118=IFCSHAPEREPRESENTATION(#18,'Body','Tessellation',(#117));
#119=IFCPRODUCTDEFINITIONSHAPE($,$,(#118));
#120=IFCSURFACESTYLE('Style',.BOTH.,(#121));
#121=IFCSURFACESTYLESHADING(#122,0.);
#122=IFCCOLOURRGB($,0.49,0.35,0.26);
#123=IFCSTYLEDITEM(#117,(#120),'Style');
#129=IFCBUILDINGELEMENTPROXY('2Eu7F5wqP3XRbmfpNVPL_n',$,'Krone_0002',$,$,#228,#213,$,$);
#130=IFCCARTESIANPOINTLIST3D(((0.,1.5771933363574,2.55195242505612),(0.,-1.5771933363574,2.55195242505612),(1.5771933363574,2.55195242505612,0.),(-1.5771933363574,2.55195242505612,0.),(2.55195242505612,0.,1.5771933363574),(-2.55195242505612,0.,1.5771933363574),(-0.,-1.5771933363574,-2.55195242505612),(-0.,1.5771933363574,-2.55195242505612),(-1.5771933363574,-2.55195242505612,-0.),(1.5771933363574,-2.55195242505612,-0.),(-2.55195242505612,-0.,-1.5771933363574),(2.55195242505612,-0.,-1.5771933363574),(0.,0.,3.),(0.927050983124842,2.42705098312484,1.5),(-0.927050983124842,2.42705098312484,1.5),(1.5,0.927050983124842,2.42705098312484),(-1.5,0.927050983124842,2.42705098312484),(1.5,-0.927050983124842,2.42705098312484),(-1.5,-0.927050983124842,2.42705098312484),(-0.927050983124842,-2.42705098312484,1.5),(0.927050983124842,-2.42705098312484,1.5),(0.,3.,0.),(2.42705098312484,1.5,0.927050983124842),(0.927050983124842,2.42705098312484,-1.5),(2.42705098312484,1.5,-0.927050983124842),(-2.42705098312484,1.5,0.927050983124842),(-0.927050983124842,2.42705098312484,-1.5),(-2.42705098312484,1.5,-0.927050983124842),(2.42705098312484,-1.5,0.927050983124842),(3.,0.,0.),(-2.42705098312484,-1.5,0.927050983124842),(-3.,0.,0.),(-0.,0.,-3.),(-0.927050983124842,-2.42705098312484,-1.5),(0.927050983124842,-2.42705098312484,-1.5),(-1.5,-0.927050983124842,-2.42705098312484),(1.5,-0.927050983124842,-2.42705098312484),(-1.5,0.927050983124842,-2.42705098312484),(1.5,0.927050983124842,-2.42705098312484),(0.,-3.,-0.),(-2.42705098312484,-1.5,-0.927050983124842),(2.42705098312484,-1.5,-0.927050983124842)));
#131=IFCINDEXEDPOLYGONALFACE((1,17,13));
#132=IFCINDEXEDPOLYGONALFACE((17,6,19));
#133=IFCINDEXEDPOLYGONALFACE((17,19,13));
#134=IFCINDEXEDPOLYGONALFACE((13,19,2));
#135=IFCINDEXEDPOLYGONALFACE((1,15,17));
#136=IFCINDEXEDPOLYGONALFACE((15,4,26));
#137=IFCINDEXEDPOLYGONALFACE((15,26,17));
#138=IFCINDEXEDPOLYGONALFACE((17,26,6));
#139=IFCINDEXEDPOLYGONALFACE((1,14,15));
#140=IFCINDEXEDPOLYGONALFACE((14,3,22));
#141=IFCINDEXEDPOLYGONALFACE((14,22,15));
#142=IFCINDEXEDPOLYGONALFACE((15,22,4));
#143=IFCINDEXEDPOLYGONALFACE((1,16,14));
#144=IFCINDEXEDPOLYGONALFACE((16,5,23));
#145=IFCINDEXEDPOLYGONALFACE((16,23,14));
#146=IFCINDEXEDPOLYGONALFACE((14,23,3));
#147=IFCINDEXEDPOLYGONALFACE((1,13,16));
#148=IFCINDEXEDPOLYGONALFACE((13,2,18));
#149=IFCINDEXEDPOLYGONALFACE((13,18,16));
#150=IFCINDEXEDPOLYGONALFACE((16,18,5));
#151=IFCINDEXEDPOLYGONALFACE((2,19,20));
#152=IFCINDEXEDPOLYGONALFACE((19,6,31));
#153=IFCINDEXEDPOLYGONALFACE((19,31,20));
#154=IFCINDEXEDPOLYGONALFACE((20,31,9));
#155=IFCINDEXEDPOLYGONALFACE((6,26,32));
#156=IFCINDEXEDPOLYGONALFACE((26,4,28));
#157=IFCINDEXEDPOLYGONALFACE((26,28,32));
#158=IFCINDEXEDPOLYGONALFACE((32,28,11));
#159=IFCINDEXEDPOLYGONALFACE((4,22,27));
#160=IFCINDEXEDPOLYGONALFACE((22,3,24));
#161=IFCINDEXEDPOLYGONALFACE((22,24,27));
#162=IFCINDEXEDPOLYGONALFACE((27,24,8));
#163=IFCINDEXEDPOLYGONALFACE((3,23,25));
#164=IFCINDEXEDPOLYGONALFACE((23,5,30));
#165=IFCINDEXEDPOLYGONALFACE((23,30,25));
#166=IFCINDEXEDPOLYGONALFACE((25,30,12));
#167=IFCINDEXEDPOLYGONALFACE((5,18,29));
#168=IFCINDEXEDPOLYGONALFACE((18,2,21));
#169=IFCINDEXEDPOLYGONALFACE((18,21,29));
#170=IFCINDEXEDPOLYGONALFACE((29,21,10));
#171=IFCINDEXEDPOLYGONALFACE((8,39,33));
#172=IFCINDEXEDPOLYGONALFACE((39,12,37));
#173=IFCINDEXEDPOLYGONALFACE((39,37,33));
#174=IFCINDEXEDPOLYGONALFACE((33,37,7));
#175=IFCINDEXEDPOLYGONALFACE((12,42,37));
#176=IFCINDEXEDPOLYGONALFACE((42,10,35));
#177=IFCINDEXEDPOLYGONALFACE((42,35,37));
#178=IFCINDEXEDPOLYGONALFACE((37,35,7));
#179=IFCINDEXEDPOLYGONALFACE((10,40,35));
#180=IFCINDEXEDPOLYGONALFACE((40,9,34));
#181=IFCINDEXEDPOLYGONALFACE((40,34,35));
#182=IFCINDEXEDPOLYGONALFACE((35,34,7));
#183=IFCINDEXEDPOLYGONALFACE((9,41,34));
#184=IFCINDEXEDPOLYGONALFACE((41,11,36));
#185=IFCINDEXEDPOLYGONALFACE((41,36,34));
#186=IFCINDEXEDPOLYGONALFACE((34,36,7));
#187=IFCINDEXEDPOLYGONALFACE((11,38,36));
#188=IFCINDEXEDPOLYGONALFACE((38,8,33));
#189=IFCINDEXEDPOLYGONALFACE((38,33,36));
#190=IFCINDEXEDPOLYGONALFACE((36,33,7));
#191=IFCINDEXEDPOLYGONALFACE((3,25,24));
#192=IFCINDEXEDPOLYGONALFACE((25,12,39));
#193=IFCINDEXEDPOLYGONALFACE((25,39,24));
#194=IFCINDEXEDPOLYGONALFACE((24,39,8));
#195=IFCINDEXEDPOLYGONALFACE((5,29,30));
#196=IFCINDEXEDPOLYGONALFACE((29,10,42));
#197=IFCINDEXEDPOLYGONALFACE((29,42,30));
#198=IFCINDEXEDPOLYGONALFACE((30,42,12));
#199=IFCINDEXEDPOLYGONALFACE((2,20,21));
#200=IFCINDEXEDPOLYGONALFACE((20,9,40));
#201=IFCINDEXEDPOLYGONALFACE((20,40,21));
#202=IFCINDEXEDPOLYGONALFACE((21,40,10));
#203=IFCINDEXEDPOLYGONALFACE((6,32,31));
#204=IFCINDEXEDPOLYGONALFACE((32,11,41));
#205=IFCINDEXEDPOLYGONALFACE((32,41,31));
#206=IFCINDEXEDPOLYGONALFACE((31,41,9));
#207=IFCINDEXEDPOLYGONALFACE((4,27,28));
#208=IFCINDEXEDPOLYGONALFACE((27,8,38));
#209=IFCINDEXEDPOLYGONALFACE((27,38,28));
#210=IFCINDEXEDPOLYGONALFACE((28,38,11));
#211=IFCPOLYGONALFACESET(#130,$,(#131,#132,#133,#134,#135,#136,#137,#138,#139,#140,#141,#142,#143,#144,#145,#146,#147,#148,#149,#150,#151,#152,#153,#154,#155,#156,#157,#158,#159,#160,#161,#162,#163,#164,#165,#166,#167,#168,#169,#170,#171,#172,#173,#174,#175,#176,#177,#178,#179,#180,#181,#182,#183,#184,#185,#186,#187,#188,#189,#190,#191,#192,#193,#194,#195,#196,#197,#198,#199,#200,#201,#202,#203,#204,#205,#206,#207,#208,#209,#210),$);
#212=IFCSHAPEREPRESENTATION(#18,'Body','Tessellation',(#211));
#213=IFCPRODUCTDEFINITIONSHAPE($,$,(#212));
#214=IFCSURFACESTYLE('Style',.BOTH.,(#215));
#215=IFCSURFACESTYLESHADING(#216,0.);
#216=IFCCOLOURRGB($,0.22,0.55,0.26);
#217=IFCSTYLEDITEM(#211,(#214),'Style');
#223=IFCRELAGGREGATES('2JcW3o6hT6gf1$Fd2VC3kf',$,$,$,#97,(#129,#98));
#224=IFCCARTESIANPOINT((558553.52,5927499.96,15.));
#225=IFCDIRECTION((0.,0.,1.));
#226=IFCDIRECTION((1.,0.,0.));
#227=IFCAXIS2PLACEMENT3D(#224,#225,#226);
#228=IFCLOCALPLACEMENT($,#227);
#229=IFCCARTESIANPOINT((558553.52,5927499.96,0.));
#230=IFCDIRECTION((0.,0.,1.));
#231=IFCDIRECTION((1.,0.,0.));
#232=IFCAXIS2PLACEMENT3D(#229,#230,#231);
#233=IFCLOCALPLACEMENT($,#232);
#234=IFCBUILDINGELEMENT('33oXOGyfD04Amz3f6cZWNp',$,'Baum_0003',$,$,$,$,$);
#235=IFCBUILDINGELEMENTPROXY('1Dpgn05tf6bQMBa3ORtwkf',$,'Stamm_0003',$,$,#465,#256,$,$);
#236=IFCCARTESIANPOINTLIST3D(((0.0716218367022123,0.,0.),(0.0506442864131699,0.0506442864131699,0.),(4.38557265332094E-18,0.0716218367022123,0.),(-0.0506442864131699,0.0506442864131699,0.),(-0.0716218367022123,8.77114530664187E-18,0.),(-0.0506442864131699,-0.0506442864131699,0.),(-1.31567179599628E-17,-0.0716218367022123,0.),(0.0506442864131699,-0.0506442864131699,0.),(0.0716218367022123,0.,20.25),(0.0506442864131699,0.0506442864131699,20.25),(4.38557265332094E-18,0.0716218367022123,20.25),(-0.0506442864131699,0.0506442864131699,20.25),(-0.0716218367022123,8.77114530664187E-18,20.25),(-0.0506442864131699,-0.0506442864131699,20.25),(-1.31567179599628E-17,-0.0716218367022123,20.25),(0.0506442864131699,-0.0506442864131699,20.25)));
#237=IFCINDEXEDPOLYGONALFACE((1,2,9));
#238=IFCINDEXEDPOLYGONALFACE((2,10,9));
#239=IFCINDEXEDPOLYGONALFACE((2,3,10));
#240=IFCINDEXEDPOLYGONALFACE((3,11,10));
#241=IFCINDEXEDPOLYGONALFACE((3,4,11));
#242=IFCINDEXEDPOLYGONALFACE((4,12,11));
#243=IFCINDEXEDPOLYGONALFACE((4,5,12));
#244=IFCINDEXEDPOLYGONALFACE((5,13,12));
#245=IFCINDEXEDPOLYGONALFACE((5,6,13));
#246=IFCINDEXEDPOLYGONALFACE((6,14,13));
#247=IFCINDEXEDPOLYGONALFACE((6,7,14));
#248=IFCINDEXEDPOLYGONALFACE((7,15,14));
#249=IFCINDEXEDPOLYGONALFACE((7,8,15));
#250=IFCINDEXEDPOLYGONALFACE((8,16,15));
#251=IFCINDEXEDPOLYGONALFACE((8,1,16));
#252=IFCINDEXEDPOLYGONALFACE((1,9,16));
#253=IFCINDEXEDPOLYGONALFACE((8,7,6,5,4,3,2,1));
#254=IFCPOLYGONALFACESET(#236,$,(#237,#238,#239,#240,#241,#242,#243,#244,#245,#246,#247,#248,#249,#250,#251,#252,#253),$);
#255=IFCSHAPEREPRESENTATION(#18,'Body','Tessellation',(#254));
#256=IFCPRODUCTDEFINITIONSHAPE($,$,(#255));
#257=IFCSURFACESTYLE('Style',.BOTH.,(#258));
#258=IFCSURFACESTYLESHADING(#259,0.);
#259=IFCCOLOURRGB($,0.49,0.35,0.26);
#260=IFCSTYLEDITEM(#254,(#257),'Style');
#266=IFCBUILDINGELEMENTPROXY('2ryiFjUoX4QRZwWSeyd0lh',$,'Krone_0003',$,$,#470,#450,$,$);
#267=IFCCARTESIANPOINTLIST3D(((0.,3.9429833408935,6.3798810626403),(0.,-3.9429833408935,6.3798810626403),(3.9429833408935,6.3798810626403,0.),(-3.9429833408935,6.3798810626403,0.),(6.3798810626403,0.,3.9429833408935),(-6.3798810626403,0.,3.9429833408935),(-0.,-3.9429833408935,-6.3798810626403),(-0.,3.9429833408935,-6.3798810626403),(-3.9429833408935,-6.3798810626403,-0.),(3.9429833408935,-6.3798810626403,-0.),(-6.3798810626403,-0.,-3.9429833408935),(6.3798810626403,-0.,-3.9429833408935),(0.,1.51330579625699,7.34574064114811),(0.,-1.51330579625699,7.34574064114811),(1.51330579625699,5.47519180623002,4.89716042743207),(3.02661159251398,6.41046622368906,2.44858021371604),(-1.51330579625699,5.47519180623002,4.89716042743207),(-3.02661159251398,6.41046622368906,2.44858021371604),(2.44858021371604,3.02661159251398,6.41046622368906),(4.89716042743207,1.51330579625699,5.47519180623002),(-2.44858021371604,3.02661159251398,6.41046622368906),(-4.89716042743207,1.51330579625699,5.47519180623002),(2.44858021371604,-3.02661159251398,6.41046622368906),(4.89716042743207,-1.51330579625699,5.47519180623002),(-2.44858021371604,-3.02661159251398,6.41046622368906),(-4.89716042743207,-1.51330579625699,5.47519180623002),(-1.51330579625699,-5.47519180623002,4.89716042743207),(-3.02661159251398,-6.41046622368906,2.44858021371604),(1.51330579625699,-5.47519180623002,4.89716042743207),(3.02661159251398,-6.41046622368906,2.44858021371604),(1.51330579625699,7.34574064114811,0.),(-1.51330579625699,7.34574064114811,0.),(5.47519180623002,4.89716042743207,1.51330579625699),(6.41046622368906,2.44858021371604,3.02661159251398),(3.02661159251398,6.41046622368906,-2.44858021371604),(1.51330579625699,5.47519180623002,-4.89716042743207),(5.47519180623002,4.89716042743207,-1.51330579625699),(6.41046622368906,2.44858021371604,-3.02661159251398),(-5.47519180623002,4.89716042743207,1.51330579625699),(-6.41046622368906,2.44858021371604,3.02661159251398),(-3.02661159251398,6.41046622368906,-2.44858021371604),(-1.51330579625699,5.47519180623002,-4.89716042743207),(-5.47519180623002,4.89716042743207,-1.51330579625699),(-6.41046622368906,2.44858021371604,-3.02661159251398),(6.41046622368906,-2.44858021371604,3.02661159251398),(5.47519180623002,-4.89716042743207,1.51330579625699),(7.34574064114811,0.,1.51330579625699),(7.34574064114811,0.,-1.51330579625699),(-6.41046622368906,-2.44858021371604,3.02661159251398),(-5.47519180623002,-4.89716042743207,1.51330579625699),(-7.34574064114811,0.,1.51330579625699),(-7.34574064114811,0.,-1.51330579625699),(-0.,-1.51330579625699,-7.34574064114811),(-0.,1.51330579625699,-7.34574064114811),(-1.51330579625699,-5.47519180623002,-4.89716042743207),(-3.02661159251398,-6.41046622368906,-2.44858021371604),(1.51330579625699,-5.47519180623002,-4.89716042743207),(3.02661159251398,-6.41046622368906,-2.44858021371604),(-2.44858021371604,-3.02661159251398,-6.41046622368906),(-4.89716042743207,-1.51330579625699,-5.47519180623002),(2.44858021371604,-3.02661159251398,-6.41046622368906),(4.89716042743207,-1.51330579625699,-5.47519180623002),(-2.44858021371604,3.02661159251398,-6.41046622368906),(-4.89716042743207,1.51330579625699,-5.47519180623002),(2.44858021371604,3.02661159251398,-6.41046622368906),(4.89716042743207,1.51330579625699,-5.47519180623002),(-1.51330579625699,-7.34574064114811,-0.),(1.51330579625699,-7.34574064114811,-0.),(-5.47519180623002,-4.89716042743207,-1.51330579625699),(-6.41046622368906,-2.44858021371604,-3.02661159251398),(5.47519180623002,-4.89716042743207,-1.51330579625699),(6.41046622368906,-2.44858021371604,-3.02661159251398),(-2.67616567329817,0.,7.00629269222037),(-4.33012701892219,4.33012701892219,4.33012701892219),(0.,7.00629269222037,2.67616567329817),(4.33012701892219,4.33012701892219,4.33012701892219),(2.67616567329817,0.,7.00629269222037),(-4.33012701892219,-4.33012701892219,4.33012701892219),(-7.00629269222037,2.67616567329817,0.),(0.,7.00629269222037,-2.67616567329817),(7.00629269222037,2.67616567329817,0.),(4.33012701892219,-4.33012701892219,4.33012701892219),(2.67616567329817,0.,-7.00629269222037),(4.33012701892219,-4.33012701892219,-4.33012701892219),(0.,-7.00629269222037,-2.67616567329817),(-4.33012701892219,-4.33012701892219,-4.33012701892219),(-2.67616567329817,0.,-7.00629269222037),(4.33012701892219,4.33012701892219,-4.33012701892219),(7.00629269222037,-2.67616567329817,0.),(0.,-7.00629269222037,2.67616567329817),(-7.00629269222037,-2.67616567329817,0.),(-4.33012701892219,4.33012701892219,-4.33012701892219)));
#268=IFCINDEXEDPOLYGONALFACE((1,21,13));
#269=IFCINDEXEDPOLYGONALFACE((21,22,73));
#270=IFCINDEXEDPOLYGONALFACE((21,73,13));
#271=IFCINDEXEDPOLYGONALFACE((13,73,14));
#272=IFCINDEXEDPOLYGONALFACE((22,6,26));
#273=IFCINDEXEDPOLYGONALFACE((22,26,73));
#274=IFCINDEXEDPOLYGONALFACE((73,26,25));
#275=IFCINDEXEDPOLYGONALFACE((73,25,14));
#276=IFCINDEXEDPOLYGONALFACE((14,25,2));
#277=IFCINDEXEDPOLYGONALFACE((1,17,21));
#278=IFCINDEXEDPOLYGONALFACE((17,18,74));
#279=IFCINDEXEDPOLYGONALFACE((17,74,21));
#280=IFCINDEXEDPOLYGONALFACE((21,74,22));
#281=IFCINDEXEDPOLYGONALFACE((18,4,39));
#282=IFCINDEXEDPOLYGONALFACE((18,39,74));
#283=IFCINDEXEDPOLYGONALFACE((74,39,40));
#284=IFCINDEXEDPOLYGONALFACE((74,40,22));
#285=IFCINDEXEDPOLYGONALFACE((22,40,6));
#286=IFCINDEXEDPOLYGONALFACE((1,15,17));
#287=IFCINDEXEDPOLYGONALFACE((15,16,75));
#288=IFCINDEXEDPOLYGONALFACE((15,75,17));
#289=IFCINDEXEDPOLYGONALFACE((17,75,18));
#290=IFCINDEXEDPOLYGONALFACE((16,3,31));
#291=IFCINDEXEDPOLYGONALFACE((16,31,75));
#292=IFCINDEXEDPOLYGONALFACE((75,31,32));
#293=IFCINDEXEDPOLYGONALFACE((75,32,18));
#294=IFCINDEXEDPOLYGONALFACE((18,32,4));
#295=IFCINDEXEDPOLYGONALFACE((1,19,15));
#296=IFCINDEXEDPOLYGONALFACE((19,20,76));
#297=IFCINDEXEDPOLYGONALFACE((19,76,15));
#298=IFCINDEXEDPOLYGONALFACE((15,76,16));
#299=IFCINDEXEDPOLYGONALFACE((20,5,34));
#300=IFCINDEXEDPOLYGONALFACE((20,34,76));
#301=IFCINDEXEDPOLYGONALFACE((76,34,33));
#302=IFCINDEXEDPOLYGONALFACE((76,33,16));
#303=IFCINDEXEDPOLYGONALFACE((16,33,3));
#304=IFCINDEXEDPOLYGONALFACE((1,13,19));
#305=IFCINDEXEDPOLYGONALFACE((13,14,77));
#306=IFCINDEXEDPOLYGONALFACE((13,77,19));
#307=IFCINDEXEDPOLYGONALFACE((19,77,20));
#308=IFCINDEXEDPOLYGONALFACE((14,2,23));
#309=IFCINDEXEDPOLYGONALFACE((14,23,77));
#310=IFCINDEXEDPOLYGONALFACE((77,23,24));
#311=IFCINDEXEDPOLYGONALFACE((77,24,20));
#312=IFCINDEXEDPOLYGONALFACE((20,24,5));
#313=IFCINDEXEDPOLYGONALFACE((2,25,27));
#314=IFCINDEXEDPOLYGONALFACE((25,26,78));
#315=IFCINDEXEDPOLYGONALFACE((25,78,27));
#316=IFCINDEXEDPOLYGONALFACE((27,78,28));
#317=IFCINDEXEDPOLYGONALFACE((26,6,49));
#318=IFCINDEXEDPOLYGONALFACE((26,49,78));
#319=IFCINDEXEDPOLYGONALFACE((78,49,50));
#320=IFCINDEXEDPOLYGONALFACE((78,50,28));
#321=IFCINDEXEDPOLYGONALFACE((28,50,9));
#322=IFCINDEXEDPOLYGONALFACE((6,40,51));
#323=IFCINDEXEDPOLYGONALFACE((40,39,79));
#324=IFCINDEXEDPOLYGONALFACE((40,79,51));
#325=IFCINDEXEDPOLYGONALFACE((51,79,52));
#326=IFCINDEXEDPOLYGONALFACE((39,4,43));
#327=IFCINDEXEDPOLYGONALFACE((39,43,79));
#328=IFCINDEXEDPOLYGONALFACE((79,43,44));
#329=IFCINDEXEDPOLYGONALFACE((79,44,52));
#330=IFCINDEXEDPOLYGONALFACE((52,44,11));
#331=IFCINDEXEDPOLYGONALFACE((4,32,41));
#332=IFCINDEXEDPOLYGONALFACE((32,31,80));
#333=IFCINDEXEDPOLYGONALFACE((32,80,41));
#334=IFCINDEXEDPOLYGONALFACE((41,80,42));
#335=IFCINDEXEDPOLYGONALFACE((31,3,35));
#336=IFCINDEXEDPOLYGONALFACE((31,35,80));
#337=IFCINDEXEDPOLYGONALFACE((80,35,36));
#338=IFCINDEXEDPOLYGONALFACE((80,36,42));
#339=IFCINDEXEDPOLYGONALFACE((42,36,8));
#340=IFCINDEXEDPOLYGONALFACE((3,33,37));
#341=IFCINDEXEDPOLYGONALFACE((33,34,81));
#342=IFCINDEXEDPOLYGONALFACE((33,81,37));
#343=IFCINDEXEDPOLYGONALFACE((37,81,38));
#344=IFCINDEXEDPOLYGONALFACE((34,5,47));
#345=IFCINDEXEDPOLYGONALFACE((34,47,81));
#346=IFCINDEXEDPOLYGONALFACE((81,47,48));
#347=IFCINDEXEDPOLYGONALFACE((81,48,38));
#348=IFCINDEXEDPOLYGONALFACE((38,48,12));
#349=IFCINDEXEDPOLYGONALFACE((5,24,45));
#350=IFCINDEXEDPOLYGONALFACE((24,23,82));
#351=IFCINDEXEDPOLYGONALFACE((24,82,45));
#352=IFCINDEXEDPOLYGONALFACE((45,82,46));
#353=IFCINDEXEDPOLYGONALFACE((23,2,29));
#354=IFCINDEXEDPOLYGONALFACE((23,29,82));
#355=IFCINDEXEDPOLYGONALFACE((82,29,30));
#356=IFCINDEXEDPOLYGONALFACE((82,30,46));
#357=IFCINDEXEDPOLYGONALFACE((46,30,10));
#358=IFCINDEXEDPOLYGONALFACE((8,65,54));
#359=IFCINDEXEDPOLYGONALFACE((65,66,83));
#360=IFCINDEXEDPOLYGONALFACE((65,83,54));
#361=IFCINDEXEDPOLYGONALFACE((54,83,53));
#362=IFCINDEXEDPOLYGONALFACE((66,12,62));
#363=IFCINDEXEDPOLYGONALFACE((66,62,83));
#364=IFCINDEXEDPOLYGONALFACE((83,62,61));
#365=IFCINDEXEDPOLYGONALFACE((83,61,53));
#366=IFCINDEXEDPOLYGONALFACE((53,61,7));
#367=IFCINDEXEDPOLYGONALFACE((12,72,62));
#368=IFCINDEXEDPOLYGONALFACE((72,71,84));
#369=IFCINDEXEDPOLYGONALFACE((72,84,62));
#370=IFCINDEXEDPOLYGONALFACE((62,84,61));
#371=IFCINDEXEDPOLYGONALFACE((71,10,58));
#372=IFCINDEXEDPOLYGONALFACE((71,58,84));
#373=IFCINDEXEDPOLYGONALFACE((84,58,57));
#374=IFCINDEXEDPOLYGONALFACE((84,57,61));
#375=IFCINDEXEDPOLYGONALFACE((61,57,7));
#376=IFCINDEXEDPOLYGONALFACE((10,68,58));
#377=IFCINDEXEDPOLYGONALFACE((68,67,85));
#378=IFCINDEXEDPOLYGONALFACE((68,85,58));
#379=IFCINDEXEDPOLYGONALFACE((58,85,57));
#380=IFCINDEXEDPOLYGONALFACE((67,9,56));
#381=IFCINDEXEDPOLYGONALFACE((67,56,85));
#382=IFCINDEXEDPOLYGONALFACE((85,56,55));
#383=IFCINDEXEDPOLYGONALFACE((85,55,57));
#384=IFCINDEXEDPOLYGONALFACE((57,55,7));
#385=IFCINDEXEDPOLYGONALFACE((9,69,56));
#386=IFCINDEXEDPOLYGONALFACE((69,70,86));
#387=IFCINDEXEDPOLYGONALFACE((69,86,56));
#388=IFCINDEXEDPOLYGONALFACE((56,86,55));
#389=IFCINDEXEDPOLYGONALFACE((70,11,60));
#390=IFCINDEXEDPOLYGONALFACE((70,60,86));
#391=IFCINDEXEDPOLYGONALFACE((86,60,59));
#392=IFCINDEXEDPOLYGONALFACE((86,59,55));
#393=IFCINDEXEDPOLYGONALFACE((55,59,7));
#394=IFCINDEXEDPOLYGONALFACE((11,64,60));
#395=IFCINDEXEDPOLYGONALFACE((64,63,87));
#396=IFCINDEXEDPOLYGONALFACE((64,87,60));
#397=IFCINDEXEDPOLYGONALFACE((60,87,59));
#398=IFCINDEXEDPOLYGONALFACE((63,8,54));
#399=IFCINDEXEDPOLYGONALFACE((63,54,87));
#400=IFCINDEXEDPOLYGONALFACE((87,54,53));
#401=IFCINDEXEDPOLYGONALFACE((87,53,59));
#402=IFCINDEXEDPOLYGONALFACE((59,53,7));
#403=IFCINDEXEDPOLYGONALFACE((3,37,35));
#404=IFCINDEXEDPOLYGONALFACE((37,38,88));
#405=IFCINDEXEDPOLYGONALFACE((37,88,35));
#406=IFCINDEXEDPOLYGONALFACE((35,88,36));
#407=IFCINDEXEDPOLYGONALFACE((38,12,66));
#408=IFCINDEXEDPOLYGONALFACE((38,66,88));
#409=IFCINDEXEDPOLYGONALFACE((88,66,65));
#410=IFCINDEXEDPOLYGONALFACE((88,65,36));
#411=IFCINDEXEDPOLYGONALFACE((36,65,8));
#412=IFCINDEXEDPOLYGONALFACE((5,45,47));
#413=IFCINDEXEDPOLYGONALFACE((45,46,89));
#414=IFCINDEXEDPOLYGONALFACE((45,89,47));
#415=IFCINDEXEDPOLYGONALFACE((47,89,48));
#416=IFCINDEXEDPOLYGONALFACE((46,10,71));
#417=IFCINDEXEDPOLYGONALFACE((46,71,89));
#418=IFCINDEXEDPOLYGONALFACE((89,71,72));
#419=IFCINDEXEDPOLYGONALFACE((89,72,48));
#420=IFCINDEXEDPOLYGONALFACE((48,72,12));
#421=IFCINDEXEDPOLYGONALFACE((2,27,29));
#422=IFCINDEXEDPOLYGONALFACE((27,28,90));
#423=IFCINDEXEDPOLYGONALFACE((27,90,29));
#424=IFCINDEXEDPOLYGONALFACE((29,90,30));
#425=IFCINDEXEDPOLYGONALFACE((28,9,67));
#426=IFCINDEXEDPOLYGONALFACE((28,67,90));
#427=IFCINDEXEDPOLYGONALFACE((90,67,68));
#428=IFCINDEXEDPOLYGONALFACE((90,68,30));
#429=IFCINDEXEDPOLYGONALFACE((30,68,10));
#430=IFCINDEXEDPOLYGONALFACE((6,51,49));
#431=IFCINDEXEDPOLYGONALFACE((51,52,91));
#432=IFCINDEXEDPOLYGONALFACE((51,91,49));
#433=IFCINDEXEDPOLYGONALFACE((49,91,50));
#434=IFCINDEXEDPOLYGONALFACE((52,11,70));
#435=IFCINDEXEDPOLYGONALFACE((52,70,91));
#436=IFCINDEXEDPOLYGONALFACE((91,70,69));
#437=IFCINDEXEDPOLYGONALFACE((91,69,50));
#438=IFCINDEXEDPOLYGONALFACE((50,69,9));
#439=IFCINDEXEDPOLYGONALFACE((4,41,43));
#440=IFCINDEXEDPOLYGONALFACE((41,42,92));
#441=IFCINDEXEDPOLYGONALFACE((41,92,43));
#442=IFCINDEXEDPOLYGONALFACE((43,92,44));
#443=IFCINDEXEDPOLYGONALFACE((42,8,63));
#444=IFCINDEXEDPOLYGONALFACE((42,63,92));
#445=IFCINDEXEDPOLYGONALFACE((92,63,64));
#446=IFCINDEXEDPOLYGONALFACE((92,64,44));
#447=IFCINDEXEDPOLYGONALFACE((44,64,11));
#448=IFCPOLYGONALFACESET(#267,$,(#268,#269,#270,#271,#272,#273,#274,#275,#276,#277,#278,#279,#280,#281,#282,#283,#284,#285,#286,#287,#288,#289,#290,#291,#292,#293,#294,#295,#296,#297,#298,#299,#300,#301,#302,#303,#304,#305,#306,#307,#308,#309,#310,#311,#312,#313,#314,#315,#316,#317,#318,#319,#320,#321,#322,#323,#324,#325,#326,#327,#328,#329,#330,#331,#332,#333,#334,#335,#336,#337,#338,#339,#340,#341,#342,#343,#344,#345,#346,#347,#348,#349,#350,#351,#352,#353,#354,#355,#356,#357,#358,#359,#360,#361,#362,#363,#364,#365,#366,#367,#368,#369,#370,#371,#372,#373,#374,#375,#376,#377,#378,#379,#380,#381,#382,#383,#384,#385,#386,#387,#388,#389,#390,#391,#392,#393,#394,#395,#396,#397,#398,#399,#400,#401,#402,#403,#404,#405,#406,#407,#408,#409,#410,#411,#412,#413,#414,#415,#416,#417,#418,#419,#420,#421,#422,#423,#424,#425,#426,#427,#428,#429,#430,#431,#432,#433,#434,#435,#436,#437,#438,#439,#440,#441,#442,#443,#444,#445,#446,#447),$);
#449=IFCSHAPEREPRESENTATION(#18,'Body','Tessellation',(#448));
#450=IFCPRODUCTDEFINITIONSHAPE($,$,(#449));
#451=IFCSURFACESTYLE('Style',.BOTH.,(#452));
#452=IFCSURFACESTYLESHADING(#453,0.);
#453=IFCCOLOURRGB($,0.22,0.55,0.26);
#454=IFCSTYLEDITEM(#448,(#451),'Style');
#460=IFCRELAGGREGATES('15K4yLqbT578WkwgWqloFx',$,$,$,#234,(#235,#266));
#461=IFCCARTESIANPOINT((558501.93,5927581.88,0.));
#462=IFCDIRECTION((0.,0.,1.));
#463=IFCDIRECTION((1.,0.,0.));
#464=IFCAXIS2PLACEMENT3D(#461,#462,#463);
#465=IFCLOCALPLACEMENT($,#464);
#466=IFCCARTESIANPOINT((558501.93,5927581.88,20.25));
#467=IFCDIRECTION((0.,0.,1.));
#468=IFCDIRECTION((1.,0.,0.));
#469=IFCAXIS2PLACEMENT3D(#466,#467,#468);
#470=IFCLOCALPLACEMENT($,#469);
#471=IFCPROPERTYSET('34KZf0sxjC4BfBureALLTs',$,'Pset_DGM',$,(#473,#474,#475));
#472=IFCRELDEFINESBYPROPERTIES('0QjsxChm1B3B0NZczlNxD1',$,$,$,(#234),#471);
#473=IFCPROPERTYSINGLEVALUE('strasse',$,IFCLABEL('Musterweg'),$);
#474=IFCPROPERTYSINGLEVALUE('stadtteil',$,IFCLABEL('Demo-Stadtteil'),$);
#475=IFCPROPERTYSINGLEVALUE('bezirk',$,IFCLABEL('Bramfeld'),$);
#476=IFCPROPERTYSET('0960ekcsT0NgpQVwBchaDG',$,'Pset_Objektinformation',$,(#478,#479,#480,#481,#482,#483,#484,#485));
#477=IFCRELDEFINESBYPROPERTIES('3uKdqEctT3neMDwfaA2dqM',$,$,$,(#234),#476);
#478=IFCPROPERTYSINGLEVALUE('baumnummer',$,IFCLABEL('120220'),$);
#479=IFCPROPERTYSINGLEVALUE('gattung_deutsch',$,IFCLABEL('Linde'),$);
#480=IFCPROPERTYSINGLEVALUE('baumid',$,IFCINTEGER(2),$);
#481=IFCPROPERTYSINGLEVALUE('art_deutsch',$,IFCLABEL('Winter-Linde'),$);
#482=IFCPROPERTYSINGLEVALUE('sorte_deutsch',$,IFCLABEL('Winter-Linde'),$);
#483=IFCPROPERTYSINGLEVALUE('pflanzjahr',$,IFCINTEGER(1985),$);
#484=IFCPROPERTYSINGLEVALUE('kronendurchmesser',$,IFCREAL(15.),$);
#485=IFCPROPERTYSINGLEVALUE('stammumfang',$,IFCREAL(0.45),$);
#486=IFCBUILDINGELEMENT('1vROIOefTFEQjmjTkJZ3a6',$,'Baum_0004',$,$,$,$,$);
#487=IFCBUILDINGELEMENTPROXY('1d3ZLFqXT1OuVpf0enFaUp',$,'Stamm_0004',$,$,#857,#508,$,$);
#488=IFCCARTESIANPOINTLIST3D(((0.0716218367022123,0.,0.),(0.0506442864131699,0.0506442864131699,0.),(4.38557265332094E-18,0.0716218367022123,0.),(-0.0506442864131699,0.0506442864131699,0.),(-0.0716218367022123,8.77114530664187E-18,0.),(-0.0506442864131699,-0.0506442864131699,0.),(-1.31567179599628E-17,-0.0716218367022123,0.),(0.0506442864131699,-0.0506442864131699,0.),(0.0716218367022123,0.,17.),(0.0506442864131699,0.0506442864131699,17.),(4.38557265332094E-18,0.0716218367022123,17.),(-0.0506442864131699,0.0506442864131699,17.),(-0.0716218367022123,8.77114530664187E-18,17.),(-0.0506442864131699,-0.0506442864131699,17.),(-1.31567179599628E-17,-0.0716218367022123,17.),(0.0506442864131699,-0.0506442864131699,17.)));
#489=IFCINDEXEDPOLYGONALFACE((1,2,9));
#490=IFCINDEXEDPOLYGONALFACE((2,10,9));
#491=IFCINDEXEDPOLYGONALFACE((2,3,10));
#492=IFCINDEXEDPOLYGONALFACE((3,11,10));
#493=IFCINDEXEDPOLYGONALFACE((3,4,11));
#494=IFCINDEXEDPOLYGONALFACE((4,12,11));
#495=IFCINDEXEDPOLYGONALFACE((4,5,12));
#496=IFCINDEXEDPOLYGONALFACE((5,13,12));
#497=IFCINDEXEDPOLYGONALFACE((5,6,13));
#498=IFCINDEXEDPOLYGONALFACE((6,14,13));
#499=IFCINDEXEDPOLYGONALFACE((6,7,14));
#500=IFCINDEXEDPOLYGONALFACE((7,15,14));
#501=IFCINDEXEDPOLYGONALFACE((7,8,15));
#502=IFCINDEXEDPOLYGONALFACE((8,16,15));
#503=IFCINDEXEDPOLYGONALFACE((8,1,16));
#504=IFCINDEXEDPOLYGONALFACE((1,9,16));
#505=IFCINDEXEDPOLYGONALFACE((8,7,6,5,4,3,2,1));
#506=IFCPOLYGONALFACESET(#488,$,(#489,#490,#491,#492,#493,#494,#495,#496,#497,#498,#499,#500,#501,#502,#503,#504,#505),$);
#507=IFCSHAPEREPRESENTATION(#18,'Body','Tessellation',(#506));
#508=IFCPRODUCTDEFINITIONSHAPE($,$,(#507));
#509=IFCSURFACESTYLE('Style',.BOTH.,(#510));
#510=IFCSURFACESTYLESHADING(#511,0.);
#511=IFCCOLOURRGB($,0.49,0.35,0.26);
#512=IFCSTYLEDITEM(#506,(#509),'Style');
#518=IFCBUILDINGELEMENTPROXY('1nOF5$a3zE9wqiszECyC7q',$,'Krone_0004',$,$,#862,#842,$,$);
#519=IFCCARTESIANPOINTLIST3D(((0.,3.9429833408935,6.3798810626403),(0.,-3.9429833408935,6.3798810626403),(3.9429833408935,6.3798810626403,0.),(-3.9429833408935,6.3798810626403,0.),(6.3798810626403,0.,3.9429833408935),(-6.3798810626403,0.,3.9429833408935),(-0.,-3.9429833408935,-6.3798810626403),(-0.,3.9429833408935,-6.3798810626403),(-3.9429833408935,-6.3798810626403,-0.),(3.9429833408935,-6.3798810626403,-0.),(-6.3798810626403,-0.,-3.9429833408935),(6.3798810626403,-0.,-3.9429833408935),(0.,2.21431356633245,7.16566922415179),(0.,0.,7.5),(0.,-2.21431356633245,7.16566922415179),(1.10715678316622,5.11288765553662,5.37425191811384),(2.31762745781211,6.06762745781211,3.75),(3.32147034949867,6.48140870128007,1.79141730603795),(-1.10715678316622,5.11288765553662,5.37425191811384),(-2.31762745781211,6.06762745781211,3.75),(-3.32147034949867,6.48140870128007,1.79141730603795),(1.79141730603795,3.32147034949867,6.48140870128007),(3.75,2.31762745781211,6.06762745781211),(5.37425191811384,1.10715678316622,5.11288765553662),(-1.79141730603795,3.32147034949867,6.48140870128007),(-3.75,2.31762745781211,6.06762745781211),(-5.37425191811384,1.10715678316622,5.11288765553662),(1.79141730603795,-3.32147034949867,6.48140870128007),(3.75,-2.31762745781211,6.06762745781211),(5.37425191811384,-1.10715678316622,5.11288765553662),(-1.79141730603795,-3.32147034949867,6.48140870128007),(-3.75,-2.31762745781211,6.06762745781211),(-5.37425191811384,-1.10715678316622,5.11288765553662),(-1.10715678316622,-5.11288765553662,5.37425191811384),(-2.31762745781211,-6.06762745781211,3.75),(-3.32147034949867,-6.48140870128007,1.79141730603795),(1.10715678316622,-5.11288765553662,5.37425191811384),(2.31762745781211,-6.06762745781211,3.75),(3.32147034949867,-6.48140870128007,1.79141730603795),(2.21431356633245,7.16566922415179,0.),(0.,7.5,0.),(-2.21431356633245,7.16566922415179,0.),(5.11288765553662,5.37425191811384,1.10715678316622),(6.06762745781211,3.75,2.31762745781211),(6.48140870128007,1.79141730603795,3.32147034949867),(3.32147034949867,6.48140870128007,-1.79141730603795),(2.31762745781211,6.06762745781211,-3.75),(1.10715678316622,5.11288765553662,-5.37425191811384),(5.11288765553662,5.37425191811384,-1.10715678316622),(6.06762745781211,3.75,-2.31762745781211),(6.48140870128007,1.79141730603795,-3.32147034949867),(-5.11288765553662,5.37425191811384,1.10715678316622),(-6.06762745781211,3.75,2.31762745781211),(-6.48140870128007,1.79141730603795,3.32147034949867),(-3.32147034949867,6.48140870128007,-1.79141730603795),(-2.31762745781211,6.06762745781211,-3.75),(-1.10715678316622,5.11288765553662,-5.37425191811384),(-5.11288765553662,5.37425191811384,-1.10715678316622),(-6.06762745781211,3.75,-2.31762745781211),(-6.48140870128007,1.79141730603795,-3.32147034949867),(6.48140870128007,-1.79141730603795,3.32147034949867),(6.06762745781211,-3.75,2.31762745781211),(5.11288765553662,-5.37425191811384,1.10715678316622),(7.16566922415179,0.,2.21431356633245),(7.5,0.,0.),(7.16566922415179,0.,-2.21431356633245),(-6.48140870128007,-1.79141730603795,3.32147034949867),(-6.06762745781211,-3.75,2.31762745781211),(-5.11288765553662,-5.37425191811384,1.10715678316622),(-7.16566922415179,0.,2.21431356633245),(-7.5,0.,0.),(-7.16566922415179,0.,-2.21431356633245),(-0.,-2.21431356633245,-7.16566922415179),(-0.,0.,-7.5),(-0.,2.21431356633245,-7.16566922415179),(-1.10715678316622,-5.11288765553662,-5.37425191811384),(-2.31762745781211,-6.06762745781211,-3.75),(-3.32147034949867,-6.48140870128007,-1.79141730603795),(1.10715678316622,-5.11288765553662,-5.37425191811384),(2.31762745781211,-6.06762745781211,-3.75),(3.32147034949867,-6.48140870128007,-1.79141730603795),(-1.79141730603795,-3.32147034949867,-6.48140870128007),(-3.75,-2.31762745781211,-6.06762745781211),(-5.37425191811384,-1.10715678316622,-5.11288765553662),(1.79141730603795,-3.32147034949867,-6.48140870128007),(3.75,-2.31762745781211,-6.06762745781211),(5.37425191811384,-1.10715678316622,-5.11288765553662),(-1.79141730603795,3.32147034949867,-6.48140870128007),(-3.75,2.31762745781211,-6.06762745781211),(-5.37425191811384,1.10715678316622,-5.11288765553662),(1.79141730603795,3.32147034949867,-6.48140870128007),(3.75,2.31762745781211,-6.06762745781211),(5.37425191811384,1.10715678316622,-5.11288765553662),(-2.21431356633245,-7.16566922415179,-0.),(0.,-7.5,-0.),(2.21431356633245,-7.16566922415179,-0.),(-5.11288765553662,-5.37425191811384,-1.10715678316622),(-6.06762745781211,-3.75,-2.31762745781211),(-6.48140870128007,-1.79141730603795,-3.32147034949867),(5.11288765553662,-5.37425191811384,-1.10715678316622),(6.06762745781211,-3.75,-2.31762745781211),(6.48140870128007,-1.79141730603795,-3.32147034949867),(-1.97149167044675,1.2184488608734,7.13292387221365),(-3.9429833408935,-2.57308336616647E-16,6.3798810626403),(-1.97149167044675,-1.2184488608734,7.13292387221365),(-3.18994053132015,4.40838939219355,5.1614322017669),(-4.40838939219355,5.1614322017669,3.18994053132015),(-5.1614322017669,3.18994053132015,4.40838939219355),(0.,6.3798810626403,3.9429833408935),(1.2184488608734,7.13292387221365,1.97149167044675),(-1.2184488608734,7.13292387221365,1.97149167044675),(3.18994053132015,4.40838939219355,5.1614322017669),(5.1614322017669,3.18994053132015,4.40838939219355),(4.40838939219355,5.1614322017669,3.18994053132015),(1.97149167044675,1.2184488608734,7.13292387221365),(1.97149167044675,-1.2184488608734,7.13292387221365),(3.9429833408935,-2.57308336616647E-16,6.3798810626403),(-3.18994053132015,-4.40838939219355,5.1614322017669),(-5.1614322017669,-3.18994053132015,4.40838939219355),(-4.40838939219355,-5.1614322017669,3.18994053132015),(-7.13292387221365,1.97149167044675,1.2184488608734),(-6.3798810626403,3.9429833408935,-2.57308336616647E-16),(-7.13292387221365,1.97149167044675,-1.2184488608734),(-1.2184488608734,7.13292387221365,-1.97149167044675),(1.2184488608734,7.13292387221365,-1.97149167044675),(2.57308336616647E-16,6.3798810626403,-3.9429833408935),(6.3798810626403,3.9429833408935,0.),(7.13292387221365,1.97149167044675,1.2184488608734),(7.13292387221365,1.97149167044675,-1.2184488608734),(5.1614322017669,-3.18994053132015,4.40838939219355),(3.18994053132015,-4.40838939219355,5.1614322017669),(4.40838939219355,-5.1614322017669,3.18994053132015),(1.97149167044675,1.2184488608734,-7.13292387221365),(3.9429833408935,-2.57308336616647E-16,-6.3798810626403),(1.97149167044675,-1.2184488608734,-7.13292387221365),(5.1614322017669,-3.18994053132015,-4.40838939219355),(4.40838939219355,-5.1614322017669,-3.18994053132015),(3.18994053132015,-4.40838939219355,-5.1614322017669),(1.2184488608734,-7.13292387221365,-1.97149167044675),(-1.2184488608734,-7.13292387221365,-1.97149167044675),(-2.57308336616647E-16,-6.3798810626403,-3.9429833408935),(-4.40838939219355,-5.1614322017669,-3.18994053132015),(-5.1614322017669,-3.18994053132015,-4.40838939219355),(-3.18994053132015,-4.40838939219355,-5.1614322017669),(-3.9429833408935,0.,-6.3798810626403),(-1.97149167044675,1.2184488608734,-7.13292387221365),(-1.97149167044675,-1.2184488608734,-7.13292387221365),(4.40838939219355,5.1614322017669,-3.18994053132015),(5.1614322017669,3.18994053132015,-4.40838939219355),(3.18994053132015,4.40838939219355,-5.1614322017669),(7.13292387221365,-1.97149167044675,1.2184488608734),(6.3798810626403,-3.9429833408935,-2.57308336616647E-16),(7.13292387221365,-1.97149167044675,-1.2184488608734),(0.,-6.3798810626403,3.9429833408935),(-1.2184488608734,-7.13292387221365,1.97149167044675),(1.2184488608734,-7.13292387221365,1.97149167044675),(-7.13292387221365,-1.97149167044675,1.2184488608734),(-7.13292387221365,-1.97149167044675,-1.2184488608734),(-6.3798810626403,-3.9429833408935,-2.57308336616647E-16),(-4.40838939219355,5.1614322017669,-3.18994053132015),(-3.18994053132015,4.40838939219355,-5.1614322017669),(-5.1614322017669,3.18994053132015,-4.40838939219355)));
#520=IFCINDEXEDPOLYGONALFACE((1,25,13));
#521=IFCINDEXEDPOLYGONALFACE((25,26,103));
#522=IFCINDEXEDPOLYGONALFACE((25,103,13));
#523=IFCINDEXEDPOLYGONALFACE((13,103,14));
#524=IFCINDEXEDPOLYGONALFACE((26,27,104));
#525=IFCINDEXEDPOLYGONALFACE((26,104,103));
#526=IFCINDEXEDPOLYGONALFACE((103,104,105));
#527=IFCINDEXEDPOLYGONALFACE((103,105,14));
#528=IFCINDEXEDPOLYGONALFACE((14,105,15));
#529=IFCINDEXEDPOLYGONALFACE((27,6,33));
#530=IFCINDEXEDPOLYGONALFACE((27,33,104));
#531=IFCINDEXEDPOLYGONALFACE((104,33,32));
#532=IFCINDEXEDPOLYGONALFACE((104,32,105));
#533=IFCINDEXEDPOLYGONALFACE((105,32,31));
#534=IFCINDEXEDPOLYGONALFACE((105,31,15));
#535=IFCINDEXEDPOLYGONALFACE((15,31,2));
#536=IFCINDEXEDPOLYGONALFACE((1,19,25));
#537=IFCINDEXEDPOLYGONALFACE((19,20,106));
#538=IFCINDEXEDPOLYGONALFACE((19,106,25));
#539=IFCINDEXEDPOLYGONALFACE((25,106,26));
#540=IFCINDEXEDPOLYGONALFACE((20,21,107));
#541=IFCINDEXEDPOLYGONALFACE((20,107,106));
#542=IFCINDEXEDPOLYGONALFACE((106,107,108));
#543=IFCINDEXEDPOLYGONALFACE((106,108,26));
#544=IFCINDEXEDPOLYGONALFACE((26,108,27));
#545=IFCINDEXEDPOLYGONALFACE((21,4,52));
#546=IFCINDEXEDPOLYGONALFACE((21,52,107));
#547=IFCINDEXEDPOLYGONALFACE((107,52,53));
#548=IFCINDEXEDPOLYGONALFACE((107,53,108));
#549=IFCINDEXEDPOLYGONALFACE((108,53,54));
#550=IFCINDEXEDPOLYGONALFACE((108,54,27));
#551=IFCINDEXEDPOLYGONALFACE((27,54,6));
#552=IFCINDEXEDPOLYGONALFACE((1,16,19));
#553=IFCINDEXEDPOLYGONALFACE((16,17,109));
#554=IFCINDEXEDPOLYGONALFACE((16,109,19));
#555=IFCINDEXEDPOLYGONALFACE((19,109,20));
#556=IFCINDEXEDPOLYGONALFACE((17,18,110));
#557=IFCINDEXEDPOLYGONALFACE((17,110,109));
#558=IFCINDEXEDPOLYGONALFACE((109,110,111));
#559=IFCINDEXEDPOLYGONALFACE((109,111,20));
#560=IFCINDEXEDPOLYGONALFACE((20,111,21));
#561=IFCINDEXEDPOLYGONALFACE((18,3,40));
#562=IFCINDEXEDPOLYGONALFACE((18,40,110));
#563=IFCINDEXEDPOLYGONALFACE((110,40,41));
#564=IFCINDEXEDPOLYGONALFACE((110,41,111));
#565=IFCINDEXEDPOLYGONALFACE((111,41,42));
#566=IFCINDEXEDPOLYGONALFACE((111,42,21));
#567=IFCINDEXEDPOLYGONALFACE((21,42,4));
#568=IFCINDEXEDPOLYGONALFACE((1,22,16));
#569=IFCINDEXEDPOLYGONALFACE((22,23,112));
#570=IFCINDEXEDPOLYGONALFACE((22,112,16));
#571=IFCINDEXEDPOLYGONALFACE((16,112,17));
#572=IFCINDEXEDPOLYGONALFACE((23,24,113));
#573=IFCINDEXEDPOLYGONALFACE((23,113,112));
#574=IFCINDEXEDPOLYGONALFACE((112,113,114));
#575=IFCINDEXEDPOLYGONALFACE((112,114,17));
#576=IFCINDEXEDPOLYGONALFACE((17,114,18));
#577=IFCINDEXEDPOLYGONALFACE((24,5,45));
#578=IFCINDEXEDPOLYGONALFACE((24,45,113));
#579=IFCINDEXEDPOLYGONALFACE((113,45,44));
#580=IFCINDEXEDPOLYGONALFACE((113,44,114));
#581=IFCINDEXEDPOLYGONALFACE((114,44,43));
#582=IFCINDEXEDPOLYGONALFACE((114,43,18));
#583=IFCINDEXEDPOLYGONALFACE((18,43,3));
#584=IFCINDEXEDPOLYGONALFACE((1,13,22));
#585=IFCINDEXEDPOLYGONALFACE((13,14,115));
#586=IFCINDEXEDPOLYGONALFACE((13,115,22));
#587=IFCINDEXEDPOLYGONALFACE((22,115,23));
#588=IFCINDEXEDPOLYGONALFACE((14,15,116));
#589=IFCINDEXEDPOLYGONALFACE((14,116,115));
#590=IFCINDEXEDPOLYGONALFACE((115,116,117));
#591=IFCINDEXEDPOLYGONALFACE((115,117,23));
#592=IFCINDEXEDPOLYGONALFACE((23,117,24));
#593=IFCINDEXEDPOLYGONALFACE((15,2,28));
#594=IFCINDEXEDPOLYGONALFACE((15,28,116));
#595=IFCINDEXEDPOLYGONALFACE((116,28,29));
#596=IFCINDEXEDPOLYGONALFACE((116,29,117));
#597=IFCINDEXEDPOLYGONALFACE((117,29,30));
#598=IFCINDEXEDPOLYGONALFACE((117,30,24));
#599=IFCINDEXEDPOLYGONALFACE((24,30,5));
#600=IFCINDEXEDPOLYGONALFACE((2,31,34));
#601=IFCINDEXEDPOLYGONALFACE((31,32,118));
#602=IFCINDEXEDPOLYGONALFACE((31,118,34));
#603=IFCINDEXEDPOLYGONALFACE((34,118,35));
#604=IFCINDEXEDPOLYGONALFACE((32,33,119));
#605=IFCINDEXEDPOLYGONALFACE((32,119,118));
#606=IFCINDEXEDPOLYGONALFACE((118,119,120));
#607=IFCINDEXEDPOLYGONALFACE((118,120,35));
#608=IFCINDEXEDPOLYGONALFACE((35,120,36));
#609=IFCINDEXEDPOLYGONALFACE((33,6,67));
#610=IFCINDEXEDPOLYGONALFACE((33,67,119));
#611=IFCINDEXEDPOLYGONALFACE((119,67,68));
#612=IFCINDEXEDPOLYGONALFACE((119,68,120));
#613=IFCINDEXEDPOLYGONALFACE((120,68,69));
#614=IFCINDEXEDPOLYGONALFACE((120,69,36));
#615=IFCINDEXEDPOLYGONALFACE((36,69,9));
#616=IFCINDEXEDPOLYGONALFACE((6,54,70));
#617=IFCINDEXEDPOLYGONALFACE((54,53,121));
#618=IFCINDEXEDPOLYGONALFACE((54,121,70));
#619=IFCINDEXEDPOLYGONALFACE((70,121,71));
#620=IFCINDEXEDPOLYGONALFACE((53,52,122));
#621=IFCINDEXEDPOLYGONALFACE((53,122,121));
#622=IFCINDEXEDPOLYGONALFACE((121,122,123));
#623=IFCINDEXEDPOLYGONALFACE((121,123,71));
#624=IFCINDEXEDPOLYGONALFACE((71,123,72));
#625=IFCINDEXEDPOLYGONALFACE((52,4,58));
#626=IFCINDEXEDPOLYGONALFACE((52,58,122));
#627=IFCINDEXEDPOLYGONALFACE((122,58,59));
#628=IFCINDEXEDPOLYGONALFACE((122,59,123));
#629=IFCINDEXEDPOLYGONALFACE((123,59,60));
#630=IFCINDEXEDPOLYGONALFACE((123,60,72));
#631=IFCINDEXEDPOLYGONALFACE((72,60,11));
#632=IFCINDEXEDPOLYGONALFACE((4,42,55));
#633=IFCINDEXEDPOLYGONALFACE((42,41,124));
#634=IFCINDEXEDPOLYGONALFACE((42,124,55));
#635=IFCINDEXEDPOLYGONALFACE((55,124,56));
#636=IFCINDEXEDPOLYGONALFACE((41,40,125));
#637=IFCINDEXEDPOLYGONALFACE((41,125,124));
#638=IFCINDEXEDPOLYGONALFACE((124,125,126));
#639=IFCINDEXEDPOLYGONALFACE((124,126,56));
#640=IFCINDEXEDPOLYGONALFACE((56,126,57));
#641=IFCINDEXEDPOLYGONALFACE((40,3,46));
#642=IFCINDEXEDPOLYGONALFACE((40,46,125));
#643=IFCINDEXEDPOLYGONALFACE((125,46,47));
#644=IFCINDEXEDPOLYGONALFACE((125,47,126));
#645=IFCINDEXEDPOLYGONALFACE((126,47,48));
#646=IFCINDEXEDPOLYGONALFACE((126,48,57));
#647=IFCINDEXEDPOLYGONALFACE((57,48,8));
#648=IFCINDEXEDPOLYGONALFACE((3,43,49));
#649=IFCINDEXEDPOLYGONALFACE((43,44,127));
#650=IFCINDEXEDPOLYGONALFACE((43,127,49));
#651=IFCINDEXEDPOLYGONALFACE((49,127,50));
#652=IFCINDEXEDPOLYGONALFACE((44,45,128));
#653=IFCINDEXEDPOLYGONALFACE((44,128,127));
#654=IFCINDEXEDPOLYGONALFACE((127,128,129));
#655=IFCINDEXEDPOLYGONALFACE((127,129,50));
#656=IFCINDEXEDPOLYGONALFACE((50,129,51));
#657=IFCINDEXEDPOLYGONALFACE((45,5,64));
#658=IFCINDEXEDPOLYGONALFACE((45,64,128));
#659=IFCINDEXEDPOLYGONALFACE((128,64,65));
#660=IFCINDEXEDPOLYGONALFACE((128,65,129));
#661=IFCINDEXEDPOLYGONALFACE((129,65,66));
#662=IFCINDEXEDPOLYGONALFACE((129,66,51));
#663=IFCINDEXEDPOLYGONALFACE((51,66,12));
#664=IFCINDEXEDPOLYGONALFACE((5,30,61));
#665=IFCINDEXEDPOLYGONALFACE((30,29,130));
#666=IFCINDEXEDPOLYGONALFACE((30,130,61));
#667=IFCINDEXEDPOLYGONALFACE((61,130,62));
#668=IFCINDEXEDPOLYGONALFACE((29,28,131));
#669=IFCINDEXEDPOLYGONALFACE((29,131,130));
#670=IFCINDEXEDPOLYGONALFACE((130,131,132));
#671=IFCINDEXEDPOLYGONALFACE((130,132,62));
#672=IFCINDEXEDPOLYGONALFACE((62,132,63));
#673=IFCINDEXEDPOLYGONALFACE((28,2,37));
#674=IFCINDEXEDPOLYGONALFACE((28,37,131));
#675=IFCINDEXEDPOLYGONALFACE((131,37,38));
#676=IFCINDEXEDPOLYGONALFACE((131,38,132));
#677=IFCINDEXEDPOLYGONALFACE((132,38,39));
#678=IFCINDEXEDPOLYGONALFACE((132,39,63));
#679=IFCINDEXEDPOLYGONALFACE((63,39,10));
#680=IFCINDEXEDPOLYGONALFACE((8,91,75));
#681=IFCINDEXEDPOLYGONALFACE((91,92,133));
#682=IFCINDEXEDPOLYGONALFACE((91,133,75));
#683=IFCINDEXEDPOLYGONALFACE((75,133,74));
#684=IFCINDEXEDPOLYGONALFACE((92,93,134));
#685=IFCINDEXEDPOLYGONALFACE((92,134,133));
#686=IFCINDEXEDPOLYGONALFACE((133,134,135));
#687=IFCINDEXEDPOLYGONALFACE((133,135,74));
#688=IFCINDEXEDPOLYGONALFACE((74,135,73));
#689=IFCINDEXEDPOLYGONALFACE((93,12,87));
#690=IFCINDEXEDPOLYGONALFACE((93,87,134));
#691=IFCINDEXEDPOLYGONALFACE((134,87,86));
#692=IFCINDEXEDPOLYGONALFACE((134,86,135));
#693=IFCINDEXEDPOLYGONALFACE((135,86,85));
#694=IFCINDEXEDPOLYGONALFACE((135,85,73));
#695=IFCINDEXEDPOLYGONALFACE((73,85,7));
#696=IFCINDEXEDPOLYGONALFACE((12,102,87));
#697=IFCINDEXEDPOLYGONALFACE((102,101,136));
#698=IFCINDEXEDPOLYGONALFACE((102,136,87));
#699=IFCINDEXEDPOLYGONALFACE((87,136,86));
#700=IFCINDEXEDPOLYGONALFACE((101,100,137));
#701=IFCINDEXEDPOLYGONALFACE((101,137,136));
#702=IFCINDEXEDPOLYGONALFACE((136,137,138));
#703=IFCINDEXEDPOLYGONALFACE((136,138,86));
#704=IFCINDEXEDPOLYGONALFACE((86,138,85));
#705=IFCINDEXEDPOLYGONALFACE((100,10,81));
#706=IFCINDEXEDPOLYGONALFACE((100,81,137));
#707=IFCINDEXEDPOLYGONALFACE((137,81,80));
#708=IFCINDEXEDPOLYGONALFACE((137,80,138));
#709=IFCINDEXEDPOLYGONALFACE((138,80,79));
#710=IFCINDEXEDPOLYGONALFACE((138,79,85));
#711=IFCINDEXEDPOLYGONALFACE((85,79,7));
#712=IFCINDEXEDPOLYGONALFACE((10,96,81));
#713=IFCINDEXEDPOLYGONALFACE((96,95,139));
#714=IFCINDEXEDPOLYGONALFACE((96,139,81));
#715=IFCINDEXEDPOLYGONALFACE((81,139,80));
#716=IFCINDEXEDPOLYGONALFACE((95,94,140));
#717=IFCINDEXEDPOLYGONALFACE((95,140,139));
#718=IFCINDEXEDPOLYGONALFACE((139,140,141));
#719=IFCINDEXEDPOLYGONALFACE((139,141,80));
#720=IFCINDEXEDPOLYGONALFACE((80,141,79));
#721=IFCINDEXEDPOLYGONALFACE((94,9,78));
#722=IFCINDEXEDPOLYGONALFACE((94,78,140));
#723=IFCINDEXEDPOLYGONALFACE((140,78,77));
#724=IFCINDEXEDPOLYGONALFACE((140,77,141));
#725=IFCINDEXEDPOLYGONALFACE((141,77,76));
#726=IFCINDEXEDPOLYGONALFACE((141,76,79));
#727=IFCINDEXEDPOLYGONALFACE((79,76,7));
#728=IFCINDEXEDPOLYGONALFACE((9,97,78));
#729=IFCINDEXEDPOLYGONALFACE((97,98,142));
#730=IFCINDEXEDPOLYGONALFACE((97,142,78));
#731=IFCINDEXEDPOLYGONALFACE((78,142,77));
#732=IFCINDEXEDPOLYGONALFACE((98,99,143));
#733=IFCINDEXEDPOLYGONALFACE((98,143,142));
#734=IFCINDEXEDPOLYGONALFACE((142,143,144));
#735=IFCINDEXEDPOLYGONALFACE((142,144,77));
#736=IFCINDEXEDPOLYGONALFACE((77,144,76));
#737=IFCINDEXEDPOLYGONALFACE((99,11,84));
#738=IFCINDEXEDPOLYGONALFACE((99,84,143));
#739=IFCINDEXEDPOLYGONALFACE((143,84,83));
#740=IFCINDEXEDPOLYGONALFACE((143,83,144));
#741=IFCINDEXEDPOLYGONALFACE((144,83,82));
#742=IFCINDEXEDPOLYGONALFACE((144,82,76));
#743=IFCINDEXEDPOLYGONALFACE((76,82,7));
#744=IFCINDEXEDPOLYGONALFACE((11,90,84));
#745=IFCINDEXEDPOLYGONALFACE((90,89,145));
#746=IFCINDEXEDPOLYGONALFACE((90,145,84));
#747=IFCINDEXEDPOLYGONALFACE((84,145,83));
#748=IFCINDEXEDPOLYGONALFACE((89,88,146));
#749=IFCINDEXEDPOLYGONALFACE((89,146,145));
#750=IFCINDEXEDPOLYGONALFACE((145,146,147));
#751=IFCINDEXEDPOLYGONALFACE((145,147,83));
#752=IFCINDEXEDPOLYGONALFACE((83,147,82));
#753=IFCINDEXEDPOLYGONALFACE((88,8,75));
#754=IFCINDEXEDPOLYGONALFACE((88,75,146));
#755=IFCINDEXEDPOLYGONALFACE((146,75,74));
#756=IFCINDEXEDPOLYGONALFACE((146,74,147));
#757=IFCINDEXEDPOLYGONALFACE((147,74,73));
#758=IFCINDEXEDPOLYGONALFACE((147,73,82));
#759=IFCINDEXEDPOLYGONALFACE((82,73,7));
#760=IFCINDEXEDPOLYGONALFACE((3,49,46));
#761=IFCINDEXEDPOLYGONALFACE((49,50,148));
#762=IFCINDEXEDPOLYGONALFACE((49,148,46));
#763=IFCINDEXEDPOLYGONALFACE((46,148,47));
#764=IFCINDEXEDPOLYGONALFACE((50,51,149));
#765=IFCINDEXEDPOLYGONALFACE((50,149,148));
#766=IFCINDEXEDPOLYGONALFACE((148,149,150));
#767=IFCINDEXEDPOLYGONALFACE((148,150,47));
#768=IFCINDEXEDPOLYGONALFACE((47,150,48));
#769=IFCINDEXEDPOLYGONALFACE((51,12,93));
#770=IFCINDEXEDPOLYGONALFACE((51,93,149));
#771=IFCINDEXEDPOLYGONALFACE((149,93,92));
#772=IFCINDEXEDPOLYGONALFACE((149,92,150));
#773=IFCINDEXEDPOLYGONALFACE((150,92,91));
#774=IFCINDEXEDPOLYGONALFACE((150,91,48));
#775=IFCINDEXEDPOLYGONALFACE((48,91,8));
#776=IFCINDEXEDPOLYGONALFACE((5,61,64));
#777=IFCINDEXEDPOLYGONALFACE((61,62,151));
#778=IFCINDEXEDPOLYGONALFACE((61,151,64));
#779=IFCINDEXEDPOLYGONALFACE((64,151,65));
#780=IFCINDEXEDPOLYGONALFACE((62,63,152));
#781=IFCINDEXEDPOLYGONALFACE((62,152,151));
#782=IFCINDEXEDPOLYGONALFACE((151,152,153));
#783=IFCINDEXEDPOLYGONALFACE((151,153,65));
#784=IFCINDEXEDPOLYGONALFACE((65,153,66));
#785=IFCINDEXEDPOLYGONALFACE((63,10,100));
#786=IFCINDEXEDPOLYGONALFACE((63,100,152));
#787=IFCINDEXEDPOLYGONALFACE((152,100,101));
#788=IFCINDEXEDPOLYGONALFACE((152,101,153));
#789=IFCINDEXEDPOLYGONALFACE((153,101,102));
#790=IFCINDEXEDPOLYGONALFACE((153,102,66));
#791=IFCINDEXEDPOLYGONALFACE((66,102,12));
#792=IFCINDEXEDPOLYGONALFACE((2,34,37));
#793=IFCINDEXEDPOLYGONALFACE((34,35,154));
#794=IFCINDEXEDPOLYGONALFACE((34,154,37));
#795=IFCINDEXEDPOLYGONALFACE((37,154,38));
#796=IFCINDEXEDPOLYGONALFACE((35,36,155));
#797=IFCINDEXEDPOLYGONALFACE((35,155,154));
#798=IFCINDEXEDPOLYGONALFACE((154,155,156));
#799=IFCINDEXEDPOLYGONALFACE((154,156,38));
#800=IFCINDEXEDPOLYGONALFACE((38,156,39));
#801=IFCINDEXEDPOLYGONALFACE((36,9,94));
#802=IFCINDEXEDPOLYGONALFACE((36,94,155));
#803=IFCINDEXEDPOLYGONALFACE((155,94,95));
#804=IFCINDEXEDPOLYGONALFACE((155,95,156));
#805=IFCINDEXEDPOLYGONALFACE((156,95,96));
#806=IFCINDEXEDPOLYGONALFACE((156,96,39));
#807=IFCINDEXEDPOLYGONALFACE((39,96,10));
#808=IFCINDEXEDPOLYGONALFACE((6,70,67));
#809=IFCINDEXEDPOLYGONALFACE((70,71,157));
#810=IFCINDEXEDPOLYGONALFACE((70,157,67));
#811=IFCINDEXEDPOLYGONALFACE((67,157,68));
#812=IFCINDEXEDPOLYGONALFACE((71,72,158));
#813=IFCINDEXEDPOLYGONALFACE((71,158,157));
#814=IFCINDEXEDPOLYGONALFACE((157,158,159));
#815=IFCINDEXEDPOLYGONALFACE((157,159,68));
#816=IFCINDEXEDPOLYGONALFACE((68,159,69));
#817=IFCINDEXEDPOLYGONALFACE((72,11,99));
#818=IFCINDEXEDPOLYGONALFACE((72,99,158));
#819=IFCINDEXEDPOLYGONALFACE((158,99,98));
#820=IFCINDEXEDPOLYGONALFACE((158,98,159));
#821=IFCINDEXEDPOLYGONALFACE((159,98,97));
#822=IFCINDEXEDPOLYGONALFACE((159,97,69));
#823=IFCINDEXEDPOLYGONALFACE((69,97,9));
#824=IFCINDEXEDPOLYGONALFACE((4,55,58));
#825=IFCINDEXEDPOLYGONALFACE((55,56,160));
#826=IFCINDEXEDPOLYGONALFACE((55,160,58));
#827=IFCINDEXEDPOLYGONALFACE((58,160,59));
#828=IFCINDEXEDPOLYGONALFACE((56,57,161));
#829=IFCINDEXEDPOLYGONALFACE((56,161,160));
#830=IFCINDEXEDPOLYGONALFACE((160,161,162));
#831=IFCINDEXEDPOLYGONALFACE((160,162,59));
#832=IFCINDEXEDPOLYGONALFACE((59,162,60));
#833=IFCINDEXEDPOLYGONALFACE((57,8,88));
#834=IFCINDEXEDPOLYGONALFACE((57,88,161));
#835=IFCINDEXEDPOLYGONALFACE((161,88,89));
#836=IFCINDEXEDPOLYGONALFACE((161,89,162));
#837=IFCINDEXEDPOLYGONALFACE((162,89,90));
#838=IFCINDEXEDPOLYGONALFACE((162,90,60));
#839=IFCINDEXEDPOLYGONALFACE((60,90,11));
#840=IFCPOLYGONALFACESET(#519,$,(#520,#521,#522,#523,#524,#525,#526,#527,#528,#529,#530,#531,#532,#533,#534,#535,#536,#537,#538,#539,#540,#541,#542,#543,#544,#545,#546,#547,#548,#549,#550,#551,#552,#553,#554,#555,#556,#557,#558,#559,#560,#561,#562,#563,#564,#565,#566,#567,#568,#569,#570,#571,#572,#573,#574,#575,#576,#577,#578,#579,#580,#581,#582,#583,#584,#585,#586,#587,#588,#589,#590,#591,#592,#593,#594,#595,#596,#597,#598,#599,#600,#601,#602,#603,#604,#605,#606,#607,#608,#609,#610,#611,#612,#613,#614,#615,#616,#617,#618,#619,#620,#621,#622,#623,#624,#625,#626,#627,#628,#629,#630,#631,#632,#633,#634,#635,#636,#637,#638,#639,#640,#641,#642,#643,#644,#645,#646,#647,#648,#649,#650,#651,#652,#653,#654,#655,#656,#657,#658,#659,#660,#661,#662,#663,#664,#665,#666,#667,#668,#669,#670,#671,#672,#673,#674,#675,#676,#677,#678,#679,#680,#681,#682,#683,#684,#685,#686,#687,#688,#689,#690,#691,#692,#693,#694,#695,#696,#697,#698,#699,#700,#701,#702,#703,#704,#705,#706,#707,#708,#709,#710,#711,#712,#713,#714,#715,#716,#717,#718,#719,#720,#721,#722,#723,#724,#725,#726,#727,#728,#729,#730,#731,#732,#733,#734,#735,#736,#737,#738,#739,#740,#741,#742,#743,#744,#745,#746,#747,#748,#749,#750,#751,#752,#753,#754,#755,#756,#757,#758,#759,#760,#761,#762,#763,#764,#765,#766,#767,#768,#769,#770,#771,#772,#773,#774,#775,#776,#777,#778,#779,#780,#781,#782,#783,#784,#785,#786,#787,#788,#789,#790,#791,#792,#793,#794,#795,#796,#797,#798,#799,#800,#801,#802,#803,#804,#805,#806,#807,#808,#809,#810,#811,#812,#813,#814,#815,#816,#817,#818,#819,#820,#821,#822,#823,#824,#825,#826,#827,#828,#829,#830,#831,#832,#833,#834,#835,#836,#837,#838,#839),$);
#841=IFCSHAPEREPRESENTATION(#18,'Body','Tessellation',(#840));
#842=IFCPRODUCTDEFINITIONSHAPE($,$,(#841));
#843=IFCSURFACESTYLE('Style',.BOTH.,(#844));
#844=IFCSURFACESTYLESHADING(#845,0.);
#845=IFCCOLOURRGB($,0.22,0.55,0.26);
#846=IFCSTYLEDITEM(#840,(#843),'Style');
#852=IFCRELAGGREGATES('2VOAZxOTX1YwtxJIEzkfYQ',$,$,$,#486,(#487,#518));
#853=IFCCARTESIANPOINT((558502.19,5927596.83,0.));
#854=IFCDIRECTION((0.,0.,1.));
#855=IFCDIRECTION((1.,0.,0.));
#856=IFCAXIS2PLACEMENT3D(#853,#854,#855);
#857=IFCLOCALPLACEMENT($,#856);
#858=IFCCARTESIANPOINT((558502.19,5927596.83,17.));
#859=IFCDIRECTION((0.,0.,1.));
#860=IFCDIRECTION((1.,0.,0.));
#861=IFCAXIS2PLACEMENT3D(#858,#859,#860);
#862=IFCLOCALPLACEMENT($,#861);
ENDSEC;
END-ISO-10303-21;
