ISO-10303-21;
HEADER;
FILE_DESCRIPTION(('ViewDefinition [CoordinationView]'),'2;1');
FILE_NAME('','2025-07-05T01:17:48',(''),(''),'IfcOpenShell 0.8.0','IfcOpenShell 0.8.0','');
FILE_SCHEMA(('IFC4'));
ENDSEC;
DATA;
#1=IFCPROJECT('3vXSdaKmP6eunpgLHIjOsF',$,'MyProject',$,$,$,$,(#13,#17),#8);
#2=IFCSITE('0iqOV76l13HBaC0RMu2AoO',$,'MySite',$,$,$,$,$,$,$,$,$,$,$);
#3=IFCRELAGGREGATES('0p5DFOSiP0K9M7KtxqWlFe',$,$,$,#1,(#2));
#4=IFCBUILDING('189HyIaOD9Iw1q9F3A7c$$',$,'MyBuilding',$,$,$,$,$,$,$,$,$);
#5=IFCRELAGGREGATES('0K8lmgdffC$eD9TLgqQeJG',$,$,$,#2,(#4));
#6=IFCSIUNIT(*,.LENGTHUNIT.,$,.METRE.);
#7=IFCSIUNIT(*,.AREAUNIT.,$,.SQUARE_METRE.);
#8=IFCUNITASSIGNMENT((#7,#6));
#9=IFCCARTESIANPOINT((0.,0.,0.));
#10=IFCDIRECTION((0.,0.,1.));
#11=IFCDIRECTION((1.,0.,0.));
#12=IFCAXIS2PLACEMENT3D(#9,#10,#11);
#13=IFCGEOMETRICREPRESENTATIONCONTEXT($,'Model',3,1.E-05,#12,$);
#14=IFCCARTESIANPOINT((0.,0.));
#15=IFCDIRECTION((1.,0.));
#16=IFCAXIS2PLACEMENT2D(#14,#15);
#17=IFCGEOMETRICREPRESENTATIONCONTEXT($,'Plan',2,1.E-05,#16,$);
#18=IFCGEOMETRICREPRESENTATIONSUBCONTEXT('Body','Model',*,*,*,*,#13,$,.MODEL_VIEW.,$);
#19=IFCBUILDINGSTOREY('3VLxkf5GTANBlYGunBmgwF',$,'Default Storey',$,$,$,$,$,$,$);
#20=IFCBUILDINGELEMENT('2GvOmqaerCNApVtrVyrfVe',$,'Baum_0001',$,$,$,$,$);
#21=IFCBUILDINGELEMENTPROXY('0YhHvb6PD44PtD9UQJw2qX',$,'Stamm_0001',$,$,#91,#42,$,$);
#22=IFCCARTESIANPOINTLIST3D(((0.159154943091895,0.,0.),(0.112539539519638,0.112539539519638,0.),(9.74542958129844E-18,0.159154943091895,0.),(-0.112539539519638,0.112539539519638,0.),(-0.159154943091895,1.94908591625969E-17,0.),(-0.112539539519638,-0.112539539519638,0.),(-2.92362887438953E-17,-0.159154943091895,0.),(0.112539539519638,-0.112539539519638,0.),(0.159154943091895,0.,7.83),(0.112539539519638,0.112539539519638,7.83),(9.74542958129844E-18,0.159154943091895,7.83),(-0.112539539519638,0.112539539519638,7.83),(-0.159154943091895,1.94908591625969E-17,7.83),(-0.112539539519638,-0.112539539519638,7.83),(-2.92362887438953E-17,-0.159154943091895,7.83),(0.112539539519638,-0.112539539519638,7.83)));
#23=IFCINDEXEDPOLYGONALFACE((1,2,9));
#24=IFCINDEXEDPOLYGONALFACE((2,10,9));
#25=IFCINDEXEDPOLYGONALFACE((2,3,10));
#26=IFCINDEXEDPOLYGONALFACE((3,11,10));
#27=IFCINDEXEDPOLYGONALFACE((3,4,11));
#28=IFCINDEXEDPOLYGONALFACE((4,12,11));
#29=IFCINDEXEDPOLYGONALFACE((4,5,12));
#30=IFCINDEXEDPOLYGONALFACE((5,13,12));
#31=IFCINDEXEDPOLYGONALFACE((5,6,13));
#32=IFCINDEXEDPOLYGONALFACE((6,14,13));
#33=IFCINDEXEDPOLYGONALFACE((6,7,14));
#34=IFCINDEXEDPOLYGONALFACE((7,15,14));
#35=IFCINDEXEDPOLYGONALFACE((7,8,15));
#36=IFCINDEXEDPOLYGONALFACE((8,16,15));
#37=IFCINDEXEDPOLYGONALFACE((8,1,16));
#38=IFCINDEXEDPOLYGONALFACE((1,9,16));
#39=IFCINDEXEDPOLYGONALFACE((8,7,6,5,4,3,2,1));
#40=IFCPOLYGONALFACESET(#22,$,(#23,#24,#25,#26,#27,#28,#29,#30,#31,#32,#33,#34,#35,#36,#37,#38,#39),$);
#41=IFCSHAPEREPRESENTATION(#18,'Body','Tessellation',(#40));
#42=IFCPRODUCTDEFINITIONSHAPE($,$,(#41));
#43=IFCSURFACESTYLE('Style',.BOTH.,(#44));
#44=IFCSURFACESTYLESHADING(#45,0.);
#45=IFCCOLOURRGB($,0.49,0.35,0.26);
#46=IFCSTYLEDITEM(#40,(#43),'Style');
#52=IFCBUILDINGELEMENTPROXY('2Kl7p1Aan35RUC$8ymokaY',$,'Krone_0001',$,$,#96,#76,$,$);
#53=IFCCARTESIANPOINTLIST3D(((0.,1.52462022514549,2.46688734422092),(0.,-1.52462022514549,2.46688734422092),(1.52462022514549,2.46688734422092,0.),(-1.52462022514549,2.46688734422092,0.),(2.46688734422092,0.,1.52462022514549),(-2.46688734422092,0.,1.52462022514549),(-0.,-1.52462022514549,-2.46688734422092),(-0.,1.52462022514549,-2.46688734422092),(-1.52462022514549,-2.46688734422092,-0.),(1.52462022514549,-2.46688734422092,-0.),(-2.46688734422092,-0.,-1.52462022514549),(2.46688734422092,-0.,-1.52462022514549)));
#54=IFCINDEXEDPOLYGONALFACE((1,6,2));
#55=IFCINDEXEDPOLYGONALFACE((1,4,6));
#56=IFCINDEXEDPOLYGONALFACE((1,3,4));
#57=IFCINDEXEDPOLYGONALFACE((1,5,3));
#58=IFCINDEXEDPOLYGONALFACE((1,2,5));
#59=IFCINDEXEDPOLYGONALFACE((2,6,9));
#60=IFCINDEXEDPOLYGONALFACE((6,4,11));
#61=IFCINDEXEDPOLYGONALFACE((4,3,8));
#62=IFCINDEXEDPOLYGONALFACE((3,5,12));
#63=IFCINDEXEDPOLYGONALFACE((5,2,10));
#64=IFCINDEXEDPOLYGONALFACE((8,12,7));
#65=IFCINDEXEDPOLYGONALFACE((12,10,7));
#66=IFCINDEXEDPOLYGONALFACE((10,9,7));
#67=IFCINDEXEDPOLYGONALFACE((9,11,7));
#68=IFCINDEXEDPOLYGONALFACE((11,8,7));
#69=IFCINDEXEDPOLYGONALFACE((3,12,8));
#70=IFCINDEXEDPOLYGONALFACE((5,10,12));
#71=IFCINDEXEDPOLYGONALFACE((2,9,10));
#72=IFCINDEXEDPOLYGONALFACE((6,11,9));
#73=IFCINDEXEDPOLYGONALFACE((4,8,11));
#74=IFCPOLYGONALFACESET(#53,$,(#54,#55,#56,#57,#58,#59,#60,#61,#62,#63,#64,#65,#66,#67,#68,#69,#70,#71,#72,#73),$);
#75=IFCSHAPEREPRESENTATION(#18,'Body','Tessellation',(#74));
#76=IFCPRODUCTDEFINITIONSHAPE($,$,(#75));
#77=IFCSURFACESTYLE('Style',.BOTH.,(#78));
#78=IFCSURFACESTYLESHADING(#79,0.);
#79=IFCCOLOURRGB($,0.22,0.55,0.26);
#80=IFCSTYLEDITEM(#74,(#77),'Style');
#86=IFCRELAGGREGATES('0KaEs0IAH2CgBSY6T4dzRU',$,$,$,#20,(#21,#52));
#87=IFCCARTESIANPOINT((558553.52,5927499.96,17.));
#88=IFCDIRECTION((0.,0.,1.));
#89=IFCDIRECTION((1.,0.,0.));
#90=IFCAXIS2PLACEMENT3D(#87,#88,#89);
#91=IFCLOCALPLACEMENT($,#90);
#92=IFCCARTESIANPOINT((558553.52,5927499.96,24.83));
#93=IFCDIRECTION((0.,0.,1.));
#94=IFCDIRECTION((1.,0.,0.));
#95=IFCAXIS2PLACEMENT3D(#92,#93,#94);
#96=IFCLOCALPLACEMENT($,#95);
#97=IFCBUILDINGELEMENT('3SNXgdHgjEhQ0WoMwCBiNS',$,'Baum_0002',$,$,$,$,$);
#98=IFCBUILDINGELEMENTPROXY('3PbdpR7vHBkfUmTcCs5YnL',$,'Stamm_0002',$,$,#168,#119,$,$);
#99=IFCCARTESIANPOINTLIST3D(((0.238732414637843,0.,0.),(0.168809309279457,0.168809309279457,0.),(1.46181443719477E-17,0.238732414637843,0.),(-0.168809309279457,0.168809309279457,0.),(-0.238732414637843,2.92362887438953E-17,0.),(-0.168809309279457,-0.168809309279457,0.),(-4.3854433115843E-17,-0.238732414637843,0.),(0.168809309279457,-0.168809309279457,0.),(0.238732414637843,0.,8.1),(0.168809309279457,0.168809309279457,8.1),(1.46181443719477E-17,0.238732414637843,8.1),(-0.168809309279457,0.168809309279457,8.1),(-0.238732414637843,2.92362887438953E-17,8.1),(-0.168809309279457,-0.168809309279457,8.1),(-4.3854433115843E-17,-0.238732414637843,8.1),(0.168809309279457,-0.168809309279457,8.1)));
#100=IFCINDEXEDPOLYGONALFACE((1,2,9));
#101=IFCINDEXEDPOLYGONALFACE((2,10,9));
#102=IFCINDEXEDPOLYGONALFACE((2,3,10));
#103=IFCINDEXEDPOLYGONALFACE((3,11,10));
#104=IFCINDEXEDPOLYGONALFACE((3,4,11));
#105=IFCINDEXEDPOLYGONALFACE((4,12,11));
#106=IFCINDEXEDPOLYGONALFACE((4,5,12));
#107=IFCINDEXEDPOLYGONALFACE((5,13,12));
#108=IFCINDEXEDPOLYGONALFACE((5,6,13));
#109=IFCINDEXEDPOLYGONALFACE((6,14,13));
#110=IFCINDEXEDPOLYGONALFACE((6,7,14));
#111=IFCINDEXEDPOLYGONALFACE((7,15,14));
#112=IFCINDEXEDPOLYGONALFACE((7,8,15));
#113=IFCINDEXEDPOLYGONALFACE((8,16,15));
#114=IFCINDEXEDPOLYGONALFACE((8,1,16));
#115=IFCINDEXEDPOLYGONALFACE((1,9,16));
#116=IFCINDEXEDPOLYGONALFACE((8,7,6,5,4,3,2,1));
#117=IFCPOLYGONALFACESET(#99,$,(#100,#101,#102,#103,#104,#105,#106,#107,#108,#109,#110,#111,#112,#113,#114,#115,#116),$);
#118=IFCSHAPEREPRESENTATION(#18,'Body','Tessellation',(#117));
#119=IFCPRODUCTDEFINITIONSHAPE($,$,(#118));
#120=IFCSURFACESTYLE('Style',.BOTH.,(#121));
#121=IFCSURFACESTYLESHADING(#122,0.);
#122=IFCCOLOURRGB($,0.49,0.35,0.26);
#123=IFCSTYLEDITEM(#117,(#120),'Style');
#129=IFCBUILDINGELEMENTPROXY('25dffIEzTEU9Nc31YofE62',$,'Krone_0002',$,$,#173,#153,$,$);
#130=IFCCARTESIANPOINTLIST3D(((0.,1.5771933363574,2.55195242505612),(0.,-1.5771933363574,2.55195242505612),(1.5771933363574,2.55195242505612,0.),(-1.5771933363574,2.55195242505612,0.),(2.55195242505612,0.,1.5771933363574),(-2.55195242505612,0.,1.5771933363574),(-0.,-1.5771933363574,-2.55195242505612),(-0.,1.5771933363574,-2.55195242505612),(-1.5771933363574,-2.55195242505612,-0.),(1.5771933363574,-2.55195242505612,-0.),(-2.55195242505612,-0.,-1.5771933363574),(2.55195242505612,-0.,-1.5771933363574)));
#131=IFCINDEXEDPOLYGONALFACE((1,6,2));
#132=IFCINDEXEDPOLYGONALFACE((1,4,6));
#133=IFCINDEXEDPOLYGONALFACE((1,3,4));
#134=IFCINDEXEDPOLYGONALFACE((1,5,3));
#135=IFCINDEXEDPOLYGONALFACE((1,2,5));
#136=IFCINDEXEDPOLYGONALFACE((2,6,9));
#137=IFCINDEXEDPOLYGONALFACE((6,4,11));
#138=IFCINDEXEDPOLYGONALFACE((4,3,8));
#139=IFCINDEXEDPOLYGONALFACE((3,5,12));
#140=IFCINDEXEDPOLYGONALFACE((5,2,10));
#141=IFCINDEXEDPOLYGONALFACE((8,12,7));
#142=IFCINDEXEDPOLYGONALFACE((12,10,7));
#143=IFCINDEXEDPOLYGONALFACE((10,9,7));
#144=IFCINDEXEDPOLYGONALFACE((9,11,7));
#145=IFCINDEXEDPOLYGONALFACE((11,8,7));
#146=IFCINDEXEDPOLYGONALFACE((3,12,8));
#147=IFCINDEXEDPOLYGONALFACE((5,10,12));
#148=IFCINDEXEDPOLYGONALFACE((2,9,10));
#149=IFCINDEXEDPOLYGONALFACE((6,11,9));
#150=IFCINDEXEDPOLYGONALFACE((4,8,11));
#151=IFCPOLYGONALFACESET(#130,$,(#131,#132,#133,#134,#135,#136,#137,#138,#139,#140,#141,#142,#143,#144,#145,#146,#147,#148,#149,#150),$);
#152=IFCSHAPEREPRESENTATION(#18,'Body','Tessellation',(#151));
#153=IFCPRODUCTDEFINITIONSHAPE($,$,(#152));
#154=IFCSURFACESTYLE('Style',.BOTH.,(#155));
#155=IFCSURFACESTYLESHADING(#156,0.);
#156=IFCCOLOURRGB($,0.22,0.55,0.26);
#157=IFCSTYLEDITEM(#151,(#154),'Style');
#163=IFCRELAGGREGATES('1BoPG$ygv68Q2cjF_0w8UI',$,$,$,#97,(#98,#129));
#164=IFCCARTESIANPOINT((558553.52,5927509.96,17.));
#165=IFCDIRECTION((0.,0.,1.));
#166=IFCDIRECTION((1.,0.,0.));
#167=IFCAXIS2PLACEMENT3D(#164,#165,#166);
#168=IFCLOCALPLACEMENT($,#167);
#169=IFCCARTESIANPOINT((558553.52,5927509.96,25.1));
#170=IFCDIRECTION((0.,0.,1.));
#171=IFCDIRECTION((1.,0.,0.));
#172=IFCAXIS2PLACEMENT3D(#169,#170,#171);
#173=IFCLOCALPLACEMENT($,#172);
#174=IFCBUILDINGELEMENT('0HBiHmkwT21fBUjIztY1Ze',$,'Baum_0003',$,$,$,$,$);
#175=IFCBUILDINGELEMENTPROXY('2kDUaaHTnFLxZn0JuMF24h',$,'Stamm_0003',$,$,#250,#196,$,$);
#176=IFCCARTESIANPOINTLIST3D(((0.127323954473516,0.,0.),(0.0900316316157106,0.0900316316157106,0.),(7.79634366503875E-18,0.127323954473516,0.),(-0.0900316316157106,0.0900316316157106,0.),(-0.127323954473516,1.55926873300775E-17,0.),(-0.0900316316157106,-0.0900316316157106,0.),(-2.33890309951163E-17,-0.127323954473516,0.),(0.0900316316157106,-0.0900316316157106,0.),(0.127323954473516,0.,6.075),(0.0900316316157106,0.0900316316157106,6.075),(7.79634366503875E-18,0.127323954473516,6.075),(-0.0900316316157106,0.0900316316157106,6.075),(-0.127323954473516,1.55926873300775E-17,6.075),(-0.0900316316157106,-0.0900316316157106,6.075),(-2.33890309951163E-17,-0.127323954473516,6.075),(0.0900316316157106,-0.0900316316157106,6.075)));
#177=IFCINDEXEDPOLYGONALFACE((1,2,9));
#178=IFCINDEXEDPOLYGONALFACE((2,10,9));
#179=IFCINDEXEDPOLYGONALFACE((2,3,10));
#180=IFCINDEXEDPOLYGONALFACE((3,11,10));
#181=IFCINDEXEDPOLYGONALFACE((3,4,11));
#182=IFCINDEXEDPOLYGONALFACE((4,12,11));
#183=IFCINDEXEDPOLYGONALFACE((4,5,12));
#184=IFCINDEXEDPOLYGONALFACE((5,13,12));
#185=IFCINDEXEDPOLYGONALFACE((5,6,13));
#186=IFCINDEXEDPOLYGONALFACE((6,14,13));
#187=IFCINDEXEDPOLYGONALFACE((6,7,14));
#188=IFCINDEXEDPOLYGONALFACE((7,15,14));
#189=IFCINDEXEDPOLYGONALFACE((7,8,15));
#190=IFCINDEXEDPOLYGONALFACE((8,16,15));
#191=IFCINDEXEDPOLYGONALFACE((8,1,16));
#192=IFCINDEXEDPOLYGONALFACE((1,9,16));
#193=IFCINDEXEDPOLYGONALFACE((8,7,6,5,4,3,2,1));
#194=IFCPOLYGONALFACESET(#176,$,(#177,#178,#179,#180,#181,#182,#183,#184,#185,#186,#187,#188,#189,#190,#191,#192,#193),$);
#195=IFCSHAPEREPRESENTATION(#18,'Body','Tessellation',(#194));
#196=IFCPRODUCTDEFINITIONSHAPE($,$,(#195));
#197=IFCSURFACESTYLE('Style',.BOTH.,(#198));
#198=IFCSURFACESTYLESHADING(#199,0.);
#199=IFCCOLOURRGB($,0.49,0.35,0.26);
#200=IFCSTYLEDITEM(#194,(#197),'Style');
#206=IFCBUILDINGELEMENTPROXY('1i6pOFcCX7WOPRosn1Lmzm',$,'Krone_0003',$,$,#245,#230,$,$);
#207=IFCCARTESIANPOINTLIST3D(((0.,1.18289500226805,1.91396431879209),(0.,-1.18289500226805,1.91396431879209),(1.18289500226805,1.91396431879209,0.),(-1.18289500226805,1.91396431879209,0.),(1.91396431879209,0.,1.18289500226805),(-1.91396431879209,0.,1.18289500226805),(-0.,-1.18289500226805,-1.91396431879209),(-0.,1.18289500226805,-1.91396431879209),(-1.18289500226805,-1.91396431879209,-0.),(1.18289500226805,-1.91396431879209,-0.),(-1.91396431879209,-0.,-1.18289500226805),(1.91396431879209,-0.,-1.18289500226805)));
#208=IFCINDEXEDPOLYGONALFACE((1,6,2));
#209=IFCINDEXEDPOLYGONALFACE((1,4,6));
#210=IFCINDEXEDPOLYGONALFACE((1,3,4));
#211=IFCINDEXEDPOLYGONALFACE((1,5,3));
#212=IFCINDEXEDPOLYGONALFACE((1,2,5));
#213=IFCINDEXEDPOLYGONALFACE((2,6,9));
#214=IFCINDEXEDPOLYGONALFACE((6,4,11));
#215=IFCINDEXEDPOLYGONALFACE((4,3,8));
#216=IFCINDEXEDPOLYGONALFACE((3,5,12));
#217=IFCINDEXEDPOLYGONALFACE((5,2,10));
#218=IFCINDEXEDPOLYGONALFACE((8,12,7));
#219=IFCINDEXEDPOLYGONALFACE((12,10,7));
#220=IFCINDEXEDPOLYGONALFACE((10,9,7));
#221=IFCINDEXEDPOLYGONALFACE((9,11,7));
#222=IFCINDEXEDPOLYGONALFACE((11,8,7));
#223=IFCINDEXEDPOLYGONALFACE((3,12,8));
#224=IFCINDEXEDPOLYGONALFACE((5,10,12));
#225=IFCINDEXEDPOLYGONALFACE((2,9,10));
#226=IFCINDEXEDPOLYGONALFACE((6,11,9));
#227=IFCINDEXEDPOLYGONALFACE((4,8,11));
#228=IFCPOLYGONALFACESET(#207,$,(#208,#209,#210,#211,#212,#213,#214,#215,#216,#217,#218,#219,#220,#221,#222,#223,#224,#225,#226,#227),$);
#229=IFCSHAPEREPRESENTATION(#18,'Body','Tessellation',(#228));
#230=IFCPRODUCTDEFINITIONSHAPE($,$,(#229));
#231=IFCSURFACESTYLE('Style',.BOTH.,(#232));
#232=IFCSURFACESTYLESHADING(#233,0.);
#233=IFCCOLOURRGB($,0.22,0.55,0.26);
#234=IFCSTYLEDITEM(#228,(#231),'Style');
#240=IFCRELAGGREGATES('0nfRZsvNnFRgXK27Qu30MZ',$,$,$,#174,(#206,#175));
#241=IFCCARTESIANPOINT((558553.52,5927519.96,23.075));
#242=IFCDIRECTION((0.,0.,1.));
#243=IFCDIRECTION((1.,0.,0.));
#244=IFCAXIS2PLACEMENT3D(#241,#242,#243);
#245=IFCLOCALPLACEMENT($,#244);
#246=IFCCARTESIANPOINT((558553.52,5927519.96,17.));
#247=IFCDIRECTION((0.,0.,1.));
#248=IFCDIRECTION((1.,0.,0.));
#249=IFCAXIS2PLACEMENT3D(#246,#247,#248);
#250=IFCLOCALPLACEMENT($,#249);
#251=IFCBUILDINGELEMENT('0I3HGSILbAYxvWIvZUvYV4',$,'Baum_0004',$,$,$,$,$);
#252=IFCBUILDINGELEMENTPROXY('3baU2JQVj5s9kKrOdPepnU',$,'Stamm_0004',$,$,#322,#273,$,$);
#253=IFCCARTESIANPOINTLIST3D(((0.0716197243913529,0.,0.),(0.0506427927838372,0.0506427927838372,0.),(4.3854433115843E-18,0.0716197243913529,0.),(-0.0506427927838372,0.0506427927838372,0.),(-0.0716197243913529,8.7708866231686E-18,0.),(-0.0506427927838372,-0.0506427927838372,0.),(-1.31563299347529E-17,-0.0716197243913529,0.),(0.0506427927838372,-0.0506427927838372,0.),(0.0716197243913529,0.,3.5),(0.0506427927838372,0.0506427927838372,3.5),(4.3854433115843E-18,0.0716197243913529,3.5),(-0.0506427927838372,0.0506427927838372,3.5),(-0.0716197243913529,8.7708866231686E-18,3.5),(-0.0506427927838372,-0.0506427927838372,3.5),(-1.31563299347529E-17,-0.0716197243913529,3.5),(0.0506427927838372,-0.0506427927838372,3.5)));
#254=IFCINDEXEDPOLYGONALFACE((1,2,9));
#255=IFCINDEXEDPOLYGONALFACE((2,10,9));
#256=IFCINDEXEDPOLYGONALFACE((2,3,10));
#257=IFCINDEXEDPOLYGONALFACE((3,11,10));
#258=IFCINDEXEDPOLYGONALFACE((3,4,11));
#259=IFCINDEXEDPOLYGONALFACE((4,12,11));
#260=IFCINDEXEDPOLYGONALFACE((4,5,12));
#261=IFCINDEXEDPOLYGONALFACE((5,13,12));
#262=IFCINDEXEDPOLYGONALFACE((5,6,13));
#263=IFCINDEXEDPOLYGONALFACE((6,14,13));
#264=IFCINDEXEDPOLYGONALFACE((6,7,14));
#265=IFCINDEXEDPOLYGONALFACE((7,15,14));
#266=IFCINDEXEDPOLYGONALFACE((7,8,15));
#267=IFCINDEXEDPOLYGONALFACE((8,16,15));
#268=IFCINDEXEDPOLYGONALFACE((8,1,16));
#269=IFCINDEXEDPOLYGONALFACE((1,9,16));
#270=IFCINDEXEDPOLYGONALFACE((8,7,6,5,4,3,2,1));
#271=IFCPOLYGONALFACESET(#253,$,(#254,#255,#256,#257,#258,#259,#260,#261,#262,#263,#264,#265,#266,#267,#268,#269,#270),$);
#272=IFCSHAPEREPRESENTATION(#18,'Body','Tessellation',(#271));
#273=IFCPRODUCTDEFINITIONSHAPE($,$,(#272));
#274=IFCSURFACESTYLE('Style',.BOTH.,(#275));
#275=IFCSURFACESTYLESHADING(#276,0.);
#276=IFCCOLOURRGB($,0.49,0.35,0.26);
#277=IFCSTYLEDITEM(#271,(#274),'Style');
#283=IFCBUILDINGELEMENTPROXY('0mxciopXzFKRyMfkPuwywm',$,'Krone_0004',$,$,#327,#307,$,$);
#284=IFCCARTESIANPOINTLIST3D(((0.,0.525731112119134,0.85065080835204),(0.,-0.525731112119134,0.85065080835204),(0.525731112119134,0.85065080835204,0.),(-0.525731112119134,0.85065080835204,0.),(0.85065080835204,0.,0.525731112119134),(-0.85065080835204,0.,0.525731112119134),(-0.,-0.525731112119134,-0.85065080835204),(-0.,0.525731112119134,-0.85065080835204),(-0.525731112119134,-0.85065080835204,-0.),(0.525731112119134,-0.85065080835204,-0.),(-0.85065080835204,-0.,-0.525731112119134),(0.85065080835204,-0.,-0.525731112119134)));
#285=IFCINDEXEDPOLYGONALFACE((1,6,2));
#286=IFCINDEXEDPOLYGONALFACE((1,4,6));
#287=IFCINDEXEDPOLYGONALFACE((1,3,4));
#288=IFCINDEXEDPOLYGONALFACE((1,5,3));
#289=IFCINDEXEDPOLYGONALFACE((1,2,5));
#290=IFCINDEXEDPOLYGONALFACE((2,6,9));
#291=IFCINDEXEDPOLYGONALFACE((6,4,11));
#292=IFCINDEXEDPOLYGONALFACE((4,3,8));
#293=IFCINDEXEDPOLYGONALFACE((3,5,12));
#294=IFCINDEXEDPOLYGONALFACE((5,2,10));
#295=IFCINDEXEDPOLYGONALFACE((8,12,7));
#296=IFCINDEXEDPOLYGONALFACE((12,10,7));
#297=IFCINDEXEDPOLYGONALFACE((10,9,7));
#298=IFCINDEXEDPOLYGONALFACE((9,11,7));
#299=IFCINDEXEDPOLYGONALFACE((11,8,7));
#300=IFCINDEXEDPOLYGONALFACE((3,12,8));
#301=IFCINDEXEDPOLYGONALFACE((5,10,12));
#302=IFCINDEXEDPOLYGONALFACE((2,9,10));
#303=IFCINDEXEDPOLYGONALFACE((6,11,9));
#304=IFCINDEXEDPOLYGONALFACE((4,8,11));
#305=IFCPOLYGONALFACESET(#284,$,(#285,#286,#287,#288,#289,#290,#291,#292,#293,#294,#295,#296,#297,#298,#299,#300,#301,#302,#303,#304),$);
#306=IFCSHAPEREPRESENTATION(#18,'Body','Tessellation',(#305));
#307=IFCPRODUCTDEFINITIONSHAPE($,$,(#306));
#308=IFCSURFACESTYLE('Style',.BOTH.,(#309));
#309=IFCSURFACESTYLESHADING(#310,0.);
#310=IFCCOLOURRGB($,0.22,0.55,0.26);
#311=IFCSTYLEDITEM(#305,(#308),'Style');
#317=IFCRELAGGREGATES('2ooZHizI9FSPz36B$H6K1W',$,$,$,#251,(#252,#283));
#318=IFCCARTESIANPOINT((558553.52,5927529.96,17.));
#319=IFCDIRECTION((0.,0.,1.));
#320=IFCDIRECTION((1.,0.,0.));
#321=IFCAXIS2PLACEMENT3D(#318,#319,#320);
#322=IFCLOCALPLACEMENT($,#321);
#323=IFCCARTESIANPOINT((558553.52,5927529.96,20.5));
#324=IFCDIRECTION((0.,0.,1.));
#325=IFCDIRECTION((1.,0.,0.));
#326=IFCAXIS2PLACEMENT3D(#323,#324,#325);
#327=IFCLOCALPLACEMENT($,#326);
#328=IFCBUILDINGELEMENT('2Djjd$dTf4dPK9QyrGcmgn',$,'Baum_0005',$,$,$,$,$);
#329=IFCBUILDINGELEMENTPROXY('3o0sMIT$9EtQk_pNV3TVk2',$,'Stamm_0005',$,$,#399,#350,$,$);
#330=IFCCARTESIANPOINTLIST3D(((0.318309886183791,0.,0.),(0.225079079039277,0.225079079039277,0.),(1.94908591625969E-17,0.318309886183791,0.),(-0.225079079039277,0.225079079039277,0.),(-0.318309886183791,3.89817183251938E-17,0.),(-0.225079079039277,-0.225079079039277,0.),(-5.84725774877906E-17,-0.318309886183791,0.),(0.225079079039276,-0.225079079039277,0.),(0.318309886183791,0.,9.45),(0.225079079039277,0.225079079039277,9.45),(1.94908591625969E-17,0.318309886183791,9.45),(-0.225079079039277,0.225079079039277,9.45),(-0.318309886183791,3.89817183251938E-17,9.45),(-0.225079079039277,-0.225079079039277,9.45),(-5.84725774877906E-17,-0.318309886183791,9.45),(0.225079079039276,-0.225079079039277,9.45)));
#331=IFCINDEXEDPOLYGONALFACE((1,2,9));
#332=IFCINDEXEDPOLYGONALFACE((2,10,9));
#333=IFCINDEXEDPOLYGONALFACE((2,3,10));
#334=IFCINDEXEDPOLYGONALFACE((3,11,10));
#335=IFCINDEXEDPOLYGONALFACE((3,4,11));
#336=IFCINDEXEDPOLYGONALFACE((4,12,11));
#337=IFCINDEXEDPOLYGONALFACE((4,5,12));
#338=IFCINDEXEDPOLYGONALFACE((5,13,12));
#339=IFCINDEXEDPOLYGONALFACE((5,6,13));
#340=IFCINDEXEDPOLYGONALFACE((6,14,13));
#341=IFCINDEXEDPOLYGONALFACE((6,7,14));
#342=IFCINDEXEDPOLYGONALFACE((7,15,14));
#343=IFCINDEXEDPOLYGONALFACE((7,8,15));
#344=IFCINDEXEDPOLYGONALFACE((8,16,15));
#345=IFCINDEXEDPOLYGONALFACE((8,1,16));
#346=IFCINDEXEDPOLYGONALFACE((1,9,16));
#347=IFCINDEXEDPOLYGONALFACE((8,7,6,5,4,3,2,1));
#348=IFCPOLYGONALFACESET(#330,$,(#331,#332,#333,#334,#335,#336,#337,#338,#339,#340,#341,#342,#343,#344,#345,#346,#347),$);
#349=IFCSHAPEREPRESENTATION(#18,'Body','Tessellation',(#348));
#350=IFCPRODUCTDEFINITIONSHAPE($,$,(#349));
#351=IFCSURFACESTYLE('Style',.BOTH.,(#352));
#352=IFCSURFACESTYLESHADING(#353,0.);
#353=IFCCOLOURRGB($,0.49,0.35,0.26);
#354=IFCSTYLEDITEM(#348,(#351),'Style');
#360=IFCBUILDINGELEMENTPROXY('3iVRm4iQr3aBfojdrcc3eO',$,'Krone_0005',$,$,#404,#384,$,$);
#361=IFCCARTESIANPOINTLIST3D(((0.,1.84005889241697,2.97727782923214),(0.,-1.84005889241697,2.97727782923214),(1.84005889241697,2.97727782923214,0.),(-1.84005889241697,2.97727782923214,0.),(2.97727782923214,0.,1.84005889241697),(-2.97727782923214,0.,1.84005889241697),(-0.,-1.84005889241697,-2.97727782923214),(-0.,1.84005889241697,-2.97727782923214),(-1.84005889241697,-2.97727782923214,-0.),(1.84005889241697,-2.97727782923214,-0.),(-2.97727782923214,-0.,-1.84005889241697),(2.97727782923214,-0.,-1.84005889241697)));
#362=IFCINDEXEDPOLYGONALFACE((1,6,2));
#363=IFCINDEXEDPOLYGONALFACE((1,4,6));
#364=IFCINDEXEDPOLYGONALFACE((1,3,4));
#365=IFCINDEXEDPOLYGONALFACE((1,5,3));
#366=IFCINDEXEDPOLYGONALFACE((1,2,5));
#367=IFCINDEXEDPOLYGONALFACE((2,6,9));
#368=IFCINDEXEDPOLYGONALFACE((6,4,11));
#369=IFCINDEXEDPOLYGONALFACE((4,3,8));
#370=IFCINDEXEDPOLYGONALFACE((3,5,12));
#371=IFCINDEXEDPOLYGONALFACE((5,2,10));
#372=IFCINDEXEDPOLYGONALFACE((8,12,7));
#373=IFCINDEXEDPOLYGONALFACE((12,10,7));
#374=IFCINDEXEDPOLYGONALFACE((10,9,7));
#375=IFCINDEXEDPOLYGONALFACE((9,11,7));
#376=IFCINDEXEDPOLYGONALFACE((11,8,7));
#377=IFCINDEXEDPOLYGONALFACE((3,12,8));
#378=IFCINDEXEDPOLYGONALFACE((5,10,12));
#379=IFCINDEXEDPOLYGONALFACE((2,9,10));
#380=IFCINDEXEDPOLYGONALFACE((6,11,9));
#381=IFCINDEXEDPOLYGONALFACE((4,8,11));
#382=IFCPOLYGONALFACESET(#361,$,(#362,#363,#364,#365,#366,#367,#368,#369,#370,#371,#372,#373,#374,#375,#376,#377,#378,#379,#380,#381),$);
#383=IFCSHAPEREPRESENTATION(#18,'Body','Tessellation',(#382));
#384=IFCPRODUCTDEFINITIONSHAPE($,$,(#383));
#385=IFCSURFACESTYLE('Style',.BOTH.,(#386));
#386=IFCSURFACESTYLESHADING(#387,0.);
#387=IFCCOLOURRGB($,0.22,0.55,0.26);
#388=IFCSTYLEDITEM(#382,(#385),'Style');
#394=IFCRELAGGREGATES('0n9LVMcnn4RA4mWJxCxH3r',$,$,$,#328,(#329,#360));
#395=IFCCARTESIANPOINT((558553.52,5927539.96,17.));
#396=IFCDIRECTION((0.,0.,1.));
#397=IFCDIRECTION((1.,0.,0.));
#398=IFCAXIS2PLACEMENT3D(#395,#396,#397);
#399=IFCLOCALPLACEMENT($,#398);
#400=IFCCARTESIANPOINT((558553.52,5927539.96,26.45));
#401=IFCDIRECTION((0.,0.,1.));
#402=IFCDIRECTION((1.,0.,0.));
#403=IFCAXIS2PLACEMENT3D(#400,#401,#402);
#404=IFCLOCALPLACEMENT($,#403);
ENDSEC;
END-ISO-10303-21;
