ISO-10303-21;
HEADER;
FILE_DESCRIPTION(('ViewDefinition [CoordinationView]'),'2;1');
FILE_NAME('','2025-07-05T01:17:48',(''),(''),'IfcOpenShell 0.8.0','IfcOpenShell 0.8.0','');
FILE_SCHEMA(('IFC4'));
ENDSEC;
DATA;
#1=IFCPROJECT('2YyB8Nn6D0eBnVddtExDkX',$,'MyProject',$,$,$,$,(#13,#17),#8);
#2=IFCSITE('2ry2c3agHArvGclTutavN8',$,'MySite',$,$,$,$,$,$,$,$,$,$,$);
#3=IFCRELAGGREGATES('02WAGDvPXBIQJdt1jfqM58',$,$,$,#1,(#2));
#4=IFCBUILDING('3kmFLZzTfAKxcq_nIVTsIu',$,'MyBuilding',$,$,$,$,$,$,$,$,$);
#5=IFCRELAGGREGATES('05gsOpvBr60AqJxoSIbwPM',$,$,$,#2,(#4));
#6=IFCSIUNIT(*,.LENGTHUNIT.,$,.METRE.);
#7=IFCSIUNIT(*,.AREAUNIT.,$,.SQUARE_METRE.);
#8=IFCUNITASSIGNMENT((#7,#6));
#9=IFCCARTESIANPOINT((0.,0.,0.));
#10=IFCDIRECTION((0.,0.,1.));
#11=IFCDIRECTION((1.,0.,0.));
#12=IFCAXIS2PLACEMENT3D(#9,#10,#11);
#13=IFCGEOMETRICREPRESENTATIONCONTEXT($,'Model',3,1.E-05,#12,$);
#14=IFCCARTESIANPOINT((0.,0.));
#15=IFCDIRECTION((1.,0.));
#16=IFCAXIS2PLACEMENT2D(#14,#15);
#17=IFCGEOMETRICREPRESENTATIONCONTEXT($,'Plan',2,1.E-05,#16,$);
#18=IFCGEOMETRICREPRESENTATIONSUBCONTEXT('Body','Model',*,*,*,*,#13,$,.MODEL_VIEW.,$);
#19=IFCBUILDINGSTOREY('2FAW9E1YrC18dfrEY9Xk4C',$,'Default Storey',$,$,$,$,$,$,$);
#20=IFCCARTESIANPOINTLIST3D(((0.159154943091895,0.,0.),(0.112539539519638,0.112539539519638,0.),(9.74542958129844E-18,0.159154943091895,0.),(-0.112539539519638,0.112539539519638,0.),(-0.159154943091895,1.94908591625969E-17,0.),(-0.112539539519638,-0.112539539519638,0.),(-2.92362887438953E-17,-0.159154943091895,0.),(0.112539539519638,-0.112539539519638,0.),(0.159154943091895,0.,7.83),(0.112539539519638,0.112539539519638,7.83),(9.74542958129844E-18,0.159154943091895,7.83),(-0.112539539519638,0.112539539519638,7.83),(-0.159154943091895,1.94908591625969E-17,7.83),(-0.112539539519638,-0.112539539519638,7.83),(-2.92362887438953E-17,-0.159154943091895,7.83),(0.112539539519638,-0.112539539519638,7.83)));
#21=IFCINDEXEDPOLYGONALFACE((1,2,9));
#22=IFCINDEXEDPOLYGONALFACE((2,10,9));
#23=IFCINDEXEDPOLYGONALFACE((2,3,10));
#24=IFCINDEXEDPOLYGONALFACE((3,11,10));
#25=IFCINDEXEDPOLYGONALFACE((3,4,11));
#26=IFCINDEXEDPOLYGONALFACE((4,12,11));
#27=IFCINDEXEDPOLYGONALFACE((4,5,12));
#28=IFCINDEXEDPOLYGONALFACE((5,13,12));
#29=IFCINDEXEDPOLYGONALFACE((5,6,13));
#30=IFCINDEXEDPOLYGONALFACE((6,14,13));
#31=IFCINDEXEDPOLYGONALFACE((6,7,14));
#32=IFCINDEXEDPOLYGONALFACE((7,15,14));
#33=IFCINDEXEDPOLYGONALFACE((7,8,15));
#34=IFCINDEXEDPOLYGONALFACE((8,16,15));
#35=IFCINDEXEDPOLYGONALFACE((8,1,16));
#36=IFCINDEXEDPOLYGONALFACE((1,9,16));
#37=IFCINDEXEDPOLYGONALFACE((8,7,6,5,4,3,2,1));
#38=IFCPOLYGONALFACESET(#20,$,(#21,#22,#23,#24,#25,#26,#27,#28,#29,#30,#31,#32,#33,#34,#35,#36,#37),$);
#39=IFCSHAPEREPRESENTATION(#18,'Body','Tessellation',(#38));
#40=IFCBUILDINGELEMENTPROXY('3ssKa5V6TChejV3y1mMcRk',$,$,$,$,#101,#46,$,$);
#46=IFCPRODUCTDEFINITIONSHAPE($,$,(#39));
#47=IFCSURFACESTYLE('Style',.BOTH.,(#48));
#48=IFCSURFACESTYLESHADING(#49,0.);
#49=IFCCOLOURRGB($,0.59,0.34,0.17);
#50=IFCSTYLEDITEM(#38,(#47),'Style');
#56=IFCCARTESIANPOINTLIST3D(((0.,1.52462022514549,2.46688734422092),(0.,-1.52462022514549,2.46688734422092),(1.52462022514549,2.46688734422092,0.),(-1.52462022514549,2.46688734422092,0.),(2.46688734422092,0.,1.52462022514549),(-2.46688734422092,0.,1.52462022514549),(-0.,-1.52462022514549,-2.46688734422092),(-0.,1.52462022514549,-2.46688734422092),(-1.52462022514549,-2.46688734422092,-0.),(1.52462022514549,-2.46688734422092,-0.),(-2.46688734422092,-0.,-1.52462022514549),(2.46688734422092,-0.,-1.52462022514549)));
#57=IFCINDEXEDPOLYGONALFACE((1,6,2));
#58=IFCINDEXEDPOLYGONALFACE((1,4,6));
#59=IFCINDEXEDPOLYGONALFACE((1,3,4));
#60=IFCINDEXEDPOLYGONALFACE((1,5,3));
#61=IFCINDEXEDPOLYGONALFACE((1,2,5));
#62=IFCINDEXEDPOLYGONALFACE((2,6,9));
#63=IFCINDEXEDPOLYGONALFACE((6,4,11));
#64=IFCINDEXEDPOLYGONALFACE((4,3,8));
#65=IFCINDEXEDPOLYGONALFACE((3,5,12));
#66=IFCINDEXEDPOLYGONALFACE((5,2,10));
#67=IFCINDEXEDPOLYGONALFACE((8,12,7));
#68=IFCINDEXEDPOLYGONALFACE((12,10,7));
#69=IFCINDEXEDPOLYGONALFACE((10,9,7));
#70=IFCINDEXEDPOLYGONALFACE((9,11,7));
#71=IFCINDEXEDPOLYGONALFACE((11,8,7));
#72=IFCINDEXEDPOLYGONALFACE((3,12,8));
#73=IFCINDEXEDPOLYGONALFACE((5,10,12));
#74=IFCINDEXEDPOLYGONALFACE((2,9,10));
#75=IFCINDEXEDPOLYGONALFACE((6,11,9));
#76=IFCINDEXEDPOLYGONALFACE((4,8,11));
#77=IFCPOLYGONALFACESET(#56,$,(#57,#58,#59,#60,#61,#62,#63,#64,#65,#66,#67,#68,#69,#70,#71,#72,#73,#74,#75,#76),$);
#78=IFCSHAPEREPRESENTATION(#18,'Body','Tessellation',(#77));
#79=IFCBUILDINGELEMENTPROXY('1MxUaLh0D3Eg1cmOmsayV0',$,$,$,$,#106,#85,$,$);
#85=IFCPRODUCTDEFINITIONSHAPE($,$,(#78));
#86=IFCSURFACESTYLE('Style',.BOTH.,(#87));
#87=IFCSURFACESTYLESHADING(#88,0.);
#88=IFCCOLOURRGB($,0.22,0.59,0.22);
#89=IFCSTYLEDITEM(#77,(#86),'Style');
#95=IFCBUILDINGELEMENTPROXY('1kDegxZKrB9RDcn42DBZMJ',$,'Tree',$,$,$,$,$,$);
#96=IFCRELAGGREGATES('3mnfsEP550JhFEuaZ45sag',$,$,$,#95,(#40,#79));
#97=IFCCARTESIANPOINT((558553.52,5927499.96,17.));
#98=IFCDIRECTION((0.,0.,1.));
#99=IFCDIRECTION((1.,0.,0.));
#100=IFCAXIS2PLACEMENT3D(#97,#98,#99);
#101=IFCLOCALPLACEMENT($,#100);
#102=IFCCARTESIANPOINT((558553.52,5927499.96,24.83));
#103=IFCDIRECTION((0.,0.,1.));
#104=IFCDIRECTION((1.,0.,0.));
#105=IFCAXIS2PLACEMENT3D(#102,#103,#104);
#106=IFCLOCALPLACEMENT($,#105);
#107=IFCCARTESIANPOINTLIST3D(((0.238732414637843,0.,0.),(0.168809309279457,0.168809309279457,0.),(1.46181443719477E-17,0.238732414637843,0.),(-0.168809309279457,0.168809309279457,0.),(-0.238732414637843,2.92362887438953E-17,0.),(-0.168809309279457,-0.168809309279457,0.),(-4.3854433115843E-17,-0.238732414637843,0.),(0.168809309279457,-0.168809309279457,0.),(0.238732414637843,0.,8.1),(0.168809309279457,0.168809309279457,8.1),(1.46181443719477E-17,0.238732414637843,8.1),(-0.168809309279457,0.168809309279457,8.1),(-0.238732414637843,2.92362887438953E-17,8.1),(-0.168809309279457,-0.168809309279457,8.1),(-4.3854433115843E-17,-0.238732414637843,8.1),(0.168809309279457,-0.168809309279457,8.1)));
#108=IFCINDEXEDPOLYGONALFACE((1,2,9));
#109=IFCINDEXEDPOLYGONALFACE((2,10,9));
#110=IFCINDEXEDPOLYGONALFACE((2,3,10));
#111=IFCINDEXEDPOLYGONALFACE((3,11,10));
#112=IFCINDEXEDPOLYGONALFACE((3,4,11));
#113=IFCINDEXEDPOLYGONALFACE((4,12,11));
#114=IFCINDEXEDPOLYGONALFACE((4,5,12));
#115=IFCINDEXEDPOLYGONALFACE((5,13,12));
#116=IFCINDEXEDPOLYGONALFACE((5,6,13));
#117=IFCINDEXEDPOLYGONALFACE((6,14,13));
#118=IFCINDEXEDPOLYGONALFACE((6,7,14));
#119=IFCINDEXEDPOLYGONALFACE((7,15,14));
#120=IFCINDEXEDPOLYGONALFACE((7,8,15));
#121=IFCINDEXEDPOLYGONALFACE((8,16,15));
#122=IFCINDEXEDPOLYGONALFACE((8,1,16));
#123=IFCINDEXEDPOLYGONALFACE((1,9,16));
#124=IFCINDEXEDPOLYGONALFACE((8,7,6,5,4,3,2,1));
#125=IFCPOLYGONALFACESET(#107,$,(#108,#109,#110,#111,#112,#113,#114,#115,#116,#117,#118,#119,#120,#121,#122,#123,#124),$);
#126=IFCSHAPEREPRESENTATION(#18,'Body','Tessellation',(#125));
#127=IFCBUILDINGELEMENTPROXY('2QLH0mk7DEdO2Xte8B2MWb',$,$,$,$,#188,#133,$,$);
#133=IFCPRODUCTDEFINITIONSHAPE($,$,(#126));
#134=IFCSURFACESTYLE('Style',.BOTH.,(#135));
#135=IFCSURFACESTYLESHADING(#136,0.);
#136=IFCCOLOURRGB($,0.59,0.34,0.17);
#137=IFCSTYLEDITEM(#125,(#134),'Style');
#143=IFCCARTESIANPOINTLIST3D(((0.,1.5771933363574,2.55195242505612),(0.,-1.5771933363574,2.55195242505612),(1.5771933363574,2.55195242505612,0.),(-1.5771933363574,2.55195242505612,0.),(2.55195242505612,0.,1.5771933363574),(-2.55195242505612,0.,1.5771933363574),(-0.,-1.5771933363574,-2.55195242505612),(-0.,1.5771933363574,-2.55195242505612),(-1.5771933363574,-2.55195242505612,-0.),(1.5771933363574,-2.55195242505612,-0.),(-2.55195242505612,-0.,-1.5771933363574),(2.55195242505612,-0.,-1.5771933363574)));
#144=IFCINDEXEDPOLYGONALFACE((1,6,2));
#145=IFCINDEXEDPOLYGONALFACE((1,4,6));
#146=IFCINDEXEDPOLYGONALFACE((1,3,4));
#147=IFCINDEXEDPOLYGONALFACE((1,5,3));
#148=IFCINDEXEDPOLYGONALFACE((1,2,5));
#149=IFCINDEXEDPOLYGONALFACE((2,6,9));
#150=IFCINDEXEDPOLYGONALFACE((6,4,11));
#151=IFCINDEXEDPOLYGONALFACE((4,3,8));
#152=IFCINDEXEDPOLYGONALFACE((3,5,12));
#153=IFCINDEXEDPOLYGONALFACE((5,2,10));
#154=IFCINDEXEDPOLYGONALFACE((8,12,7));
#155=IFCINDEXEDPOLYGONALFACE((12,10,7));
#156=IFCINDEXEDPOLYGONALFACE((10,9,7));
#157=IFCINDEXEDPOLYGONALFACE((9,11,7));
#158=IFCINDEXEDPOLYGONALFACE((11,8,7));
#159=IFCINDEXEDPOLYGONALFACE((3,12,8));
#160=IFCINDEXEDPOLYGONALFACE((5,10,12));
#161=IFCINDEXEDPOLYGONALFACE((2,9,10));
#162=IFCINDEXEDPOLYGONALFACE((6,11,9));
#163=IFCINDEXEDPOLYGONALFACE((4,8,11));
#164=IFCPOLYGONALFACESET(#143,$,(#144,#145,#146,#147,#148,#149,#150,#151,#152,#153,#154,#155,#156,#157,#158,#159,#160,#161,#162,#163),$);
#165=IFCSHAPEREPRESENTATION(#18,'Body','Tessellation',(#164));
#166=IFCBUILDINGELEMENTPROXY('2vtOk4dJbApPc6OqZwtvkK',$,$,$,$,#193,#172,$,$);
#172=IFCPRODUCTDEFINITIONSHAPE($,$,(#165));
#173=IFCSURFACESTYLE('Style',.BOTH.,(#174));
#174=IFCSURFACESTYLESHADING(#175,0.);
#175=IFCCOLOURRGB($,0.22,0.59,0.22);
#176=IFCSTYLEDITEM(#164,(#173),'Style');
#182=IFCBUILDINGELEMENTPROXY('3hQG1quijBIuKVMKyPniBP',$,'Tree',$,$,$,$,$,$);
#183=IFCRELAGGREGATES('3hjMZPtSX3IwCkfFhWvXna',$,$,$,#182,(#166,#127));
#184=IFCCARTESIANPOINT((558553.52,5927509.96,17.));
#185=IFCDIRECTION((0.,0.,1.));
#186=IFCDIRECTION((1.,0.,0.));
#187=IFCAXIS2PLACEMENT3D(#184,#185,#186);
#188=IFCLOCALPLACEMENT($,#187);
#189=IFCCARTESIANPOINT((558553.52,5927509.96,25.1));
#190=IFCDIRECTION((0.,0.,1.));
#191=IFCDIRECTION((1.,0.,0.));
#192=IFCAXIS2PLACEMENT3D(#189,#190,#191);
#193=IFCLOCALPLACEMENT($,#192);
#194=IFCCARTESIANPOINTLIST3D(((0.127323954473516,0.,0.),(0.0900316316157106,0.0900316316157106,0.),(7.79634366503875E-18,0.127323954473516,0.),(-0.0900316316157106,0.0900316316157106,0.),(-0.127323954473516,1.55926873300775E-17,0.),(-0.0900316316157106,-0.0900316316157106,0.),(-2.33890309951163E-17,-0.127323954473516,0.),(0.0900316316157106,-0.0900316316157106,0.),(0.127323954473516,0.,6.075),(0.0900316316157106,0.0900316316157106,6.075),(7.79634366503875E-18,0.127323954473516,6.075),(-0.0900316316157106,0.0900316316157106,6.075),(-0.127323954473516,1.55926873300775E-17,6.075),(-0.0900316316157106,-0.0900316316157106,6.075),(-2.33890309951163E-17,-0.127323954473516,6.075),(0.0900316316157106,-0.0900316316157106,6.075)));
#195=IFCINDEXEDPOLYGONALFACE((1,2,9));
#196=IFCINDEXEDPOLYGONALFACE((2,10,9));
#197=IFCINDEXEDPOLYGONALFACE((2,3,10));
#198=IFCINDEXEDPOLYGONALFACE((3,11,10));
#199=IFCINDEXEDPOLYGONALFACE((3,4,11));
#200=IFCINDEXEDPOLYGONALFACE((4,12,11));
#201=IFCINDEXEDPOLYGONALFACE((4,5,12));
#202=IFCINDEXEDPOLYGONALFACE((5,13,12));
#203=IFCINDEXEDPOLYGONALFACE((5,6,13));
#204=IFCINDEXEDPOLYGONALFACE((6,14,13));
#205=IFCINDEXEDPOLYGONALFACE((6,7,14));
#206=IFCINDEXEDPOLYGONALFACE((7,15,14));
#207=IFCINDEXEDPOLYGONALFACE((7,8,15));
#208=IFCINDEXEDPOLYGONALFACE((8,16,15));
#209=IFCINDEXEDPOLYGONALFACE((8,1,16));
#210=IFCINDEXEDPOLYGONALFACE((1,9,16));
#211=IFCINDEXEDPOLYGONALFACE((8,7,6,5,4,3,2,1));
#212=IFCPOLYGONALFACESET(#194,$,(#195,#196,#197,#198,#199,#200,#201,#202,#203,#204,#205,#206,#207,#208,#209,#210,#211),$);
#213=IFCSHAPEREPRESENTATION(#18,'Body','Tessellation',(#212));
#214=IFCBUILDINGELEMENTPROXY('2J9xQkznz75RY0Q9JKIhEF',$,$,$,$,#275,#220,$,$);
#220=IFCPRODUCTDEFINITIONSHAPE($,$,(#213));
#221=IFCSURFACESTYLE('Style',.BOTH.,(#222));
#222=IFCSURFACESTYLESHADING(#223,0.);
#223=IFCCOLOURRGB($,0.59,0.34,0.17);
#224=IFCSTYLEDITEM(#212,(#221),'Style');
#230=IFCCARTESIANPOINTLIST3D(((0.,1.18289500226805,1.91396431879209),(0.,-1.18289500226805,1.91396431879209),(1.18289500226805,1.91396431879209,0.),(-1.18289500226805,1.91396431879209,0.),(1.91396431879209,0.,1.18289500226805),(-1.91396431879209,0.,1.18289500226805),(-0.,-1.18289500226805,-1.91396431879209),(-0.,1.18289500226805,-1.91396431879209),(-1.18289500226805,-1.91396431879209,-0.),(1.18289500226805,-1.91396431879209,-0.),(-1.91396431879209,-0.,-1.18289500226805),(1.91396431879209,-0.,-1.18289500226805)));
#231=IFCINDEXEDPOLYGONALFACE((1,6,2));
#232=IFCINDEXEDPOLYGONALFACE((1,4,6));
#233=IFCINDEXEDPOLYGONALFACE((1,3,4));
#234=IFCINDEXEDPOLYGONALFACE((1,5,3));
#235=IFCINDEXEDPOLYGONALFACE((1,2,5));
#236=IFCINDEXEDPOLYGONALFACE((2,6,9));
#237=IFCINDEXEDPOLYGONALFACE((6,4,11));
#238=IFCINDEXEDPOLYGONALFACE((4,3,8));
#239=IFCINDEXEDPOLYGONALFACE((3,5,12));
#240=IFCINDEXEDPOLYGONALFACE((5,2,10));
#241=IFCINDEXEDPOLYGONALFACE((8,12,7));
#242=IFCINDEXEDPOLYGONALFACE((12,10,7));
#243=IFCINDEXEDPOLYGONALFACE((10,9,7));
#244=IFCINDEXEDPOLYGONALFACE((9,11,7));
#245=IFCINDEXEDPOLYGONALFACE((11,8,7));
#246=IFCINDEXEDPOLYGONALFACE((3,12,8));
#247=IFCINDEXEDPOLYGONALFACE((5,10,12));
#248=IFCINDEXEDPOLYGONALFACE((2,9,10));
#249=IFCINDEXEDPOLYGONALFACE((6,11,9));
#250=IFCINDEXEDPOLYGONALFACE((4,8,11));
#251=IFCPOLYGONALFACESET(#230,$,(#231,#232,#233,#234,#235,#236,#237,#238,#239,#240,#241,#242,#243,#244,#245,#246,#247,#248,#249,#250),$);
#252=IFCSHAPEREPRESENTATION(#18,'Body','Tessellation',(#251));
#253=IFCBUILDINGELEMENTPROXY('3EQZcJD1rBiv$uaxereTF1',$,$,$,$,#280,#259,$,$);
#259=IFCPRODUCTDEFINITIONSHAPE($,$,(#252));
#260=IFCSURFACESTYLE('Style',.BOTH.,(#261));
#261=IFCSURFACESTYLESHADING(#262,0.);
#262=IFCCOLOURRGB($,0.22,0.59,0.22);
#263=IFCSTYLEDITEM(#251,(#260),'Style');
#269=IFCBUILDINGELEMENTPROXY('0dgcCulvPDWgjNATGPHrG7',$,'Tree',$,$,$,$,$,$);
#270=IFCRELAGGREGATES('1u4tViHun68Qrz8wlKV8vV',$,$,$,#269,(#253,#214));
#271=IFCCARTESIANPOINT((558553.52,5927519.96,17.));
#272=IFCDIRECTION((0.,0.,1.));
#273=IFCDIRECTION((1.,0.,0.));
#274=IFCAXIS2PLACEMENT3D(#271,#272,#273);
#275=IFCLOCALPLACEMENT($,#274);
#276=IFCCARTESIANPOINT((558553.52,5927519.96,23.075));
#277=IFCDIRECTION((0.,0.,1.));
#278=IFCDIRECTION((1.,0.,0.));
#279=IFCAXIS2PLACEMENT3D(#276,#277,#278);
#280=IFCLOCALPLACEMENT($,#279);
#281=IFCCARTESIANPOINTLIST3D(((0.0716197243913529,0.,0.),(0.0506427927838372,0.0506427927838372,0.),(4.3854433115843E-18,0.0716197243913529,0.),(-0.0506427927838372,0.0506427927838372,0.),(-0.0716197243913529,8.7708866231686E-18,0.),(-0.0506427927838372,-0.0506427927838372,0.),(-1.31563299347529E-17,-0.0716197243913529,0.),(0.0506427927838372,-0.0506427927838372,0.),(0.0716197243913529,0.,3.5),(0.0506427927838372,0.0506427927838372,3.5),(4.3854433115843E-18,0.0716197243913529,3.5),(-0.0506427927838372,0.0506427927838372,3.5),(-0.0716197243913529,8.7708866231686E-18,3.5),(-0.0506427927838372,-0.0506427927838372,3.5),(-1.31563299347529E-17,-0.0716197243913529,3.5),(0.0506427927838372,-0.0506427927838372,3.5)));
#282=IFCINDEXEDPOLYGONALFACE((1,2,9));
#283=IFCINDEXEDPOLYGONALFACE((2,10,9));
#284=IFCINDEXEDPOLYGONALFACE((2,3,10));
#285=IFCINDEXEDPOLYGONALFACE((3,11,10));
#286=IFCINDEXEDPOLYGONALFACE((3,4,11));
#287=IFCINDEXEDPOLYGONALFACE((4,12,11));
#288=IFCINDEXEDPOLYGONALFACE((4,5,12));
#289=IFCINDEXEDPOLYGONALFACE((5,13,12));
#290=IFCINDEXEDPOLYGONALFACE((5,6,13));
#291=IFCINDEXEDPOLYGONALFACE((6,14,13));
#292=IFCINDEXEDPOLYGONALFACE((6,7,14));
#293=IFCINDEXEDPOLYGONALFACE((7,15,14));
#294=IFCINDEXEDPOLYGONALFACE((7,8,15));
#295=IFCINDEXEDPOLYGONALFACE((8,16,15));
#296=IFCINDEXEDPOLYGONALFACE((8,1,16));
#297=IFCINDEXEDPOLYGONALFACE((1,9,16));
#298=IFCINDEXEDPOLYGONALFACE((8,7,6,5,4,3,2,1));
#299=IFCPOLYGONALFACESET(#281,$,(#282,#283,#284,#285,#286,#287,#288,#289,#290,#291,#292,#293,#294,#295,#296,#297,#298),$);
#300=IFCSHAPEREPRESENTATION(#18,'Body','Tessellation',(#299));
#301=IFCBUILDINGELEMENTPROXY('2SrsWLJhr3hQNXVgDC3tjP',$,$,$,$,#362,#307,$,$);
#307=IFCPRODUCTDEFINITIONSHAPE($,$,(#300));
#308=IFCSURFACESTYLE('Style',.BOTH.,(#309));
#309=IFCSURFACESTYLESHADING(#310,0.);
#310=IFCCOLOURRGB($,0.59,0.34,0.17);
#311=IFCSTYLEDITEM(#299,(#308),'Style');
#317=IFCCARTESIANPOINTLIST3D(((0.,0.525731112119134,0.85065080835204),(0.,-0.525731112119134,0.85065080835204),(0.525731112119134,0.85065080835204,0.),(-0.525731112119134,0.85065080835204,0.),(0.85065080835204,0.,0.525731112119134),(-0.85065080835204,0.,0.525731112119134),(-0.,-0.525731112119134,-0.85065080835204),(-0.,0.525731112119134,-0.85065080835204),(-0.525731112119134,-0.85065080835204,-0.),(0.525731112119134,-0.85065080835204,-0.),(-0.85065080835204,-0.,-0.525731112119134),(0.85065080835204,-0.,-0.525731112119134)));
#318=IFCINDEXEDPOLYGONALFACE((1,6,2));
#319=IFCINDEXEDPOLYGONALFACE((1,4,6));
#320=IFCINDEXEDPOLYGONALFACE((1,3,4));
#321=IFCINDEXEDPOLYGONALFACE((1,5,3));
#322=IFCINDEXEDPOLYGONALFACE((1,2,5));
#323=IFCINDEXEDPOLYGONALFACE((2,6,9));
#324=IFCINDEXEDPOLYGONALFACE((6,4,11));
#325=IFCINDEXEDPOLYGONALFACE((4,3,8));
#326=IFCINDEXEDPOLYGONALFACE((3,5,12));
#327=IFCINDEXEDPOLYGONALFACE((5,2,10));
#328=IFCINDEXEDPOLYGONALFACE((8,12,7));
#329=IFCINDEXEDPOLYGONALFACE((12,10,7));
#330=IFCINDEXEDPOLYGONALFACE((10,9,7));
#331=IFCINDEXEDPOLYGONALFACE((9,11,7));
#332=IFCINDEXEDPOLYGONALFACE((11,8,7));
#333=IFCINDEXEDPOLYGONALFACE((3,12,8));
#334=IFCINDEXEDPOLYGONALFACE((5,10,12));
#335=IFCINDEXEDPOLYGONALFACE((2,9,10));
#336=IFCINDEXEDPOLYGONALFACE((6,11,9));
#337=IFCINDEXEDPOLYGONALFACE((4,8,11));
#338=IFCPOLYGONALFACESET(#317,$,(#318,#319,#320,#321,#322,#323,#324,#325,#326,#327,#328,#329,#330,#331,#332,#333,#334,#335,#336,#337),$);
#339=IFCSHAPEREPRESENTATION(#18,'Body','Tessellation',(#338));
#340=IFCBUILDINGELEMENTPROXY('1q0$hRCPz02hroy$b_jzZm',$,$,$,$,#367,#346,$,$);
#346=IFCPRODUCTDEFINITIONSHAPE($,$,(#339));
#347=IFCSURFACESTYLE('Style',.BOTH.,(#348));
#348=IFCSURFACESTYLESHADING(#349,0.);
#349=IFCCOLOURRGB($,0.22,0.59,0.22);
#350=IFCSTYLEDITEM(#338,(#347),'Style');
#356=IFCBUILDINGELEMENTPROXY('0zci$azr5CFB$EATUioWof',$,'Tree',$,$,$,$,$,$);
#357=IFCRELAGGREGATES('36nxwd6hP90ADKjHzYwh2N',$,$,$,#356,(#340,#301));
#358=IFCCARTESIANPOINT((558553.52,5927529.96,17.));
#359=IFCDIRECTION((0.,0.,1.));
#360=IFCDIRECTION((1.,0.,0.));
#361=IFCAXIS2PLACEMENT3D(#358,#359,#360);
#362=IFCLOCALPLACEMENT($,#361);
#363=IFCCARTESIANPOINT((558553.52,5927529.96,20.5));
#364=IFCDIRECTION((0.,0.,1.));
#365=IFCDIRECTION((1.,0.,0.));
#366=IFCAXIS2PLACEMENT3D(#363,#364,#365);
#367=IFCLOCALPLACEMENT($,#366);
#368=IFCCARTESIANPOINTLIST3D(((0.318309886183791,0.,0.),(0.225079079039277,0.225079079039277,0.),(1.94908591625969E-17,0.318309886183791,0.),(-0.225079079039277,0.225079079039277,0.),(-0.318309886183791,3.89817183251938E-17,0.),(-0.225079079039277,-0.225079079039277,0.),(-5.84725774877906E-17,-0.318309886183791,0.),(0.225079079039276,-0.225079079039277,0.),(0.318309886183791,0.,9.45),(0.225079079039277,0.225079079039277,9.45),(1.94908591625969E-17,0.318309886183791,9.45),(-0.225079079039277,0.225079079039277,9.45),(-0.318309886183791,3.89817183251938E-17,9.45),(-0.225079079039277,-0.225079079039277,9.45),(-5.84725774877906E-17,-0.318309886183791,9.45),(0.225079079039276,-0.225079079039277,9.45)));
#369=IFCINDEXEDPOLYGONALFACE((1,2,9));
#370=IFCINDEXEDPOLYGONALFACE((2,10,9));
#371=IFCINDEXEDPOLYGONALFACE((2,3,10));
#372=IFCINDEXEDPOLYGONALFACE((3,11,10));
#373=IFCINDEXEDPOLYGONALFACE((3,4,11));
#374=IFCINDEXEDPOLYGONALFACE((4,12,11));
#375=IFCINDEXEDPOLYGONALFACE((4,5,12));
#376=IFCINDEXEDPOLYGONALFACE((5,13,12));
#377=IFCINDEXEDPOLYGONALFACE((5,6,13));
#378=IFCINDEXEDPOLYGONALFACE((6,14,13));
#379=IFCINDEXEDPOLYGONALFACE((6,7,14));
#380=IFCINDEXEDPOLYGONALFACE((7,15,14));
#381=IFCINDEXEDPOLYGONALFACE((7,8,15));
#382=IFCINDEXEDPOLYGONALFACE((8,16,15));
#383=IFCINDEXEDPOLYGONALFACE((8,1,16));
#384=IFCINDEXEDPOLYGONALFACE((1,9,16));
#385=IFCINDEXEDPOLYGONALFACE((8,7,6,5,4,3,2,1));
#386=IFCPOLYGONALFACESET(#368,$,(#369,#370,#371,#372,#373,#374,#375,#376,#377,#378,#379,#380,#381,#382,#383,#384,#385),$);
#387=IFCSHAPEREPRESENTATION(#18,'Body','Tessellation',(#386));
#388=IFCBUILDINGELEMENTPROXY('1nB$PX9dz7auKSeoRM5Hc$',$,$,$,$,#449,#394,$,$);
#394=IFCPRODUCTDEFINITIONSHAPE($,$,(#387));
#395=IFCSURFACESTYLE('Style',.BOTH.,(#396));
#396=IFCSURFACESTYLESHADING(#397,0.);
#397=IFCCOLOURRGB($,0.59,0.34,0.17);
#398=IFCSTYLEDITEM(#386,(#395),'Style');
#404=IFCCARTESIANPOINTLIST3D(((0.,1.84005889241697,2.97727782923214),(0.,-1.84005889241697,2.97727782923214),(1.84005889241697,2.97727782923214,0.),(-1.84005889241697,2.97727782923214,0.),(2.97727782923214,0.,1.84005889241697),(-2.97727782923214,0.,1.84005889241697),(-0.,-1.84005889241697,-2.97727782923214),(-0.,1.84005889241697,-2.97727782923214),(-1.84005889241697,-2.97727782923214,-0.),(1.84005889241697,-2.97727782923214,-0.),(-2.97727782923214,-0.,-1.84005889241697),(2.97727782923214,-0.,-1.84005889241697)));
#405=IFCINDEXEDPOLYGONALFACE((1,6,2));
#406=IFCINDEXEDPOLYGONALFACE((1,4,6));
#407=IFCINDEXEDPOLYGONALFACE((1,3,4));
#408=IFCINDEXEDPOLYGONALFACE((1,5,3));
#409=IFCINDEXEDPOLYGONALFACE((1,2,5));
#410=IFCINDEXEDPOLYGONALFACE((2,6,9));
#411=IFCINDEXEDPOLYGONALFACE((6,4,11));
#412=IFCINDEXEDPOLYGONALFACE((4,3,8));
#413=IFCINDEXEDPOLYGONALFACE((3,5,12));
#414=IFCINDEXEDPOLYGONALFACE((5,2,10));
#415=IFCINDEXEDPOLYGONALFACE((8,12,7));
#416=IFCINDEXEDPOLYGONALFACE((12,10,7));
#417=IFCINDEXEDPOLYGONALFACE((10,9,7));
#418=IFCINDEXEDPOLYGONALFACE((9,11,7));
#419=IFCINDEXEDPOLYGONALFACE((11,8,7));
#420=IFCINDEXEDPOLYGONALFACE((3,12,8));
#421=IFCINDEXEDPOLYGONALFACE((5,10,12));
#422=IFCINDEXEDPOLYGONALFACE((2,9,10));
#423=IFCINDEXEDPOLYGONALFACE((6,11,9));
#424=IFCINDEXEDPOLYGONALFACE((4,8,11));
#425=IFCPOLYGONALFACESET(#404,$,(#405,#406,#407,#408,#409,#410,#411,#412,#413,#414,#415,#416,#417,#418,#419,#420,#421,#422,#423,#424),$);
#426=IFCSHAPEREPRESENTATION(#18,'Body','Tessellation',(#425));
#427=IFCBUILDINGELEMENTPROXY('2rPK_O2NjEDvhD_42k3cOs',$,$,$,$,#454,#433,$,$);
#433=IFCPRODUCTDEFINITIONSHAPE($,$,(#426));
#434=IFCSURFACESTYLE('Style',.BOTH.,(#435));
#435=IFCSURFACESTYLESHADING(#436,0.);
#436=IFCCOLOURRGB($,0.22,0.59,0.22);
#437=IFCSTYLEDITEM(#425,(#434),'Style');
#443=IFCBUILDINGELEMENTPROXY('3_FHy18Vn0Yw5BlSLzIBfz',$,'Tree',$,$,$,$,$,$);
#444=IFCRELAGGREGATES('1HKb_iWTTCO80yNJmas2ma',$,$,$,#443,(#427,#388));
#445=IFCCARTESIANPOINT((558553.52,5927539.96,17.));
#446=IFCDIRECTION((0.,0.,1.));
#447=IFCDIRECTION((1.,0.,0.));
#448=IFCAXIS2PLACEMENT3D(#445,#446,#447);
#449=IFCLOCALPLACEMENT($,#448);
#450=IFCCARTESIANPOINT((558553.52,5927539.96,26.45));
#451=IFCDIRECTION((0.,0.,1.));
#452=IFCDIRECTION((1.,0.,0.));
#453=IFCAXIS2PLACEMENT3D(#450,#451,#452);
#454=IFCLOCALPLACEMENT($,#453);
#455=IFCRELCONTAINEDINSPATIALSTRUCTURE('2wthe3W150OxI$BKii3nNP',$,$,$,(#469,#182,#443,#95,#356,#269),#2);
#456=IFCCARTESIANPOINTLIST3D(((-4.,-4.,8.),(4.,-4.,8.),(4.,4.,8.),(-4.,4.,8.),(-4.,-4.,-8.),(4.,-4.,-8.),(4.,4.,-8.),(-4.,4.,-8.),(0.,0.,0.)));
#457=IFCINDEXEDPOLYGONALFACE((1,2,9));
#458=IFCINDEXEDPOLYGONALFACE((2,3,9));
#459=IFCINDEXEDPOLYGONALFACE((3,4,9));
#460=IFCINDEXEDPOLYGONALFACE((4,1,9));
#461=IFCINDEXEDPOLYGONALFACE((6,5,9));
#462=IFCINDEXEDPOLYGONALFACE((7,6,9));
#463=IFCINDEXEDPOLYGONALFACE((8,7,9));
#464=IFCINDEXEDPOLYGONALFACE((5,8,9));
#465=IFCINDEXEDPOLYGONALFACE((1,2,3,4));
#466=IFCINDEXEDPOLYGONALFACE((8,7,6,5));
#467=IFCPOLYGONALFACESET(#456,$,(#457,#458,#459,#460,#461,#462,#463,#464,#465,#466),$);
#468=IFCSHAPEREPRESENTATION(#18,'Body','Tessellation',(#467));
#469=IFCBUILDINGELEMENTPROXY('3gy8XU3h53VgUIOakXtm9S',$,'_Nullpunktobjekt_8x8x16',$,$,#499,#475,$,$);
#475=IFCPRODUCTDEFINITIONSHAPE($,$,(#468));
#481=IFCSURFACESTYLE('Style',.BOTH.,(#482));
#482=IFCSURFACESTYLESHADING(#483,0.);
#483=IFCCOLOURRGB($,0.94,0.48,0.48);
#484=IFCSTYLEDITEM(#467,(#481),'Style');
#485=IFCPROPERTYSET('3JUds$36zAjBEy_r3Llomd',$,'BasePoint_Properties',$,(#487,#488,#489,#490,#491,#492,#493,#494));
#486=IFCRELDEFINESBYPROPERTIES('1GREnw5cjEvgi59_zQT_NT',$,$,$,(#469),#485);
#487=IFCPROPERTYSINGLEVALUE('Name',$,IFCLABEL('Tree Area Reference Point'),$);
#488=IFCPROPERTYSINGLEVALUE('Description',$,IFCLABEL('Reference point for tree area (bbox: 558553.52, 5927499.96 to 558553.52, 5927539.96)'),$);
#489=IFCPROPERTYSINGLEVALUE('Type',$,IFCLABEL('Tree_Area_Reference'),$);
#490=IFCPROPERTYSINGLEVALUE('Coordinate_System',$,IFCLABEL('UTM32N'),$);
#491=IFCPROPERTYSINGLEVALUE('BBox_Min_X',$,IFCREAL(558553.52),$);
#492=IFCPROPERTYSINGLEVALUE('BBox_Min_Y',$,IFCREAL(5927499.96),$);
#493=IFCPROPERTYSINGLEVALUE('BBox_Max_X',$,IFCREAL(558553.52),$);
#494=IFCPROPERTYSINGLEVALUE('BBox_Max_Y',$,IFCREAL(5927539.96),$);
#495=IFCCARTESIANPOINT((558553.52,5927499.96,0.));
#496=IFCDIRECTION((0.,0.,1.));
#497=IFCDIRECTION((1.,0.,0.));
#498=IFCAXIS2PLACEMENT3D(#495,#496,#497);
#499=IFCLOCALPLACEMENT($,#498);
ENDSEC;
END-ISO-10303-21;
