ISO-10303-21;
HEADER;
FILE_DESCRIPTION(('ViewDefinition [CoordinationView]'),'2;1');
FILE_NAME('','2025-07-04T18:44:23',(''),(''),'IfcOpenShell 0.8.0','IfcOpenShell 0.8.0','');
FILE_SCHEMA(('IFC4'));
ENDSEC;
DATA;
#1=IFCPROJECT('148u08dzz2rOMg39KPzGvO',$,'MyProject',$,$,$,$,(#13,#17),#8);
#2=IFCSITE('01hfrRAqn7pRgEGpY46FI2',$,'MySite',$,$,$,$,$,$,$,$,$,$,$);
#3=IFCRELAGGREGATES('1Wc$h_mpPCJuJR5LayMi7s',$,$,$,#1,(#2));
#4=IFCBUILDING('1KM0HAGIb2TuFrDDC_Bvh9',$,'MyBuilding',$,$,$,$,$,$,$,$,$);
#5=IFCRELAGGREGATES('3qM18vFMz098XVPyIhb0ax',$,$,$,#2,(#4));
#6=IFCSIUNIT(*,.LENGTHUNIT.,$,.METRE.);
#7=IFCSIUNIT(*,.AREAUNIT.,$,.SQUARE_METRE.);
#8=IFCUNITASSIGNMENT((#6,#7));
#9=IFCCARTESIANPOINT((0.,0.,0.));
#10=IFCDIRECTION((0.,0.,1.));
#11=IFCDIRECTION((1.,0.,0.));
#12=IFCAXIS2PLACEMENT3D(#9,#10,#11);
#13=IFCGEOMETRICREPRESENTATIONCONTEXT($,'Model',3,1.E-05,#12,$);
#14=IFCCARTESIANPOINT((0.,0.));
#15=IFCDIRECTION((1.,0.));
#16=IFCAXIS2PLACEMENT2D(#14,#15);
#17=IFCGEOMETRICREPRESENTATIONCONTEXT($,'Plan',2,1.E-05,#16,$);
#18=IFCGEOMETRICREPRESENTATIONSUBCONTEXT('Body','Model',*,*,*,*,#13,$,.MODEL_VIEW.,$);
#19=IFCBUILDINGSTOREY('3RKojNkSfE3OGkmX1zO_rW',$,'Default Storey',$,$,$,$,$,$,$);
#20=IFCBUILDINGELEMENT('1sVpS0YP10ffYb2$HT5E9U',$,'Baum_0001',$,$,$,$,$);
#21=IFCBUILDINGELEMENTPROXY('21AxzBEGrEERFl_Ey7A9DJ',$,'Stamm_0001',$,$,#91,#42,$,$);
#22=IFCCARTESIANPOINTLIST3D(((0.159154943091895,0.,0.),(0.112539539519638,0.112539539519638,0.),(9.74542958129844E-18,0.159154943091895,0.),(-0.112539539519638,0.112539539519638,0.),(-0.159154943091895,1.94908591625969E-17,0.),(-0.112539539519638,-0.112539539519638,0.),(-2.92362887438953E-17,-0.159154943091895,0.),(0.112539539519638,-0.112539539519638,0.),(0.159154943091895,0.,78.3),(0.112539539519638,0.112539539519638,78.3),(9.74542958129844E-18,0.159154943091895,78.3),(-0.112539539519638,0.112539539519638,78.3),(-0.159154943091895,1.94908591625969E-17,78.3),(-0.112539539519638,-0.112539539519638,78.3),(-2.92362887438953E-17,-0.159154943091895,78.3),(0.112539539519638,-0.112539539519638,78.3)));
#23=IFCINDEXEDPOLYGONALFACE((1,2,9));
#24=IFCINDEXEDPOLYGONALFACE((2,10,9));
#25=IFCINDEXEDPOLYGONALFACE((2,3,10));
#26=IFCINDEXEDPOLYGONALFACE((3,11,10));
#27=IFCINDEXEDPOLYGONALFACE((3,4,11));
#28=IFCINDEXEDPOLYGONALFACE((4,12,11));
#29=IFCINDEXEDPOLYGONALFACE((4,5,12));
#30=IFCINDEXEDPOLYGONALFACE((5,13,12));
#31=IFCINDEXEDPOLYGONALFACE((5,6,13));
#32=IFCINDEXEDPOLYGONALFACE((6,14,13));
#33=IFCINDEXEDPOLYGONALFACE((6,7,14));
#34=IFCINDEXEDPOLYGONALFACE((7,15,14));
#35=IFCINDEXEDPOLYGONALFACE((7,8,15));
#36=IFCINDEXEDPOLYGONALFACE((8,16,15));
#37=IFCINDEXEDPOLYGONALFACE((8,1,16));
#38=IFCINDEXEDPOLYGONALFACE((1,9,16));
#39=IFCINDEXEDPOLYGONALFACE((8,7,6,5,4,3,2,1));
#40=IFCPOLYGONALFACESET(#22,$,(#23,#24,#25,#26,#27,#28,#29,#30,#31,#32,#33,#34,#35,#36,#37,#38,#39),$);
#41=IFCSHAPEREPRESENTATION(#18,'Body','Tessellation',(#40));
#42=IFCPRODUCTDEFINITIONSHAPE($,$,(#41));
#43=IFCSURFACESTYLE('Style',.BOTH.,(#44));
#44=IFCSURFACESTYLESHADING(#45,0.);
#45=IFCCOLOURRGB($,0.49,0.35,0.26);
#46=IFCSTYLEDITEM(#40,(#43),'Style');
#52=IFCBUILDINGELEMENTPROXY('2mGn0YygvBlxdUccStzjq2',$,'Krone_0001',$,$,#96,#76,$,$);
#53=IFCCARTESIANPOINTLIST3D(((0.,15.2462022514549,24.6688734422092),(0.,-15.2462022514549,24.6688734422092),(15.2462022514549,24.6688734422092,0.),(-15.2462022514549,24.6688734422092,0.),(24.6688734422092,0.,15.2462022514549),(-24.6688734422092,0.,15.2462022514549),(-0.,-15.2462022514549,-24.6688734422092),(-0.,15.2462022514549,-24.6688734422092),(-15.2462022514549,-24.6688734422092,-0.),(15.2462022514549,-24.6688734422092,-0.),(-24.6688734422092,-0.,-15.2462022514549),(24.6688734422092,-0.,-15.2462022514549)));
#54=IFCINDEXEDPOLYGONALFACE((1,6,2));
#55=IFCINDEXEDPOLYGONALFACE((1,4,6));
#56=IFCINDEXEDPOLYGONALFACE((1,3,4));
#57=IFCINDEXEDPOLYGONALFACE((1,5,3));
#58=IFCINDEXEDPOLYGONALFACE((1,2,5));
#59=IFCINDEXEDPOLYGONALFACE((2,6,9));
#60=IFCINDEXEDPOLYGONALFACE((6,4,11));
#61=IFCINDEXEDPOLYGONALFACE((4,3,8));
#62=IFCINDEXEDPOLYGONALFACE((3,5,12));
#63=IFCINDEXEDPOLYGONALFACE((5,2,10));
#64=IFCINDEXEDPOLYGONALFACE((8,12,7));
#65=IFCINDEXEDPOLYGONALFACE((12,10,7));
#66=IFCINDEXEDPOLYGONALFACE((10,9,7));
#67=IFCINDEXEDPOLYGONALFACE((9,11,7));
#68=IFCINDEXEDPOLYGONALFACE((11,8,7));
#69=IFCINDEXEDPOLYGONALFACE((3,12,8));
#70=IFCINDEXEDPOLYGONALFACE((5,10,12));
#71=IFCINDEXEDPOLYGONALFACE((2,9,10));
#72=IFCINDEXEDPOLYGONALFACE((6,11,9));
#73=IFCINDEXEDPOLYGONALFACE((4,8,11));
#74=IFCPOLYGONALFACESET(#53,$,(#54,#55,#56,#57,#58,#59,#60,#61,#62,#63,#64,#65,#66,#67,#68,#69,#70,#71,#72,#73),$);
#75=IFCSHAPEREPRESENTATION(#18,'Body','Tessellation',(#74));
#76=IFCPRODUCTDEFINITIONSHAPE($,$,(#75));
#77=IFCSURFACESTYLE('Style',.BOTH.,(#78));
#78=IFCSURFACESTYLESHADING(#79,0.);
#79=IFCCOLOURRGB($,0.22,0.55,0.26);
#80=IFCSTYLEDITEM(#74,(#77),'Style');
#86=IFCRELAGGREGATES('3bO00pfTH1lOSp1snQulOa',$,$,$,#20,(#21,#52));
#87=IFCCARTESIANPOINT((558406.01,5927514.51,0.));
#88=IFCDIRECTION((0.,0.,1.));
#89=IFCDIRECTION((1.,0.,0.));
#90=IFCAXIS2PLACEMENT3D(#87,#88,#89);
#91=IFCLOCALPLACEMENT($,#90);
#92=IFCCARTESIANPOINT((558406.01,5927514.51,78.3));
#93=IFCDIRECTION((0.,0.,1.));
#94=IFCDIRECTION((1.,0.,0.));
#95=IFCAXIS2PLACEMENT3D(#92,#93,#94);
#96=IFCLOCALPLACEMENT($,#95);
#97=IFCPROPERTYSET('0QPpo9KBL7IwM4hd7GAx7l',$,'Pset_DGM',$,(#99,#100,#101));
#98=IFCRELDEFINESBYPROPERTIES('0PeVsTDFH6yhI9iCQOyatI',$,$,$,(#20),#97);
#99=IFCPROPERTYSINGLEVALUE('strasse',$,IFCLABEL('Beispielstra\X2\00DF\X0\e'),$);
#100=IFCPROPERTYSINGLEVALUE('stadtteil',$,IFCLABEL('Demo-Stadtteil'),$);
#101=IFCPROPERTYSINGLEVALUE('bezirk',$,IFCLABEL('Altona'),$);
#102=IFCPROPERTYSET('0EQgJ1CwrBewaGwRdFtyP_',$,'Pset_Objektinformation',$,(#104,#105,#106,#107,#108,#109,#110,#111));
#103=IFCRELDEFINESBYPROPERTIES('0TaMVZTcr2HAJ9gBNvd$wI',$,$,$,(#20),#102);
#104=IFCPROPERTYSINGLEVALUE('baumnummer',$,IFCLABEL('100001'),$);
#105=IFCPROPERTYSINGLEVALUE('gattung_deutsch',$,IFCLABEL('Ahorn'),$);
#106=IFCPROPERTYSINGLEVALUE('baumid',$,IFCINTEGER(1),$);
#107=IFCPROPERTYSINGLEVALUE('art_deutsch',$,IFCLABEL('Spitz-Ahorn'),$);
#108=IFCPROPERTYSINGLEVALUE('sorte_deutsch',$,IFCLABEL('Spitz-Ahorn'),$);
#109=IFCPROPERTYSINGLEVALUE('pflanzjahr',$,IFCINTEGER(1990),$);
#110=IFCPROPERTYSINGLEVALUE('kronendurchmesser',$,IFCREAL(58.),$);
#111=IFCPROPERTYSINGLEVALUE('stammumfang',$,IFCREAL(1.),$);
#112=IFCBUILDINGELEMENT('0IkKabNdP18hvpNrRiFfAW',$,'Baum_0002',$,$,$,$,$);
#113=IFCBUILDINGELEMENTPROXY('3E2uLao014jQkM1j6lodsC',$,'Stamm_0002',$,$,#248,#134,$,$);
#114=IFCCARTESIANPOINTLIST3D(((0.238732414637843,0.,0.),(0.168809309279457,0.168809309279457,0.),(1.46181443719477E-17,0.238732414637843,0.),(-0.168809309279457,0.168809309279457,0.),(-0.238732414637843,2.92362887438953E-17,0.),(-0.168809309279457,-0.168809309279457,0.),(-4.3854433115843E-17,-0.238732414637843,0.),(0.168809309279457,-0.168809309279457,0.),(0.238732414637843,0.,15.),(0.168809309279457,0.168809309279457,15.),(1.46181443719477E-17,0.238732414637843,15.),(-0.168809309279457,0.168809309279457,15.),(-0.238732414637843,2.92362887438953E-17,15.),(-0.168809309279457,-0.168809309279457,15.),(-4.3854433115843E-17,-0.238732414637843,15.),(0.168809309279457,-0.168809309279457,15.)));
#115=IFCINDEXEDPOLYGONALFACE((1,2,9));
#116=IFCINDEXEDPOLYGONALFACE((2,10,9));
#117=IFCINDEXEDPOLYGONALFACE((2,3,10));
#118=IFCINDEXEDPOLYGONALFACE((3,11,10));
#119=IFCINDEXEDPOLYGONALFACE((3,4,11));
#120=IFCINDEXEDPOLYGONALFACE((4,12,11));
#121=IFCINDEXEDPOLYGONALFACE((4,5,12));
#122=IFCINDEXEDPOLYGONALFACE((5,13,12));
#123=IFCINDEXEDPOLYGONALFACE((5,6,13));
#124=IFCINDEXEDPOLYGONALFACE((6,14,13));
#125=IFCINDEXEDPOLYGONALFACE((6,7,14));
#126=IFCINDEXEDPOLYGONALFACE((7,15,14));
#127=IFCINDEXEDPOLYGONALFACE((7,8,15));
#128=IFCINDEXEDPOLYGONALFACE((8,16,15));
#129=IFCINDEXEDPOLYGONALFACE((8,1,16));
#130=IFCINDEXEDPOLYGONALFACE((1,9,16));
#131=IFCINDEXEDPOLYGONALFACE((8,7,6,5,4,3,2,1));
#132=IFCPOLYGONALFACESET(#114,$,(#115,#116,#117,#118,#119,#120,#121,#122,#123,#124,#125,#126,#127,#128,#129,#130,#131),$);
#133=IFCSHAPEREPRESENTATION(#18,'Body','Tessellation',(#132));
#134=IFCPRODUCTDEFINITIONSHAPE($,$,(#133));
#135=IFCSURFACESTYLE('Style',.BOTH.,(#136));
#136=IFCSURFACESTYLESHADING(#137,0.);
#137=IFCCOLOURRGB($,0.49,0.35,0.26);
#138=IFCSTYLEDITEM(#132,(#135),'Style');
#144=IFCBUILDINGELEMENTPROXY('0OoeC6RwX3Pw2l4Y2FbP44',$,'Krone_0002',$,$,#243,#228,$,$);
#145=IFCCARTESIANPOINTLIST3D(((0.,1.5771933363574,2.55195242505612),(0.,-1.5771933363574,2.55195242505612),(1.5771933363574,2.55195242505612,0.),(-1.5771933363574,2.55195242505612,0.),(2.55195242505612,0.,1.5771933363574),(-2.55195242505612,0.,1.5771933363574),(-0.,-1.5771933363574,-2.55195242505612),(-0.,1.5771933363574,-2.55195242505612),(-1.5771933363574,-2.55195242505612,-0.),(1.5771933363574,-2.55195242505612,-0.),(-2.55195242505612,-0.,-1.5771933363574),(2.55195242505612,-0.,-1.5771933363574),(0.,0.,3.),(0.927050983124842,2.42705098312484,1.5),(-0.927050983124842,2.42705098312484,1.5),(1.5,0.927050983124842,2.42705098312484),(-1.5,0.927050983124842,2.42705098312484),(1.5,-0.927050983124842,2.42705098312484),(-1.5,-0.927050983124842,2.42705098312484),(-0.927050983124842,-2.42705098312484,1.5),(0.927050983124842,-2.42705098312484,1.5),(0.,3.,0.),(2.42705098312484,1.5,0.927050983124842),(0.927050983124842,2.42705098312484,-1.5),(2.42705098312484,1.5,-0.927050983124842),(-2.42705098312484,1.5,0.927050983124842),(-0.927050983124842,2.42705098312484,-1.5),(-2.42705098312484,1.5,-0.927050983124842),(2.42705098312484,-1.5,0.927050983124842),(3.,0.,0.),(-2.42705098312484,-1.5,0.927050983124842),(-3.,0.,0.),(-0.,0.,-3.),(-0.927050983124842,-2.42705098312484,-1.5),(0.927050983124842,-2.42705098312484,-1.5),(-1.5,-0.927050983124842,-2.42705098312484),(1.5,-0.927050983124842,-2.42705098312484),(-1.5,0.927050983124842,-2.42705098312484),(1.5,0.927050983124842,-2.42705098312484),(0.,-3.,-0.),(-2.42705098312484,-1.5,-0.927050983124842),(2.42705098312484,-1.5,-0.927050983124842)));
#146=IFCINDEXEDPOLYGONALFACE((1,17,13));
#147=IFCINDEXEDPOLYGONALFACE((17,6,19));
#148=IFCINDEXEDPOLYGONALFACE((17,19,13));
#149=IFCINDEXEDPOLYGONALFACE((13,19,2));
#150=IFCINDEXEDPOLYGONALFACE((1,15,17));
#151=IFCINDEXEDPOLYGONALFACE((15,4,26));
#152=IFCINDEXEDPOLYGONALFACE((15,26,17));
#153=IFCINDEXEDPOLYGONALFACE((17,26,6));
#154=IFCINDEXEDPOLYGONALFACE((1,14,15));
#155=IFCINDEXEDPOLYGONALFACE((14,3,22));
#156=IFCINDEXEDPOLYGONALFACE((14,22,15));
#157=IFCINDEXEDPOLYGONALFACE((15,22,4));
#158=IFCINDEXEDPOLYGONALFACE((1,16,14));
#159=IFCINDEXEDPOLYGONALFACE((16,5,23));
#160=IFCINDEXEDPOLYGONALFACE((16,23,14));
#161=IFCINDEXEDPOLYGONALFACE((14,23,3));
#162=IFCINDEXEDPOLYGONALFACE((1,13,16));
#163=IFCINDEXEDPOLYGONALFACE((13,2,18));
#164=IFCINDEXEDPOLYGONALFACE((13,18,16));
#165=IFCINDEXEDPOLYGONALFACE((16,18,5));
#166=IFCINDEXEDPOLYGONALFACE((2,19,20));
#167=IFCINDEXEDPOLYGONALFACE((19,6,31));
#168=IFCINDEXEDPOLYGONALFACE((19,31,20));
#169=IFCINDEXEDPOLYGONALFACE((20,31,9));
#170=IFCINDEXEDPOLYGONALFACE((6,26,32));
#171=IFCINDEXEDPOLYGONALFACE((26,4,28));
#172=IFCINDEXEDPOLYGONALFACE((26,28,32));
#173=IFCINDEXEDPOLYGONALFACE((32,28,11));
#174=IFCINDEXEDPOLYGONALFACE((4,22,27));
#175=IFCINDEXEDPOLYGONALFACE((22,3,24));
#176=IFCINDEXEDPOLYGONALFACE((22,24,27));
#177=IFCINDEXEDPOLYGONALFACE((27,24,8));
#178=IFCINDEXEDPOLYGONALFACE((3,23,25));
#179=IFCINDEXEDPOLYGONALFACE((23,5,30));
#180=IFCINDEXEDPOLYGONALFACE((23,30,25));
#181=IFCINDEXEDPOLYGONALFACE((25,30,12));
#182=IFCINDEXEDPOLYGONALFACE((5,18,29));
#183=IFCINDEXEDPOLYGONALFACE((18,2,21));
#184=IFCINDEXEDPOLYGONALFACE((18,21,29));
#185=IFCINDEXEDPOLYGONALFACE((29,21,10));
#186=IFCINDEXEDPOLYGONALFACE((8,39,33));
#187=IFCINDEXEDPOLYGONALFACE((39,12,37));
#188=IFCINDEXEDPOLYGONALFACE((39,37,33));
#189=IFCINDEXEDPOLYGONALFACE((33,37,7));
#190=IFCINDEXEDPOLYGONALFACE((12,42,37));
#191=IFCINDEXEDPOLYGONALFACE((42,10,35));
#192=IFCINDEXEDPOLYGONALFACE((42,35,37));
#193=IFCINDEXEDPOLYGONALFACE((37,35,7));
#194=IFCINDEXEDPOLYGONALFACE((10,40,35));
#195=IFCINDEXEDPOLYGONALFACE((40,9,34));
#196=IFCINDEXEDPOLYGONALFACE((40,34,35));
#197=IFCINDEXEDPOLYGONALFACE((35,34,7));
#198=IFCINDEXEDPOLYGONALFACE((9,41,34));
#199=IFCINDEXEDPOLYGONALFACE((41,11,36));
#200=IFCINDEXEDPOLYGONALFACE((41,36,34));
#201=IFCINDEXEDPOLYGONALFACE((34,36,7));
#202=IFCINDEXEDPOLYGONALFACE((11,38,36));
#203=IFCINDEXEDPOLYGONALFACE((38,8,33));
#204=IFCINDEXEDPOLYGONALFACE((38,33,36));
#205=IFCINDEXEDPOLYGONALFACE((36,33,7));
#206=IFCINDEXEDPOLYGONALFACE((3,25,24));
#207=IFCINDEXEDPOLYGONALFACE((25,12,39));
#208=IFCINDEXEDPOLYGONALFACE((25,39,24));
#209=IFCINDEXEDPOLYGONALFACE((24,39,8));
#210=IFCINDEXEDPOLYGONALFACE((5,29,30));
#211=IFCINDEXEDPOLYGONALFACE((29,10,42));
#212=IFCINDEXEDPOLYGONALFACE((29,42,30));
#213=IFCINDEXEDPOLYGONALFACE((30,42,12));
#214=IFCINDEXEDPOLYGONALFACE((2,20,21));
#215=IFCINDEXEDPOLYGONALFACE((20,9,40));
#216=IFCINDEXEDPOLYGONALFACE((20,40,21));
#217=IFCINDEXEDPOLYGONALFACE((21,40,10));
#218=IFCINDEXEDPOLYGONALFACE((6,32,31));
#219=IFCINDEXEDPOLYGONALFACE((32,11,41));
#220=IFCINDEXEDPOLYGONALFACE((32,41,31));
#221=IFCINDEXEDPOLYGONALFACE((31,41,9));
#222=IFCINDEXEDPOLYGONALFACE((4,27,28));
#223=IFCINDEXEDPOLYGONALFACE((27,8,38));
#224=IFCINDEXEDPOLYGONALFACE((27,38,28));
#225=IFCINDEXEDPOLYGONALFACE((28,38,11));
#226=IFCPOLYGONALFACESET(#145,$,(#146,#147,#148,#149,#150,#151,#152,#153,#154,#155,#156,#157,#158,#159,#160,#161,#162,#163,#164,#165,#166,#167,#168,#169,#170,#171,#172,#173,#174,#175,#176,#177,#178,#179,#180,#181,#182,#183,#184,#185,#186,#187,#188,#189,#190,#191,#192,#193,#194,#195,#196,#197,#198,#199,#200,#201,#202,#203,#204,#205,#206,#207,#208,#209,#210,#211,#212,#213,#214,#215,#216,#217,#218,#219,#220,#221,#222,#223,#224,#225),$);
#227=IFCSHAPEREPRESENTATION(#18,'Body','Tessellation',(#226));
#228=IFCPRODUCTDEFINITIONSHAPE($,$,(#227));
#229=IFCSURFACESTYLE('Style',.BOTH.,(#230));
#230=IFCSURFACESTYLESHADING(#231,0.);
#231=IFCCOLOURRGB($,0.22,0.55,0.26);
#232=IFCSTYLEDITEM(#226,(#229),'Style');
#238=IFCRELAGGREGATES('0oLk8aXBv59eJ5kZU_BG4$',$,$,$,#112,(#144,#113));
#239=IFCCARTESIANPOINT((558553.52,5927499.96,15.));
#240=IFCDIRECTION((0.,0.,1.));
#241=IFCDIRECTION((1.,0.,0.));
#242=IFCAXIS2PLACEMENT3D(#239,#240,#241);
#243=IFCLOCALPLACEMENT($,#242);
#244=IFCCARTESIANPOINT((558553.52,5927499.96,0.));
#245=IFCDIRECTION((0.,0.,1.));
#246=IFCDIRECTION((1.,0.,0.));
#247=IFCAXIS2PLACEMENT3D(#244,#245,#246);
#248=IFCLOCALPLACEMENT($,#247);
#249=IFCPROPERTYSET('3GXtW6aq154PEWtEWusLwu',$,'Pset_DGM',$,(#251,#252,#253));
#250=IFCRELDEFINESBYPROPERTIES('3j0NlNywjC4PJm5RJ4viF_',$,$,$,(#112),#249);
#251=IFCPROPERTYSINGLEVALUE('strasse',$,IFCLABEL('Musterweg'),$);
#252=IFCPROPERTYSINGLEVALUE('stadtteil',$,IFCLABEL('Demo-Stadtteil'),$);
#253=IFCPROPERTYSINGLEVALUE('bezirk',$,IFCLABEL('Bergedorf'),$);
#254=IFCPROPERTYSET('2x7xJ9YwvCxhVV7H2zYQyq',$,'Pset_Objektinformation',$,(#256,#257,#258,#259,#260,#261,#262,#263));
#255=IFCRELDEFINESBYPROPERTIES('2ImEH53GXCBAOQ62OCRgdf',$,$,$,(#112),#254);
#256=IFCPROPERTYSINGLEVALUE('baumnummer',$,IFCLABEL('100002'),$);
#257=IFCPROPERTYSINGLEVALUE('gattung_deutsch',$,IFCLABEL('Eiche'),$);
#258=IFCPROPERTYSINGLEVALUE('baumid',$,IFCINTEGER(2),$);
#259=IFCPROPERTYSINGLEVALUE('art_deutsch',$,IFCLABEL('Stiel-Eiche'),$);
#260=IFCPROPERTYSINGLEVALUE('sorte_deutsch',$,IFCLABEL('Stiel-Eiche'),$);
#261=IFCPROPERTYSINGLEVALUE('pflanzjahr',$,IFCINTEGER(1980),$);
#262=IFCPROPERTYSINGLEVALUE('kronendurchmesser',$,IFCREAL(6.),$);
#263=IFCPROPERTYSINGLEVALUE('stammumfang',$,IFCREAL(1.5),$);
#264=IFCBUILDINGELEMENT('1C4rT2IJHCdhW8wtHrjY4M',$,'Baum_0003',$,$,$,$,$);
#265=IFCBUILDINGELEMENTPROXY('3AbOEjBcjCM8tALM9Ankck',$,'Stamm_0003',$,$,#500,#286,$,$);
#266=IFCCARTESIANPOINTLIST3D(((0.0716197243913529,0.,0.),(0.0506427927838372,0.0506427927838372,0.),(4.3854433115843E-18,0.0716197243913529,0.),(-0.0506427927838372,0.0506427927838372,0.),(-0.0716197243913529,8.7708866231686E-18,0.),(-0.0506427927838372,-0.0506427927838372,0.),(-1.31563299347529E-17,-0.0716197243913529,0.),(0.0506427927838372,-0.0506427927838372,0.),(0.0716197243913529,0.,3.5),(0.0506427927838372,0.0506427927838372,3.5),(4.3854433115843E-18,0.0716197243913529,3.5),(-0.0506427927838372,0.0506427927838372,3.5),(-0.0716197243913529,8.7708866231686E-18,3.5),(-0.0506427927838372,-0.0506427927838372,3.5),(-1.31563299347529E-17,-0.0716197243913529,3.5),(0.0506427927838372,-0.0506427927838372,3.5)));
#267=IFCINDEXEDPOLYGONALFACE((1,2,9));
#268=IFCINDEXEDPOLYGONALFACE((2,10,9));
#269=IFCINDEXEDPOLYGONALFACE((2,3,10));
#270=IFCINDEXEDPOLYGONALFACE((3,11,10));
#271=IFCINDEXEDPOLYGONALFACE((3,4,11));
#272=IFCINDEXEDPOLYGONALFACE((4,12,11));
#273=IFCINDEXEDPOLYGONALFACE((4,5,12));
#274=IFCINDEXEDPOLYGONALFACE((5,13,12));
#275=IFCINDEXEDPOLYGONALFACE((5,6,13));
#276=IFCINDEXEDPOLYGONALFACE((6,14,13));
#277=IFCINDEXEDPOLYGONALFACE((6,7,14));
#278=IFCINDEXEDPOLYGONALFACE((7,15,14));
#279=IFCINDEXEDPOLYGONALFACE((7,8,15));
#280=IFCINDEXEDPOLYGONALFACE((8,16,15));
#281=IFCINDEXEDPOLYGONALFACE((8,1,16));
#282=IFCINDEXEDPOLYGONALFACE((1,9,16));
#283=IFCINDEXEDPOLYGONALFACE((8,7,6,5,4,3,2,1));
#284=IFCPOLYGONALFACESET(#266,$,(#267,#268,#269,#270,#271,#272,#273,#274,#275,#276,#277,#278,#279,#280,#281,#282,#283),$);
#285=IFCSHAPEREPRESENTATION(#18,'Body','Tessellation',(#284));
#286=IFCPRODUCTDEFINITIONSHAPE($,$,(#285));
#287=IFCSURFACESTYLE('Style',.BOTH.,(#288));
#288=IFCSURFACESTYLESHADING(#289,0.);
#289=IFCCOLOURRGB($,0.49,0.35,0.26);
#290=IFCSTYLEDITEM(#284,(#287),'Style');
#296=IFCBUILDINGELEMENTPROXY('0mWEXgEvvA5fq0pNrKiaWO',$,'Krone_0003',$,$,#495,#480,$,$);
#297=IFCCARTESIANPOINTLIST3D(((0.,0.262865556059567,0.42532540417602),(0.,-0.262865556059567,0.42532540417602),(0.262865556059567,0.42532540417602,0.),(-0.262865556059567,0.42532540417602,0.),(0.42532540417602,0.,0.262865556059567),(-0.42532540417602,0.,0.262865556059567),(-0.,-0.262865556059567,-0.42532540417602),(-0.,0.262865556059567,-0.42532540417602),(-0.262865556059567,-0.42532540417602,-0.),(0.262865556059567,-0.42532540417602,-0.),(-0.42532540417602,-0.,-0.262865556059567),(0.42532540417602,-0.,-0.262865556059567),(0.,0.100887053083799,0.489716042743207),(0.,-0.100887053083799,0.489716042743207),(0.100887053083799,0.365012787082001,0.326477361828805),(0.201774106167599,0.427364414912604,0.163238680914402),(-0.100887053083799,0.365012787082001,0.326477361828805),(-0.201774106167599,0.427364414912604,0.163238680914402),(0.163238680914402,0.201774106167599,0.427364414912604),(0.326477361828805,0.100887053083799,0.365012787082001),(-0.163238680914402,0.201774106167599,0.427364414912604),(-0.326477361828805,0.100887053083799,0.365012787082001),(0.163238680914402,-0.201774106167599,0.427364414912604),(0.326477361828805,-0.100887053083799,0.365012787082001),(-0.163238680914402,-0.201774106167599,0.427364414912604),(-0.326477361828805,-0.100887053083799,0.365012787082001),(-0.100887053083799,-0.365012787082001,0.326477361828805),(-0.201774106167599,-0.427364414912604,0.163238680914402),(0.100887053083799,-0.365012787082001,0.326477361828805),(0.201774106167599,-0.427364414912604,0.163238680914402),(0.100887053083799,0.489716042743207,0.),(-0.100887053083799,0.489716042743207,0.),(0.365012787082001,0.326477361828805,0.100887053083799),(0.427364414912604,0.163238680914402,0.201774106167599),(0.201774106167599,0.427364414912604,-0.163238680914402),(0.100887053083799,0.365012787082001,-0.326477361828805),(0.365012787082001,0.326477361828805,-0.100887053083799),(0.427364414912604,0.163238680914402,-0.201774106167599),(-0.365012787082001,0.326477361828805,0.100887053083799),(-0.427364414912604,0.163238680914402,0.201774106167599),(-0.201774106167599,0.427364414912604,-0.163238680914402),(-0.100887053083799,0.365012787082001,-0.326477361828805),(-0.365012787082001,0.326477361828805,-0.100887053083799),(-0.427364414912604,0.163238680914402,-0.201774106167599),(0.427364414912604,-0.163238680914402,0.201774106167599),(0.365012787082001,-0.326477361828805,0.100887053083799),(0.489716042743207,0.,0.100887053083799),(0.489716042743207,0.,-0.100887053083799),(-0.427364414912604,-0.163238680914402,0.201774106167599),(-0.365012787082001,-0.326477361828805,0.100887053083799),(-0.489716042743207,0.,0.100887053083799),(-0.489716042743207,0.,-0.100887053083799),(-0.,-0.100887053083799,-0.489716042743207),(-0.,0.100887053083799,-0.489716042743207),(-0.100887053083799,-0.365012787082001,-0.326477361828805),(-0.201774106167599,-0.427364414912604,-0.163238680914402),(0.100887053083799,-0.365012787082001,-0.326477361828805),(0.201774106167599,-0.427364414912604,-0.163238680914402),(-0.163238680914402,-0.201774106167599,-0.427364414912604),(-0.326477361828805,-0.100887053083799,-0.365012787082001),(0.163238680914402,-0.201774106167599,-0.427364414912604),(0.326477361828805,-0.100887053083799,-0.365012787082001),(-0.163238680914402,0.201774106167599,-0.427364414912604),(-0.326477361828805,0.100887053083799,-0.365012787082001),(0.163238680914402,0.201774106167599,-0.427364414912604),(0.326477361828805,0.100887053083799,-0.365012787082001),(-0.100887053083799,-0.489716042743207,-0.),(0.100887053083799,-0.489716042743207,-0.),(-0.365012787082001,-0.326477361828805,-0.100887053083799),(-0.427364414912604,-0.163238680914402,-0.201774106167599),(0.365012787082001,-0.326477361828805,-0.100887053083799),(0.427364414912604,-0.163238680914402,-0.201774106167599),(-0.178411044886545,0.,0.467086179481358),(-0.288675134594813,0.288675134594813,0.288675134594813),(0.,0.467086179481358,0.178411044886545),(0.288675134594813,0.288675134594813,0.288675134594813),(0.178411044886545,0.,0.467086179481358),(-0.288675134594813,-0.288675134594813,0.288675134594813),(-0.467086179481358,0.178411044886545,0.),(0.,0.467086179481358,-0.178411044886545),(0.467086179481358,0.178411044886545,0.),(0.288675134594813,-0.288675134594813,0.288675134594813),(0.178411044886545,0.,-0.467086179481358),(0.288675134594813,-0.288675134594813,-0.288675134594813),(0.,-0.467086179481358,-0.178411044886545),(-0.288675134594813,-0.288675134594813,-0.288675134594813),(-0.178411044886545,0.,-0.467086179481358),(0.288675134594813,0.288675134594813,-0.288675134594813),(0.467086179481358,-0.178411044886545,0.),(0.,-0.467086179481358,0.178411044886545),(-0.467086179481358,-0.178411044886545,0.),(-0.288675134594813,0.288675134594813,-0.288675134594813)));
#298=IFCINDEXEDPOLYGONALFACE((1,21,13));
#299=IFCINDEXEDPOLYGONALFACE((21,22,73));
#300=IFCINDEXEDPOLYGONALFACE((21,73,13));
#301=IFCINDEXEDPOLYGONALFACE((13,73,14));
#302=IFCINDEXEDPOLYGONALFACE((22,6,26));
#303=IFCINDEXEDPOLYGONALFACE((22,26,73));
#304=IFCINDEXEDPOLYGONALFACE((73,26,25));
#305=IFCINDEXEDPOLYGONALFACE((73,25,14));
#306=IFCINDEXEDPOLYGONALFACE((14,25,2));
#307=IFCINDEXEDPOLYGONALFACE((1,17,21));
#308=IFCINDEXEDPOLYGONALFACE((17,18,74));
#309=IFCINDEXEDPOLYGONALFACE((17,74,21));
#310=IFCINDEXEDPOLYGONALFACE((21,74,22));
#311=IFCINDEXEDPOLYGONALFACE((18,4,39));
#312=IFCINDEXEDPOLYGONALFACE((18,39,74));
#313=IFCINDEXEDPOLYGONALFACE((74,39,40));
#314=IFCINDEXEDPOLYGONALFACE((74,40,22));
#315=IFCINDEXEDPOLYGONALFACE((22,40,6));
#316=IFCINDEXEDPOLYGONALFACE((1,15,17));
#317=IFCINDEXEDPOLYGONALFACE((15,16,75));
#318=IFCINDEXEDPOLYGONALFACE((15,75,17));
#319=IFCINDEXEDPOLYGONALFACE((17,75,18));
#320=IFCINDEXEDPOLYGONALFACE((16,3,31));
#321=IFCINDEXEDPOLYGONALFACE((16,31,75));
#322=IFCINDEXEDPOLYGONALFACE((75,31,32));
#323=IFCINDEXEDPOLYGONALFACE((75,32,18));
#324=IFCINDEXEDPOLYGONALFACE((18,32,4));
#325=IFCINDEXEDPOLYGONALFACE((1,19,15));
#326=IFCINDEXEDPOLYGONALFACE((19,20,76));
#327=IFCINDEXEDPOLYGONALFACE((19,76,15));
#328=IFCINDEXEDPOLYGONALFACE((15,76,16));
#329=IFCINDEXEDPOLYGONALFACE((20,5,34));
#330=IFCINDEXEDPOLYGONALFACE((20,34,76));
#331=IFCINDEXEDPOLYGONALFACE((76,34,33));
#332=IFCINDEXEDPOLYGONALFACE((76,33,16));
#333=IFCINDEXEDPOLYGONALFACE((16,33,3));
#334=IFCINDEXEDPOLYGONALFACE((1,13,19));
#335=IFCINDEXEDPOLYGONALFACE((13,14,77));
#336=IFCINDEXEDPOLYGONALFACE((13,77,19));
#337=IFCINDEXEDPOLYGONALFACE((19,77,20));
#338=IFCINDEXEDPOLYGONALFACE((14,2,23));
#339=IFCINDEXEDPOLYGONALFACE((14,23,77));
#340=IFCINDEXEDPOLYGONALFACE((77,23,24));
#341=IFCINDEXEDPOLYGONALFACE((77,24,20));
#342=IFCINDEXEDPOLYGONALFACE((20,24,5));
#343=IFCINDEXEDPOLYGONALFACE((2,25,27));
#344=IFCINDEXEDPOLYGONALFACE((25,26,78));
#345=IFCINDEXEDPOLYGONALFACE((25,78,27));
#346=IFCINDEXEDPOLYGONALFACE((27,78,28));
#347=IFCINDEXEDPOLYGONALFACE((26,6,49));
#348=IFCINDEXEDPOLYGONALFACE((26,49,78));
#349=IFCINDEXEDPOLYGONALFACE((78,49,50));
#350=IFCINDEXEDPOLYGONALFACE((78,50,28));
#351=IFCINDEXEDPOLYGONALFACE((28,50,9));
#352=IFCINDEXEDPOLYGONALFACE((6,40,51));
#353=IFCINDEXEDPOLYGONALFACE((40,39,79));
#354=IFCINDEXEDPOLYGONALFACE((40,79,51));
#355=IFCINDEXEDPOLYGONALFACE((51,79,52));
#356=IFCINDEXEDPOLYGONALFACE((39,4,43));
#357=IFCINDEXEDPOLYGONALFACE((39,43,79));
#358=IFCINDEXEDPOLYGONALFACE((79,43,44));
#359=IFCINDEXEDPOLYGONALFACE((79,44,52));
#360=IFCINDEXEDPOLYGONALFACE((52,44,11));
#361=IFCINDEXEDPOLYGONALFACE((4,32,41));
#362=IFCINDEXEDPOLYGONALFACE((32,31,80));
#363=IFCINDEXEDPOLYGONALFACE((32,80,41));
#364=IFCINDEXEDPOLYGONALFACE((41,80,42));
#365=IFCINDEXEDPOLYGONALFACE((31,3,35));
#366=IFCINDEXEDPOLYGONALFACE((31,35,80));
#367=IFCINDEXEDPOLYGONALFACE((80,35,36));
#368=IFCINDEXEDPOLYGONALFACE((80,36,42));
#369=IFCINDEXEDPOLYGONALFACE((42,36,8));
#370=IFCINDEXEDPOLYGONALFACE((3,33,37));
#371=IFCINDEXEDPOLYGONALFACE((33,34,81));
#372=IFCINDEXEDPOLYGONALFACE((33,81,37));
#373=IFCINDEXEDPOLYGONALFACE((37,81,38));
#374=IFCINDEXEDPOLYGONALFACE((34,5,47));
#375=IFCINDEXEDPOLYGONALFACE((34,47,81));
#376=IFCINDEXEDPOLYGONALFACE((81,47,48));
#377=IFCINDEXEDPOLYGONALFACE((81,48,38));
#378=IFCINDEXEDPOLYGONALFACE((38,48,12));
#379=IFCINDEXEDPOLYGONALFACE((5,24,45));
#380=IFCINDEXEDPOLYGONALFACE((24,23,82));
#381=IFCINDEXEDPOLYGONALFACE((24,82,45));
#382=IFCINDEXEDPOLYGONALFACE((45,82,46));
#383=IFCINDEXEDPOLYGONALFACE((23,2,29));
#384=IFCINDEXEDPOLYGONALFACE((23,29,82));
#385=IFCINDEXEDPOLYGONALFACE((82,29,30));
#386=IFCINDEXEDPOLYGONALFACE((82,30,46));
#387=IFCINDEXEDPOLYGONALFACE((46,30,10));
#388=IFCINDEXEDPOLYGONALFACE((8,65,54));
#389=IFCINDEXEDPOLYGONALFACE((65,66,83));
#390=IFCINDEXEDPOLYGONALFACE((65,83,54));
#391=IFCINDEXEDPOLYGONALFACE((54,83,53));
#392=IFCINDEXEDPOLYGONALFACE((66,12,62));
#393=IFCINDEXEDPOLYGONALFACE((66,62,83));
#394=IFCINDEXEDPOLYGONALFACE((83,62,61));
#395=IFCINDEXEDPOLYGONALFACE((83,61,53));
#396=IFCINDEXEDPOLYGONALFACE((53,61,7));
#397=IFCINDEXEDPOLYGONALFACE((12,72,62));
#398=IFCINDEXEDPOLYGONALFACE((72,71,84));
#399=IFCINDEXEDPOLYGONALFACE((72,84,62));
#400=IFCINDEXEDPOLYGONALFACE((62,84,61));
#401=IFCINDEXEDPOLYGONALFACE((71,10,58));
#402=IFCINDEXEDPOLYGONALFACE((71,58,84));
#403=IFCINDEXEDPOLYGONALFACE((84,58,57));
#404=IFCINDEXEDPOLYGONALFACE((84,57,61));
#405=IFCINDEXEDPOLYGONALFACE((61,57,7));
#406=IFCINDEXEDPOLYGONALFACE((10,68,58));
#407=IFCINDEXEDPOLYGONALFACE((68,67,85));
#408=IFCINDEXEDPOLYGONALFACE((68,85,58));
#409=IFCINDEXEDPOLYGONALFACE((58,85,57));
#410=IFCINDEXEDPOLYGONALFACE((67,9,56));
#411=IFCINDEXEDPOLYGONALFACE((67,56,85));
#412=IFCINDEXEDPOLYGONALFACE((85,56,55));
#413=IFCINDEXEDPOLYGONALFACE((85,55,57));
#414=IFCINDEXEDPOLYGONALFACE((57,55,7));
#415=IFCINDEXEDPOLYGONALFACE((9,69,56));
#416=IFCINDEXEDPOLYGONALFACE((69,70,86));
#417=IFCINDEXEDPOLYGONALFACE((69,86,56));
#418=IFCINDEXEDPOLYGONALFACE((56,86,55));
#419=IFCINDEXEDPOLYGONALFACE((70,11,60));
#420=IFCINDEXEDPOLYGONALFACE((70,60,86));
#421=IFCINDEXEDPOLYGONALFACE((86,60,59));
#422=IFCINDEXEDPOLYGONALFACE((86,59,55));
#423=IFCINDEXEDPOLYGONALFACE((55,59,7));
#424=IFCINDEXEDPOLYGONALFACE((11,64,60));
#425=IFCINDEXEDPOLYGONALFACE((64,63,87));
#426=IFCINDEXEDPOLYGONALFACE((64,87,60));
#427=IFCINDEXEDPOLYGONALFACE((60,87,59));
#428=IFCINDEXEDPOLYGONALFACE((63,8,54));
#429=IFCINDEXEDPOLYGONALFACE((63,54,87));
#430=IFCINDEXEDPOLYGONALFACE((87,54,53));
#431=IFCINDEXEDPOLYGONALFACE((87,53,59));
#432=IFCINDEXEDPOLYGONALFACE((59,53,7));
#433=IFCINDEXEDPOLYGONALFACE((3,37,35));
#434=IFCINDEXEDPOLYGONALFACE((37,38,88));
#435=IFCINDEXEDPOLYGONALFACE((37,88,35));
#436=IFCINDEXEDPOLYGONALFACE((35,88,36));
#437=IFCINDEXEDPOLYGONALFACE((38,12,66));
#438=IFCINDEXEDPOLYGONALFACE((38,66,88));
#439=IFCINDEXEDPOLYGONALFACE((88,66,65));
#440=IFCINDEXEDPOLYGONALFACE((88,65,36));
#441=IFCINDEXEDPOLYGONALFACE((36,65,8));
#442=IFCINDEXEDPOLYGONALFACE((5,45,47));
#443=IFCINDEXEDPOLYGONALFACE((45,46,89));
#444=IFCINDEXEDPOLYGONALFACE((45,89,47));
#445=IFCINDEXEDPOLYGONALFACE((47,89,48));
#446=IFCINDEXEDPOLYGONALFACE((46,10,71));
#447=IFCINDEXEDPOLYGONALFACE((46,71,89));
#448=IFCINDEXEDPOLYGONALFACE((89,71,72));
#449=IFCINDEXEDPOLYGONALFACE((89,72,48));
#450=IFCINDEXEDPOLYGONALFACE((48,72,12));
#451=IFCINDEXEDPOLYGONALFACE((2,27,29));
#452=IFCINDEXEDPOLYGONALFACE((27,28,90));
#453=IFCINDEXEDPOLYGONALFACE((27,90,29));
#454=IFCINDEXEDPOLYGONALFACE((29,90,30));
#455=IFCINDEXEDPOLYGONALFACE((28,9,67));
#456=IFCINDEXEDPOLYGONALFACE((28,67,90));
#457=IFCINDEXEDPOLYGONALFACE((90,67,68));
#458=IFCINDEXEDPOLYGONALFACE((90,68,30));
#459=IFCINDEXEDPOLYGONALFACE((30,68,10));
#460=IFCINDEXEDPOLYGONALFACE((6,51,49));
#461=IFCINDEXEDPOLYGONALFACE((51,52,91));
#462=IFCINDEXEDPOLYGONALFACE((51,91,49));
#463=IFCINDEXEDPOLYGONALFACE((49,91,50));
#464=IFCINDEXEDPOLYGONALFACE((52,11,70));
#465=IFCINDEXEDPOLYGONALFACE((52,70,91));
#466=IFCINDEXEDPOLYGONALFACE((91,70,69));
#467=IFCINDEXEDPOLYGONALFACE((91,69,50));
#468=IFCINDEXEDPOLYGONALFACE((50,69,9));
#469=IFCINDEXEDPOLYGONALFACE((4,41,43));
#470=IFCINDEXEDPOLYGONALFACE((41,42,92));
#471=IFCINDEXEDPOLYGONALFACE((41,92,43));
#472=IFCINDEXEDPOLYGONALFACE((43,92,44));
#473=IFCINDEXEDPOLYGONALFACE((42,8,63));
#474=IFCINDEXEDPOLYGONALFACE((42,63,92));
#475=IFCINDEXEDPOLYGONALFACE((92,63,64));
#476=IFCINDEXEDPOLYGONALFACE((92,64,44));
#477=IFCINDEXEDPOLYGONALFACE((44,64,11));
#478=IFCPOLYGONALFACESET(#297,$,(#298,#299,#300,#301,#302,#303,#304,#305,#306,#307,#308,#309,#310,#311,#312,#313,#314,#315,#316,#317,#318,#319,#320,#321,#322,#323,#324,#325,#326,#327,#328,#329,#330,#331,#332,#333,#334,#335,#336,#337,#338,#339,#340,#341,#342,#343,#344,#345,#346,#347,#348,#349,#350,#351,#352,#353,#354,#355,#356,#357,#358,#359,#360,#361,#362,#363,#364,#365,#366,#367,#368,#369,#370,#371,#372,#373,#374,#375,#376,#377,#378,#379,#380,#381,#382,#383,#384,#385,#386,#387,#388,#389,#390,#391,#392,#393,#394,#395,#396,#397,#398,#399,#400,#401,#402,#403,#404,#405,#406,#407,#408,#409,#410,#411,#412,#413,#414,#415,#416,#417,#418,#419,#420,#421,#422,#423,#424,#425,#426,#427,#428,#429,#430,#431,#432,#433,#434,#435,#436,#437,#438,#439,#440,#441,#442,#443,#444,#445,#446,#447,#448,#449,#450,#451,#452,#453,#454,#455,#456,#457,#458,#459,#460,#461,#462,#463,#464,#465,#466,#467,#468,#469,#470,#471,#472,#473,#474,#475,#476,#477),$);
#479=IFCSHAPEREPRESENTATION(#18,'Body','Tessellation',(#478));
#480=IFCPRODUCTDEFINITIONSHAPE($,$,(#479));
#481=IFCSURFACESTYLE('Style',.BOTH.,(#482));
#482=IFCSURFACESTYLESHADING(#483,0.);
#483=IFCCOLOURRGB($,0.22,0.55,0.26);
#484=IFCSTYLEDITEM(#478,(#481),'Style');
#490=IFCRELAGGREGATES('2E7JZpfr95lQ3vC6JBTdOL',$,$,$,#264,(#296,#265));
#491=IFCCARTESIANPOINT((558501.93,5927581.88,3.5));
#492=IFCDIRECTION((0.,0.,1.));
#493=IFCDIRECTION((1.,0.,0.));
#494=IFCAXIS2PLACEMENT3D(#491,#492,#493);
#495=IFCLOCALPLACEMENT($,#494);
#496=IFCCARTESIANPOINT((558501.93,5927581.88,0.));
#497=IFCDIRECTION((0.,0.,1.));
#498=IFCDIRECTION((1.,0.,0.));
#499=IFCAXIS2PLACEMENT3D(#496,#497,#498);
#500=IFCLOCALPLACEMENT($,#499);
#501=IFCPROPERTYSET('3EmZ5waLf3DPo0A1l8KqUu',$,'Pset_DGM',$,(#503,#504,#505));
#502=IFCRELDEFINESBYPROPERTIES('2n5ZbPTZX8aeq0rVUBIfV0',$,$,$,(#264),#501);
#503=IFCPROPERTYSINGLEVALUE('strasse',$,IFCLABEL('Musterweg'),$);
#504=IFCPROPERTYSINGLEVALUE('stadtteil',$,IFCLABEL('Demo-Stadtteil'),$);
#505=IFCPROPERTYSINGLEVALUE('bezirk',$,IFCLABEL('Bramfeld'),$);
#506=IFCPROPERTYSET('0z6A8Tbdn1duWUgG_X6uPT',$,'Pset_Objektinformation',$,(#508,#509,#510,#511,#512,#513,#514,#515));
#507=IFCRELDEFINESBYPROPERTIES('1ALIyANanDExCUk8YfZj9i',$,$,$,(#264),#506);
#508=IFCPROPERTYSINGLEVALUE('baumnummer',$,IFCLABEL('120220'),$);
#509=IFCPROPERTYSINGLEVALUE('gattung_deutsch',$,IFCLABEL('Linde'),$);
#510=IFCPROPERTYSINGLEVALUE('baumid',$,IFCINTEGER(3),$);
#511=IFCPROPERTYSINGLEVALUE('art_deutsch',$,IFCLABEL('Winter-Linde'),$);
#512=IFCPROPERTYSINGLEVALUE('sorte_deutsch',$,IFCLABEL('Winter-Linde'),$);
#513=IFCPROPERTYSINGLEVALUE('pflanzjahr',$,IFCINTEGER(1985),$);
#514=IFCPROPERTYSINGLEVALUE('kronendurchmesser',$,IFCREAL(1.),$);
#515=IFCPROPERTYSINGLEVALUE('stammumfang',$,IFCREAL(0.45),$);
#516=IFCBUILDINGELEMENT('1BbhFMo_L0txA7CgJ8sjMr',$,'Baum_0004',$,$,$,$,$);
#517=IFCBUILDINGELEMENTPROXY('3cVlEtDMn59uNyXxnQKiNV',$,'Stamm_0004',$,$,#887,#538,$,$);
#518=IFCCARTESIANPOINTLIST3D(((0.0716197243913529,0.,0.),(0.0506427927838372,0.0506427927838372,0.),(4.3854433115843E-18,0.0716197243913529,0.),(-0.0506427927838372,0.0506427927838372,0.),(-0.0716197243913529,8.7708866231686E-18,0.),(-0.0506427927838372,-0.0506427927838372,0.),(-1.31563299347529E-17,-0.0716197243913529,0.),(0.0506427927838372,-0.0506427927838372,0.),(0.0716197243913529,0.,17.),(0.0506427927838372,0.0506427927838372,17.),(4.3854433115843E-18,0.0716197243913529,17.),(-0.0506427927838372,0.0506427927838372,17.),(-0.0716197243913529,8.7708866231686E-18,17.),(-0.0506427927838372,-0.0506427927838372,17.),(-1.31563299347529E-17,-0.0716197243913529,17.),(0.0506427927838372,-0.0506427927838372,17.)));
#519=IFCINDEXEDPOLYGONALFACE((1,2,9));
#520=IFCINDEXEDPOLYGONALFACE((2,10,9));
#521=IFCINDEXEDPOLYGONALFACE((2,3,10));
#522=IFCINDEXEDPOLYGONALFACE((3,11,10));
#523=IFCINDEXEDPOLYGONALFACE((3,4,11));
#524=IFCINDEXEDPOLYGONALFACE((4,12,11));
#525=IFCINDEXEDPOLYGONALFACE((4,5,12));
#526=IFCINDEXEDPOLYGONALFACE((5,13,12));
#527=IFCINDEXEDPOLYGONALFACE((5,6,13));
#528=IFCINDEXEDPOLYGONALFACE((6,14,13));
#529=IFCINDEXEDPOLYGONALFACE((6,7,14));
#530=IFCINDEXEDPOLYGONALFACE((7,15,14));
#531=IFCINDEXEDPOLYGONALFACE((7,8,15));
#532=IFCINDEXEDPOLYGONALFACE((8,16,15));
#533=IFCINDEXEDPOLYGONALFACE((8,1,16));
#534=IFCINDEXEDPOLYGONALFACE((1,9,16));
#535=IFCINDEXEDPOLYGONALFACE((8,7,6,5,4,3,2,1));
#536=IFCPOLYGONALFACESET(#518,$,(#519,#520,#521,#522,#523,#524,#525,#526,#527,#528,#529,#530,#531,#532,#533,#534,#535),$);
#537=IFCSHAPEREPRESENTATION(#18,'Body','Tessellation',(#536));
#538=IFCPRODUCTDEFINITIONSHAPE($,$,(#537));
#539=IFCSURFACESTYLE('Style',.BOTH.,(#540));
#540=IFCSURFACESTYLESHADING(#541,0.);
#541=IFCCOLOURRGB($,0.49,0.35,0.26);
#542=IFCSTYLEDITEM(#536,(#539),'Style');
#548=IFCBUILDINGELEMENTPROXY('2fqqhCxzH3Cg1wVmqp$4UE',$,'Krone_0004',$,$,#892,#872,$,$);
#549=IFCCARTESIANPOINTLIST3D(((0.,0.525731112119134,0.85065080835204),(0.,-0.525731112119134,0.85065080835204),(0.525731112119134,0.85065080835204,0.),(-0.525731112119134,0.85065080835204,0.),(0.85065080835204,0.,0.525731112119134),(-0.85065080835204,0.,0.525731112119134),(-0.,-0.525731112119134,-0.85065080835204),(-0.,0.525731112119134,-0.85065080835204),(-0.525731112119134,-0.85065080835204,-0.),(0.525731112119134,-0.85065080835204,-0.),(-0.85065080835204,-0.,-0.525731112119134),(0.85065080835204,-0.,-0.525731112119134),(0.,0.295241808844326,0.955422563220238),(0.,0.,1.),(0.,-0.295241808844326,0.955422563220238),(0.147620904422163,0.681718354071549,0.716566922415179),(0.309016994374947,0.809016994374947,0.5),(0.442862713266489,0.864187826837342,0.23885564080506),(-0.147620904422163,0.681718354071549,0.716566922415179),(-0.309016994374947,0.809016994374947,0.5),(-0.442862713266489,0.864187826837342,0.23885564080506),(0.23885564080506,0.442862713266489,0.864187826837342),(0.5,0.309016994374947,0.809016994374947),(0.716566922415179,0.147620904422163,0.681718354071549),(-0.23885564080506,0.442862713266489,0.864187826837342),(-0.5,0.309016994374947,0.809016994374947),(-0.716566922415179,0.147620904422163,0.681718354071549),(0.23885564080506,-0.442862713266489,0.864187826837342),(0.5,-0.309016994374947,0.809016994374947),(0.716566922415179,-0.147620904422163,0.681718354071549),(-0.23885564080506,-0.442862713266489,0.864187826837342),(-0.5,-0.309016994374947,0.809016994374947),(-0.716566922415179,-0.147620904422163,0.681718354071549),(-0.147620904422163,-0.681718354071549,0.716566922415179),(-0.309016994374947,-0.809016994374947,0.5),(-0.442862713266489,-0.864187826837342,0.23885564080506),(0.147620904422163,-0.681718354071549,0.716566922415179),(0.309016994374947,-0.809016994374947,0.5),(0.442862713266489,-0.864187826837342,0.23885564080506),(0.295241808844326,0.955422563220238,0.),(0.,1.,0.),(-0.295241808844326,0.955422563220238,0.),(0.681718354071549,0.716566922415179,0.147620904422163),(0.809016994374947,0.5,0.309016994374947),(0.864187826837342,0.23885564080506,0.442862713266489),(0.442862713266489,0.864187826837342,-0.23885564080506),(0.309016994374947,0.809016994374947,-0.5),(0.147620904422163,0.681718354071549,-0.716566922415179),(0.681718354071549,0.716566922415179,-0.147620904422163),(0.809016994374947,0.5,-0.309016994374947),(0.864187826837342,0.23885564080506,-0.442862713266489),(-0.681718354071549,0.716566922415179,0.147620904422163),(-0.809016994374947,0.5,0.309016994374947),(-0.864187826837342,0.23885564080506,0.442862713266489),(-0.442862713266489,0.864187826837342,-0.23885564080506),(-0.309016994374947,0.809016994374947,-0.5),(-0.147620904422163,0.681718354071549,-0.716566922415179),(-0.681718354071549,0.716566922415179,-0.147620904422163),(-0.809016994374947,0.5,-0.309016994374947),(-0.864187826837342,0.23885564080506,-0.442862713266489),(0.864187826837342,-0.23885564080506,0.442862713266489),(0.809016994374947,-0.5,0.309016994374947),(0.681718354071549,-0.716566922415179,0.147620904422163),(0.955422563220238,0.,0.295241808844326),(1.,0.,0.),(0.955422563220238,0.,-0.295241808844326),(-0.864187826837342,-0.23885564080506,0.442862713266489),(-0.809016994374947,-0.5,0.309016994374947),(-0.681718354071549,-0.716566922415179,0.147620904422163),(-0.955422563220238,0.,0.295241808844326),(-1.,0.,0.),(-0.955422563220238,0.,-0.295241808844326),(-0.,-0.295241808844326,-0.955422563220238),(-0.,0.,-1.),(-0.,0.295241808844326,-0.955422563220238),(-0.147620904422163,-0.681718354071549,-0.716566922415179),(-0.309016994374947,-0.809016994374947,-0.5),(-0.442862713266489,-0.864187826837342,-0.23885564080506),(0.147620904422163,-0.681718354071549,-0.716566922415179),(0.309016994374947,-0.809016994374947,-0.5),(0.442862713266489,-0.864187826837342,-0.23885564080506),(-0.23885564080506,-0.442862713266489,-0.864187826837342),(-0.5,-0.309016994374947,-0.809016994374947),(-0.716566922415179,-0.147620904422163,-0.681718354071549),(0.23885564080506,-0.442862713266489,-0.864187826837342),(0.5,-0.309016994374947,-0.809016994374947),(0.716566922415179,-0.147620904422163,-0.681718354071549),(-0.23885564080506,0.442862713266489,-0.864187826837342),(-0.5,0.309016994374947,-0.809016994374947),(-0.716566922415179,0.147620904422163,-0.681718354071549),(0.23885564080506,0.442862713266489,-0.864187826837342),(0.5,0.309016994374947,-0.809016994374947),(0.716566922415179,0.147620904422163,-0.681718354071549),(-0.295241808844326,-0.955422563220238,-0.),(0.,-1.,-0.),(0.295241808844326,-0.955422563220238,-0.),(-0.681718354071549,-0.716566922415179,-0.147620904422163),(-0.809016994374947,-0.5,-0.309016994374947),(-0.864187826837342,-0.23885564080506,-0.442862713266489),(0.681718354071549,-0.716566922415179,-0.147620904422163),(0.809016994374947,-0.5,-0.309016994374947),(0.864187826837342,-0.23885564080506,-0.442862713266489),(-0.262865556059567,0.162459848116453,0.951056516295154),(-0.525731112119134,-3.43077782155529E-17,0.85065080835204),(-0.262865556059567,-0.162459848116453,0.951056516295154),(-0.42532540417602,0.587785252292473,0.688190960235587),(-0.587785252292473,0.688190960235587,0.42532540417602),(-0.688190960235587,0.42532540417602,0.587785252292473),(0.,0.85065080835204,0.525731112119134),(0.162459848116453,0.951056516295154,0.262865556059567),(-0.162459848116453,0.951056516295154,0.262865556059567),(0.42532540417602,0.587785252292473,0.688190960235587),(0.688190960235587,0.42532540417602,0.587785252292473),(0.587785252292473,0.688190960235587,0.42532540417602),(0.262865556059567,0.162459848116453,0.951056516295154),(0.262865556059567,-0.162459848116453,0.951056516295154),(0.525731112119134,-3.43077782155529E-17,0.85065080835204),(-0.42532540417602,-0.587785252292473,0.688190960235587),(-0.688190960235587,-0.42532540417602,0.587785252292473),(-0.587785252292473,-0.688190960235587,0.42532540417602),(-0.951056516295154,0.262865556059567,0.162459848116453),(-0.85065080835204,0.525731112119134,-3.43077782155529E-17),(-0.951056516295154,0.262865556059567,-0.162459848116453),(-0.162459848116453,0.951056516295154,-0.262865556059567),(0.162459848116453,0.951056516295154,-0.262865556059567),(3.43077782155529E-17,0.85065080835204,-0.525731112119134),(0.85065080835204,0.525731112119134,0.),(0.951056516295154,0.262865556059567,0.162459848116453),(0.951056516295154,0.262865556059567,-0.162459848116453),(0.688190960235587,-0.42532540417602,0.587785252292473),(0.42532540417602,-0.587785252292473,0.688190960235587),(0.587785252292473,-0.688190960235587,0.42532540417602),(0.262865556059567,0.162459848116453,-0.951056516295154),(0.525731112119134,-3.43077782155529E-17,-0.85065080835204),(0.262865556059567,-0.162459848116453,-0.951056516295154),(0.688190960235587,-0.42532540417602,-0.587785252292473),(0.587785252292473,-0.688190960235587,-0.42532540417602),(0.42532540417602,-0.587785252292473,-0.688190960235587),(0.162459848116453,-0.951056516295154,-0.262865556059567),(-0.162459848116453,-0.951056516295154,-0.262865556059567),(-3.43077782155529E-17,-0.85065080835204,-0.525731112119134),(-0.587785252292473,-0.688190960235587,-0.42532540417602),(-0.688190960235587,-0.42532540417602,-0.587785252292473),(-0.42532540417602,-0.587785252292473,-0.688190960235587),(-0.525731112119134,0.,-0.85065080835204),(-0.262865556059567,0.162459848116453,-0.951056516295154),(-0.262865556059567,-0.162459848116453,-0.951056516295154),(0.587785252292473,0.688190960235587,-0.42532540417602),(0.688190960235587,0.42532540417602,-0.587785252292473),(0.42532540417602,0.587785252292473,-0.688190960235587),(0.951056516295154,-0.262865556059567,0.162459848116453),(0.85065080835204,-0.525731112119134,-3.43077782155529E-17),(0.951056516295154,-0.262865556059567,-0.162459848116453),(0.,-0.85065080835204,0.525731112119134),(-0.162459848116453,-0.951056516295154,0.262865556059567),(0.162459848116453,-0.951056516295154,0.262865556059567),(-0.951056516295154,-0.262865556059567,0.162459848116453),(-0.951056516295154,-0.262865556059567,-0.162459848116453),(-0.85065080835204,-0.525731112119134,-3.43077782155529E-17),(-0.587785252292473,0.688190960235587,-0.42532540417602),(-0.42532540417602,0.587785252292473,-0.688190960235587),(-0.688190960235587,0.42532540417602,-0.587785252292473)));
#550=IFCINDEXEDPOLYGONALFACE((1,25,13));
#551=IFCINDEXEDPOLYGONALFACE((25,26,103));
#552=IFCINDEXEDPOLYGONALFACE((25,103,13));
#553=IFCINDEXEDPOLYGONALFACE((13,103,14));
#554=IFCINDEXEDPOLYGONALFACE((26,27,104));
#555=IFCINDEXEDPOLYGONALFACE((26,104,103));
#556=IFCINDEXEDPOLYGONALFACE((103,104,105));
#557=IFCINDEXEDPOLYGONALFACE((103,105,14));
#558=IFCINDEXEDPOLYGONALFACE((14,105,15));
#559=IFCINDEXEDPOLYGONALFACE((27,6,33));
#560=IFCINDEXEDPOLYGONALFACE((27,33,104));
#561=IFCINDEXEDPOLYGONALFACE((104,33,32));
#562=IFCINDEXEDPOLYGONALFACE((104,32,105));
#563=IFCINDEXEDPOLYGONALFACE((105,32,31));
#564=IFCINDEXEDPOLYGONALFACE((105,31,15));
#565=IFCINDEXEDPOLYGONALFACE((15,31,2));
#566=IFCINDEXEDPOLYGONALFACE((1,19,25));
#567=IFCINDEXEDPOLYGONALFACE((19,20,106));
#568=IFCINDEXEDPOLYGONALFACE((19,106,25));
#569=IFCINDEXEDPOLYGONALFACE((25,106,26));
#570=IFCINDEXEDPOLYGONALFACE((20,21,107));
#571=IFCINDEXEDPOLYGONALFACE((20,107,106));
#572=IFCINDEXEDPOLYGONALFACE((106,107,108));
#573=IFCINDEXEDPOLYGONALFACE((106,108,26));
#574=IFCINDEXEDPOLYGONALFACE((26,108,27));
#575=IFCINDEXEDPOLYGONALFACE((21,4,52));
#576=IFCINDEXEDPOLYGONALFACE((21,52,107));
#577=IFCINDEXEDPOLYGONALFACE((107,52,53));
#578=IFCINDEXEDPOLYGONALFACE((107,53,108));
#579=IFCINDEXEDPOLYGONALFACE((108,53,54));
#580=IFCINDEXEDPOLYGONALFACE((108,54,27));
#581=IFCINDEXEDPOLYGONALFACE((27,54,6));
#582=IFCINDEXEDPOLYGONALFACE((1,16,19));
#583=IFCINDEXEDPOLYGONALFACE((16,17,109));
#584=IFCINDEXEDPOLYGONALFACE((16,109,19));
#585=IFCINDEXEDPOLYGONALFACE((19,109,20));
#586=IFCINDEXEDPOLYGONALFACE((17,18,110));
#587=IFCINDEXEDPOLYGONALFACE((17,110,109));
#588=IFCINDEXEDPOLYGONALFACE((109,110,111));
#589=IFCINDEXEDPOLYGONALFACE((109,111,20));
#590=IFCINDEXEDPOLYGONALFACE((20,111,21));
#591=IFCINDEXEDPOLYGONALFACE((18,3,40));
#592=IFCINDEXEDPOLYGONALFACE((18,40,110));
#593=IFCINDEXEDPOLYGONALFACE((110,40,41));
#594=IFCINDEXEDPOLYGONALFACE((110,41,111));
#595=IFCINDEXEDPOLYGONALFACE((111,41,42));
#596=IFCINDEXEDPOLYGONALFACE((111,42,21));
#597=IFCINDEXEDPOLYGONALFACE((21,42,4));
#598=IFCINDEXEDPOLYGONALFACE((1,22,16));
#599=IFCINDEXEDPOLYGONALFACE((22,23,112));
#600=IFCINDEXEDPOLYGONALFACE((22,112,16));
#601=IFCINDEXEDPOLYGONALFACE((16,112,17));
#602=IFCINDEXEDPOLYGONALFACE((23,24,113));
#603=IFCINDEXEDPOLYGONALFACE((23,113,112));
#604=IFCINDEXEDPOLYGONALFACE((112,113,114));
#605=IFCINDEXEDPOLYGONALFACE((112,114,17));
#606=IFCINDEXEDPOLYGONALFACE((17,114,18));
#607=IFCINDEXEDPOLYGONALFACE((24,5,45));
#608=IFCINDEXEDPOLYGONALFACE((24,45,113));
#609=IFCINDEXEDPOLYGONALFACE((113,45,44));
#610=IFCINDEXEDPOLYGONALFACE((113,44,114));
#611=IFCINDEXEDPOLYGONALFACE((114,44,43));
#612=IFCINDEXEDPOLYGONALFACE((114,43,18));
#613=IFCINDEXEDPOLYGONALFACE((18,43,3));
#614=IFCINDEXEDPOLYGONALFACE((1,13,22));
#615=IFCINDEXEDPOLYGONALFACE((13,14,115));
#616=IFCINDEXEDPOLYGONALFACE((13,115,22));
#617=IFCINDEXEDPOLYGONALFACE((22,115,23));
#618=IFCINDEXEDPOLYGONALFACE((14,15,116));
#619=IFCINDEXEDPOLYGONALFACE((14,116,115));
#620=IFCINDEXEDPOLYGONALFACE((115,116,117));
#621=IFCINDEXEDPOLYGONALFACE((115,117,23));
#622=IFCINDEXEDPOLYGONALFACE((23,117,24));
#623=IFCINDEXEDPOLYGONALFACE((15,2,28));
#624=IFCINDEXEDPOLYGONALFACE((15,28,116));
#625=IFCINDEXEDPOLYGONALFACE((116,28,29));
#626=IFCINDEXEDPOLYGONALFACE((116,29,117));
#627=IFCINDEXEDPOLYGONALFACE((117,29,30));
#628=IFCINDEXEDPOLYGONALFACE((117,30,24));
#629=IFCINDEXEDPOLYGONALFACE((24,30,5));
#630=IFCINDEXEDPOLYGONALFACE((2,31,34));
#631=IFCINDEXEDPOLYGONALFACE((31,32,118));
#632=IFCINDEXEDPOLYGONALFACE((31,118,34));
#633=IFCINDEXEDPOLYGONALFACE((34,118,35));
#634=IFCINDEXEDPOLYGONALFACE((32,33,119));
#635=IFCINDEXEDPOLYGONALFACE((32,119,118));
#636=IFCINDEXEDPOLYGONALFACE((118,119,120));
#637=IFCINDEXEDPOLYGONALFACE((118,120,35));
#638=IFCINDEXEDPOLYGONALFACE((35,120,36));
#639=IFCINDEXEDPOLYGONALFACE((33,6,67));
#640=IFCINDEXEDPOLYGONALFACE((33,67,119));
#641=IFCINDEXEDPOLYGONALFACE((119,67,68));
#642=IFCINDEXEDPOLYGONALFACE((119,68,120));
#643=IFCINDEXEDPOLYGONALFACE((120,68,69));
#644=IFCINDEXEDPOLYGONALFACE((120,69,36));
#645=IFCINDEXEDPOLYGONALFACE((36,69,9));
#646=IFCINDEXEDPOLYGONALFACE((6,54,70));
#647=IFCINDEXEDPOLYGONALFACE((54,53,121));
#648=IFCINDEXEDPOLYGONALFACE((54,121,70));
#649=IFCINDEXEDPOLYGONALFACE((70,121,71));
#650=IFCINDEXEDPOLYGONALFACE((53,52,122));
#651=IFCINDEXEDPOLYGONALFACE((53,122,121));
#652=IFCINDEXEDPOLYGONALFACE((121,122,123));
#653=IFCINDEXEDPOLYGONALFACE((121,123,71));
#654=IFCINDEXEDPOLYGONALFACE((71,123,72));
#655=IFCINDEXEDPOLYGONALFACE((52,4,58));
#656=IFCINDEXEDPOLYGONALFACE((52,58,122));
#657=IFCINDEXEDPOLYGONALFACE((122,58,59));
#658=IFCINDEXEDPOLYGONALFACE((122,59,123));
#659=IFCINDEXEDPOLYGONALFACE((123,59,60));
#660=IFCINDEXEDPOLYGONALFACE((123,60,72));
#661=IFCINDEXEDPOLYGONALFACE((72,60,11));
#662=IFCINDEXEDPOLYGONALFACE((4,42,55));
#663=IFCINDEXEDPOLYGONALFACE((42,41,124));
#664=IFCINDEXEDPOLYGONALFACE((42,124,55));
#665=IFCINDEXEDPOLYGONALFACE((55,124,56));
#666=IFCINDEXEDPOLYGONALFACE((41,40,125));
#667=IFCINDEXEDPOLYGONALFACE((41,125,124));
#668=IFCINDEXEDPOLYGONALFACE((124,125,126));
#669=IFCINDEXEDPOLYGONALFACE((124,126,56));
#670=IFCINDEXEDPOLYGONALFACE((56,126,57));
#671=IFCINDEXEDPOLYGONALFACE((40,3,46));
#672=IFCINDEXEDPOLYGONALFACE((40,46,125));
#673=IFCINDEXEDPOLYGONALFACE((125,46,47));
#674=IFCINDEXEDPOLYGONALFACE((125,47,126));
#675=IFCINDEXEDPOLYGONALFACE((126,47,48));
#676=IFCINDEXEDPOLYGONALFACE((126,48,57));
#677=IFCINDEXEDPOLYGONALFACE((57,48,8));
#678=IFCINDEXEDPOLYGONALFACE((3,43,49));
#679=IFCINDEXEDPOLYGONALFACE((43,44,127));
#680=IFCINDEXEDPOLYGONALFACE((43,127,49));
#681=IFCINDEXEDPOLYGONALFACE((49,127,50));
#682=IFCINDEXEDPOLYGONALFACE((44,45,128));
#683=IFCINDEXEDPOLYGONALFACE((44,128,127));
#684=IFCINDEXEDPOLYGONALFACE((127,128,129));
#685=IFCINDEXEDPOLYGONALFACE((127,129,50));
#686=IFCINDEXEDPOLYGONALFACE((50,129,51));
#687=IFCINDEXEDPOLYGONALFACE((45,5,64));
#688=IFCINDEXEDPOLYGONALFACE((45,64,128));
#689=IFCINDEXEDPOLYGONALFACE((128,64,65));
#690=IFCINDEXEDPOLYGONALFACE((128,65,129));
#691=IFCINDEXEDPOLYGONALFACE((129,65,66));
#692=IFCINDEXEDPOLYGONALFACE((129,66,51));
#693=IFCINDEXEDPOLYGONALFACE((51,66,12));
#694=IFCINDEXEDPOLYGONALFACE((5,30,61));
#695=IFCINDEXEDPOLYGONALFACE((30,29,130));
#696=IFCINDEXEDPOLYGONALFACE((30,130,61));
#697=IFCINDEXEDPOLYGONALFACE((61,130,62));
#698=IFCINDEXEDPOLYGONALFACE((29,28,131));
#699=IFCINDEXEDPOLYGONALFACE((29,131,130));
#700=IFCINDEXEDPOLYGONALFACE((130,131,132));
#701=IFCINDEXEDPOLYGONALFACE((130,132,62));
#702=IFCINDEXEDPOLYGONALFACE((62,132,63));
#703=IFCINDEXEDPOLYGONALFACE((28,2,37));
#704=IFCINDEXEDPOLYGONALFACE((28,37,131));
#705=IFCINDEXEDPOLYGONALFACE((131,37,38));
#706=IFCINDEXEDPOLYGONALFACE((131,38,132));
#707=IFCINDEXEDPOLYGONALFACE((132,38,39));
#708=IFCINDEXEDPOLYGONALFACE((132,39,63));
#709=IFCINDEXEDPOLYGONALFACE((63,39,10));
#710=IFCINDEXEDPOLYGONALFACE((8,91,75));
#711=IFCINDEXEDPOLYGONALFACE((91,92,133));
#712=IFCINDEXEDPOLYGONALFACE((91,133,75));
#713=IFCINDEXEDPOLYGONALFACE((75,133,74));
#714=IFCINDEXEDPOLYGONALFACE((92,93,134));
#715=IFCINDEXEDPOLYGONALFACE((92,134,133));
#716=IFCINDEXEDPOLYGONALFACE((133,134,135));
#717=IFCINDEXEDPOLYGONALFACE((133,135,74));
#718=IFCINDEXEDPOLYGONALFACE((74,135,73));
#719=IFCINDEXEDPOLYGONALFACE((93,12,87));
#720=IFCINDEXEDPOLYGONALFACE((93,87,134));
#721=IFCINDEXEDPOLYGONALFACE((134,87,86));
#722=IFCINDEXEDPOLYGONALFACE((134,86,135));
#723=IFCINDEXEDPOLYGONALFACE((135,86,85));
#724=IFCINDEXEDPOLYGONALFACE((135,85,73));
#725=IFCINDEXEDPOLYGONALFACE((73,85,7));
#726=IFCINDEXEDPOLYGONALFACE((12,102,87));
#727=IFCINDEXEDPOLYGONALFACE((102,101,136));
#728=IFCINDEXEDPOLYGONALFACE((102,136,87));
#729=IFCINDEXEDPOLYGONALFACE((87,136,86));
#730=IFCINDEXEDPOLYGONALFACE((101,100,137));
#731=IFCINDEXEDPOLYGONALFACE((101,137,136));
#732=IFCINDEXEDPOLYGONALFACE((136,137,138));
#733=IFCINDEXEDPOLYGONALFACE((136,138,86));
#734=IFCINDEXEDPOLYGONALFACE((86,138,85));
#735=IFCINDEXEDPOLYGONALFACE((100,10,81));
#736=IFCINDEXEDPOLYGONALFACE((100,81,137));
#737=IFCINDEXEDPOLYGONALFACE((137,81,80));
#738=IFCINDEXEDPOLYGONALFACE((137,80,138));
#739=IFCINDEXEDPOLYGONALFACE((138,80,79));
#740=IFCINDEXEDPOLYGONALFACE((138,79,85));
#741=IFCINDEXEDPOLYGONALFACE((85,79,7));
#742=IFCINDEXEDPOLYGONALFACE((10,96,81));
#743=IFCINDEXEDPOLYGONALFACE((96,95,139));
#744=IFCINDEXEDPOLYGONALFACE((96,139,81));
#745=IFCINDEXEDPOLYGONALFACE((81,139,80));
#746=IFCINDEXEDPOLYGONALFACE((95,94,140));
#747=IFCINDEXEDPOLYGONALFACE((95,140,139));
#748=IFCINDEXEDPOLYGONALFACE((139,140,141));
#749=IFCINDEXEDPOLYGONALFACE((139,141,80));
#750=IFCINDEXEDPOLYGONALFACE((80,141,79));
#751=IFCINDEXEDPOLYGONALFACE((94,9,78));
#752=IFCINDEXEDPOLYGONALFACE((94,78,140));
#753=IFCINDEXEDPOLYGONALFACE((140,78,77));
#754=IFCINDEXEDPOLYGONALFACE((140,77,141));
#755=IFCINDEXEDPOLYGONALFACE((141,77,76));
#756=IFCINDEXEDPOLYGONALFACE((141,76,79));
#757=IFCINDEXEDPOLYGONALFACE((79,76,7));
#758=IFCINDEXEDPOLYGONALFACE((9,97,78));
#759=IFCINDEXEDPOLYGONALFACE((97,98,142));
#760=IFCINDEXEDPOLYGONALFACE((97,142,78));
#761=IFCINDEXEDPOLYGONALFACE((78,142,77));
#762=IFCINDEXEDPOLYGONALFACE((98,99,143));
#763=IFCINDEXEDPOLYGONALFACE((98,143,142));
#764=IFCINDEXEDPOLYGONALFACE((142,143,144));
#765=IFCINDEXEDPOLYGONALFACE((142,144,77));
#766=IFCINDEXEDPOLYGONALFACE((77,144,76));
#767=IFCINDEXEDPOLYGONALFACE((99,11,84));
#768=IFCINDEXEDPOLYGONALFACE((99,84,143));
#769=IFCINDEXEDPOLYGONALFACE((143,84,83));
#770=IFCINDEXEDPOLYGONALFACE((143,83,144));
#771=IFCINDEXEDPOLYGONALFACE((144,83,82));
#772=IFCINDEXEDPOLYGONALFACE((144,82,76));
#773=IFCINDEXEDPOLYGONALFACE((76,82,7));
#774=IFCINDEXEDPOLYGONALFACE((11,90,84));
#775=IFCINDEXEDPOLYGONALFACE((90,89,145));
#776=IFCINDEXEDPOLYGONALFACE((90,145,84));
#777=IFCINDEXEDPOLYGONALFACE((84,145,83));
#778=IFCINDEXEDPOLYGONALFACE((89,88,146));
#779=IFCINDEXEDPOLYGONALFACE((89,146,145));
#780=IFCINDEXEDPOLYGONALFACE((145,146,147));
#781=IFCINDEXEDPOLYGONALFACE((145,147,83));
#782=IFCINDEXEDPOLYGONALFACE((83,147,82));
#783=IFCINDEXEDPOLYGONALFACE((88,8,75));
#784=IFCINDEXEDPOLYGONALFACE((88,75,146));
#785=IFCINDEXEDPOLYGONALFACE((146,75,74));
#786=IFCINDEXEDPOLYGONALFACE((146,74,147));
#787=IFCINDEXEDPOLYGONALFACE((147,74,73));
#788=IFCINDEXEDPOLYGONALFACE((147,73,82));
#789=IFCINDEXEDPOLYGONALFACE((82,73,7));
#790=IFCINDEXEDPOLYGONALFACE((3,49,46));
#791=IFCINDEXEDPOLYGONALFACE((49,50,148));
#792=IFCINDEXEDPOLYGONALFACE((49,148,46));
#793=IFCINDEXEDPOLYGONALFACE((46,148,47));
#794=IFCINDEXEDPOLYGONALFACE((50,51,149));
#795=IFCINDEXEDPOLYGONALFACE((50,149,148));
#796=IFCINDEXEDPOLYGONALFACE((148,149,150));
#797=IFCINDEXEDPOLYGONALFACE((148,150,47));
#798=IFCINDEXEDPOLYGONALFACE((47,150,48));
#799=IFCINDEXEDPOLYGONALFACE((51,12,93));
#800=IFCINDEXEDPOLYGONALFACE((51,93,149));
#801=IFCINDEXEDPOLYGONALFACE((149,93,92));
#802=IFCINDEXEDPOLYGONALFACE((149,92,150));
#803=IFCINDEXEDPOLYGONALFACE((150,92,91));
#804=IFCINDEXEDPOLYGONALFACE((150,91,48));
#805=IFCINDEXEDPOLYGONALFACE((48,91,8));
#806=IFCINDEXEDPOLYGONALFACE((5,61,64));
#807=IFCINDEXEDPOLYGONALFACE((61,62,151));
#808=IFCINDEXEDPOLYGONALFACE((61,151,64));
#809=IFCINDEXEDPOLYGONALFACE((64,151,65));
#810=IFCINDEXEDPOLYGONALFACE((62,63,152));
#811=IFCINDEXEDPOLYGONALFACE((62,152,151));
#812=IFCINDEXEDPOLYGONALFACE((151,152,153));
#813=IFCINDEXEDPOLYGONALFACE((151,153,65));
#814=IFCINDEXEDPOLYGONALFACE((65,153,66));
#815=IFCINDEXEDPOLYGONALFACE((63,10,100));
#816=IFCINDEXEDPOLYGONALFACE((63,100,152));
#817=IFCINDEXEDPOLYGONALFACE((152,100,101));
#818=IFCINDEXEDPOLYGONALFACE((152,101,153));
#819=IFCINDEXEDPOLYGONALFACE((153,101,102));
#820=IFCINDEXEDPOLYGONALFACE((153,102,66));
#821=IFCINDEXEDPOLYGONALFACE((66,102,12));
#822=IFCINDEXEDPOLYGONALFACE((2,34,37));
#823=IFCINDEXEDPOLYGONALFACE((34,35,154));
#824=IFCINDEXEDPOLYGONALFACE((34,154,37));
#825=IFCINDEXEDPOLYGONALFACE((37,154,38));
#826=IFCINDEXEDPOLYGONALFACE((35,36,155));
#827=IFCINDEXEDPOLYGONALFACE((35,155,154));
#828=IFCINDEXEDPOLYGONALFACE((154,155,156));
#829=IFCINDEXEDPOLYGONALFACE((154,156,38));
#830=IFCINDEXEDPOLYGONALFACE((38,156,39));
#831=IFCINDEXEDPOLYGONALFACE((36,9,94));
#832=IFCINDEXEDPOLYGONALFACE((36,94,155));
#833=IFCINDEXEDPOLYGONALFACE((155,94,95));
#834=IFCINDEXEDPOLYGONALFACE((155,95,156));
#835=IFCINDEXEDPOLYGONALFACE((156,95,96));
#836=IFCINDEXEDPOLYGONALFACE((156,96,39));
#837=IFCINDEXEDPOLYGONALFACE((39,96,10));
#838=IFCINDEXEDPOLYGONALFACE((6,70,67));
#839=IFCINDEXEDPOLYGONALFACE((70,71,157));
#840=IFCINDEXEDPOLYGONALFACE((70,157,67));
#841=IFCINDEXEDPOLYGONALFACE((67,157,68));
#842=IFCINDEXEDPOLYGONALFACE((71,72,158));
#843=IFCINDEXEDPOLYGONALFACE((71,158,157));
#844=IFCINDEXEDPOLYGONALFACE((157,158,159));
#845=IFCINDEXEDPOLYGONALFACE((157,159,68));
#846=IFCINDEXEDPOLYGONALFACE((68,159,69));
#847=IFCINDEXEDPOLYGONALFACE((72,11,99));
#848=IFCINDEXEDPOLYGONALFACE((72,99,158));
#849=IFCINDEXEDPOLYGONALFACE((158,99,98));
#850=IFCINDEXEDPOLYGONALFACE((158,98,159));
#851=IFCINDEXEDPOLYGONALFACE((159,98,97));
#852=IFCINDEXEDPOLYGONALFACE((159,97,69));
#853=IFCINDEXEDPOLYGONALFACE((69,97,9));
#854=IFCINDEXEDPOLYGONALFACE((4,55,58));
#855=IFCINDEXEDPOLYGONALFACE((55,56,160));
#856=IFCINDEXEDPOLYGONALFACE((55,160,58));
#857=IFCINDEXEDPOLYGONALFACE((58,160,59));
#858=IFCINDEXEDPOLYGONALFACE((56,57,161));
#859=IFCINDEXEDPOLYGONALFACE((56,161,160));
#860=IFCINDEXEDPOLYGONALFACE((160,161,162));
#861=IFCINDEXEDPOLYGONALFACE((160,162,59));
#862=IFCINDEXEDPOLYGONALFACE((59,162,60));
#863=IFCINDEXEDPOLYGONALFACE((57,8,88));
#864=IFCINDEXEDPOLYGONALFACE((57,88,161));
#865=IFCINDEXEDPOLYGONALFACE((161,88,89));
#866=IFCINDEXEDPOLYGONALFACE((161,89,162));
#867=IFCINDEXEDPOLYGONALFACE((162,89,90));
#868=IFCINDEXEDPOLYGONALFACE((162,90,60));
#869=IFCINDEXEDPOLYGONALFACE((60,90,11));
#870=IFCPOLYGONALFACESET(#549,$,(#550,#551,#552,#553,#554,#555,#556,#557,#558,#559,#560,#561,#562,#563,#564,#565,#566,#567,#568,#569,#570,#571,#572,#573,#574,#575,#576,#577,#578,#579,#580,#581,#582,#583,#584,#585,#586,#587,#588,#589,#590,#591,#592,#593,#594,#595,#596,#597,#598,#599,#600,#601,#602,#603,#604,#605,#606,#607,#608,#609,#610,#611,#612,#613,#614,#615,#616,#617,#618,#619,#620,#621,#622,#623,#624,#625,#626,#627,#628,#629,#630,#631,#632,#633,#634,#635,#636,#637,#638,#639,#640,#641,#642,#643,#644,#645,#646,#647,#648,#649,#650,#651,#652,#653,#654,#655,#656,#657,#658,#659,#660,#661,#662,#663,#664,#665,#666,#667,#668,#669,#670,#671,#672,#673,#674,#675,#676,#677,#678,#679,#680,#681,#682,#683,#684,#685,#686,#687,#688,#689,#690,#691,#692,#693,#694,#695,#696,#697,#698,#699,#700,#701,#702,#703,#704,#705,#706,#707,#708,#709,#710,#711,#712,#713,#714,#715,#716,#717,#718,#719,#720,#721,#722,#723,#724,#725,#726,#727,#728,#729,#730,#731,#732,#733,#734,#735,#736,#737,#738,#739,#740,#741,#742,#743,#744,#745,#746,#747,#748,#749,#750,#751,#752,#753,#754,#755,#756,#757,#758,#759,#760,#761,#762,#763,#764,#765,#766,#767,#768,#769,#770,#771,#772,#773,#774,#775,#776,#777,#778,#779,#780,#781,#782,#783,#784,#785,#786,#787,#788,#789,#790,#791,#792,#793,#794,#795,#796,#797,#798,#799,#800,#801,#802,#803,#804,#805,#806,#807,#808,#809,#810,#811,#812,#813,#814,#815,#816,#817,#818,#819,#820,#821,#822,#823,#824,#825,#826,#827,#828,#829,#830,#831,#832,#833,#834,#835,#836,#837,#838,#839,#840,#841,#842,#843,#844,#845,#846,#847,#848,#849,#850,#851,#852,#853,#854,#855,#856,#857,#858,#859,#860,#861,#862,#863,#864,#865,#866,#867,#868,#869),$);
#871=IFCSHAPEREPRESENTATION(#18,'Body','Tessellation',(#870));
#872=IFCPRODUCTDEFINITIONSHAPE($,$,(#871));
#873=IFCSURFACESTYLE('Style',.BOTH.,(#874));
#874=IFCSURFACESTYLESHADING(#875,0.);
#875=IFCCOLOURRGB($,0.22,0.55,0.26);
#876=IFCSTYLEDITEM(#870,(#873),'Style');
#882=IFCRELAGGREGATES('1TioAw30L9Ov0NMWCGCfQ9',$,$,$,#516,(#517,#548));
#883=IFCCARTESIANPOINT((558502.19,5927596.83,0.));
#884=IFCDIRECTION((0.,0.,1.));
#885=IFCDIRECTION((1.,0.,0.));
#886=IFCAXIS2PLACEMENT3D(#883,#884,#885);
#887=IFCLOCALPLACEMENT($,#886);
#888=IFCCARTESIANPOINT((558502.19,5927596.83,17.));
#889=IFCDIRECTION((0.,0.,1.));
#890=IFCDIRECTION((1.,0.,0.));
#891=IFCAXIS2PLACEMENT3D(#888,#889,#890);
#892=IFCLOCALPLACEMENT($,#891);
#893=IFCPROPERTYSET('1EgiGi2YX3agUpJBRSpxkM',$,'Pset_DGM',$,(#895,#896,#897));
#894=IFCRELDEFINESBYPROPERTIES('3ybrNqWY1BPxftHtcsz0RK',$,$,$,(#516),#893);
#895=IFCPROPERTYSINGLEVALUE('strasse',$,IFCLABEL('Birkenweg'),$);
#896=IFCPROPERTYSINGLEVALUE('stadtteil',$,IFCLABEL('Demo-Stadtteil'),$);
#897=IFCPROPERTYSINGLEVALUE('bezirk',$,IFCLABEL('Harburg'),$);
#898=IFCPROPERTYSET('1ZiaifhlPFvRDtK2vObMvQ',$,'Pset_Objektinformation',$,(#900,#901,#902,#903,#904,#905,#906,#907));
#899=IFCRELDEFINESBYPROPERTIES('1r2Na3sCL1jghAZBlsxbLz',$,$,$,(#516),#898);
#900=IFCPROPERTYSINGLEVALUE('baumnummer',$,IFCLABEL('100004'),$);
#901=IFCPROPERTYSINGLEVALUE('gattung_deutsch',$,IFCLABEL('Birke'),$);
#902=IFCPROPERTYSINGLEVALUE('baumid',$,IFCINTEGER(4),$);
#903=IFCPROPERTYSINGLEVALUE('art_deutsch',$,IFCLABEL('H\X2\00E4\X0\nge-Birke'),$);
#904=IFCPROPERTYSINGLEVALUE('sorte_deutsch',$,IFCLABEL('H\X2\00E4\X0\nge-Birke'),$);
#905=IFCPROPERTYSINGLEVALUE('pflanzjahr',$,IFCINTEGER(1995),$);
#906=IFCPROPERTYSINGLEVALUE('kronendurchmesser',$,IFCREAL(2.),$);
#907=IFCPROPERTYSINGLEVALUE('stammumfang',$,IFCREAL(0.45),$);
ENDSEC;
END-ISO-10303-21;
