ISO-10303-21;
HEADER;
FILE_DESCRIPTION(('ViewDefinition [CoordinationView]'),'2;1');
FILE_NAME('','2025-05-29T20:26:45',(''),(''),'IfcOpenShell 0.8.0','IfcOpenShell 0.8.0','');
FILE_SCHEMA(('IFC4'));
ENDSEC;
DATA;
#1=IFCPROJECT('0BaDyIo9T7kQQ5twconTP6',$,'Default_Projektname',$,$,$,$,(#13,#17),#8);
#2=IFCSITE('3LokDIuSL8rg4qHfTNg31H',$,'Default_Site',$,$,$,$,$,$,$,$,$,$,$);
#3=IFCRELAGGREGATES('2DmzN4dVrFbxDd6Mb2EmkZ',$,$,$,#1,(#2));
#4=IFCBUILDING('1UTmFsYevAv9HPxWp1u9Vh',$,'Default_Gebaeude',$,$,$,$,$,$,$,$,$);
#5=IFCRELAGGREGATES('1Vb5uwqPfAKxhPDYmXEbHb',$,$,$,#2,(#4));
#6=IFCSIUNIT(*,.LENGTHUNIT.,$,.METRE.);
#7=IFCSIUNIT(*,.AREAUNIT.,$,.SQUARE_METRE.);
#8=IFCUNITASSIGNMENT((#7,#6));
#9=IFCCARTESIANPOINT((0.,0.,0.));
#10=IFCDIRECTION((0.,0.,1.));
#11=IFCDIRECTION((1.,0.,0.));
#12=IFCAXIS2PLACEMENT3D(#9,#10,#11);
#13=IFCGEOMETRICREPRESENTATIONCONTEXT($,'Model',3,1.E-05,#12,$);
#14=IFCCARTESIANPOINT((0.,0.));
#15=IFCDIRECTION((1.,0.));
#16=IFCAXIS2PLACEMENT2D(#14,#15);
#17=IFCGEOMETRICREPRESENTATIONCONTEXT($,'Plan',2,1.E-05,#16,$);
#18=IFCGEOMETRICREPRESENTATIONSUBCONTEXT('Body','Model',*,*,*,*,#13,$,.MODEL_VIEW.,$);
#19=IFCBUILDINGELEMENT('21DBD2R8nEmAaHIDdaboyk',$,'Baum_0001',$,$,$,$,$);
#20=IFCBUILDINGELEMENTPROXY('3puZRhmbr74gA_v$FRSJ5r',$,'Stamm_0001',$,$,#145,#36,$,$);
#21=IFCBUILDINGELEMENTPROXY('2xsQIh_ab4u920QwSkdbxy',$,'Krone_0001',$,$,#150,#129,$,$);
#22=IFCCARTESIANPOINTLIST3D(((0.2,0.,0.),(0.0618033988749895,0.190211303259031,0.),(-0.161803398874989,0.117557050458495,0.),(-0.16180339887499,-0.117557050458495,0.),(0.0618033988749895,-0.190211303259031,0.),(0.2,0.,5.),(0.0618033988749895,0.190211303259031,5.),(-0.161803398874989,0.117557050458495,5.),(-0.16180339887499,-0.117557050458495,5.),(0.0618033988749895,-0.190211303259031,5.)));
#23=IFCINDEXEDPOLYGONALFACE((1,2,6));
#24=IFCINDEXEDPOLYGONALFACE((2,7,6));
#25=IFCINDEXEDPOLYGONALFACE((2,3,7));
#26=IFCINDEXEDPOLYGONALFACE((3,8,7));
#27=IFCINDEXEDPOLYGONALFACE((3,4,8));
#28=IFCINDEXEDPOLYGONALFACE((4,9,8));
#29=IFCINDEXEDPOLYGONALFACE((4,5,9));
#30=IFCINDEXEDPOLYGONALFACE((5,10,9));
#31=IFCINDEXEDPOLYGONALFACE((5,1,10));
#32=IFCINDEXEDPOLYGONALFACE((1,6,10));
#33=IFCINDEXEDPOLYGONALFACE((5,4,3,2,1));
#34=IFCPOLYGONALFACESET(#22,$,(#23,#24,#25,#26,#27,#28,#29,#30,#31,#32,#33),$);
#35=IFCSHAPEREPRESENTATION(#18,'Body','Tessellation',(#34));
#36=IFCPRODUCTDEFINITIONSHAPE($,$,(#35));
#42=IFCSURFACESTYLE('Style',.BOTH.,(#43));
#43=IFCSURFACESTYLESHADING(#44,0.);
#44=IFCCOLOURRGB($,0.49,0.35,0.26);
#45=IFCSTYLEDITEM(#34,(#42),'Style');
#46=IFCCARTESIANPOINTLIST3D(((0.,1.05146222423827,1.70130161670408),(0.,-1.05146222423827,1.70130161670408),(1.05146222423827,1.70130161670408,0.),(-1.05146222423827,1.70130161670408,0.),(1.70130161670408,0.,1.05146222423827),(-1.70130161670408,0.,1.05146222423827),(-0.,-1.05146222423827,-1.70130161670408),(-0.,1.05146222423827,-1.70130161670408),(-1.05146222423827,-1.70130161670408,-0.),(1.05146222423827,-1.70130161670408,-0.),(-1.70130161670408,-0.,-1.05146222423827),(1.70130161670408,-0.,-1.05146222423827),(0.,0.,2.),(0.618033988749895,1.61803398874989,1.),(-0.618033988749895,1.61803398874989,1.),(1.,0.618033988749895,1.61803398874989),(-1.,0.618033988749895,1.61803398874989),(1.,-0.618033988749895,1.61803398874989),(-1.,-0.618033988749895,1.61803398874989),(-0.618033988749895,-1.61803398874989,1.),(0.618033988749895,-1.61803398874989,1.),(0.,2.,0.),(1.61803398874989,1.,0.618033988749895),(0.618033988749895,1.61803398874989,-1.),(1.61803398874989,1.,-0.618033988749895),(-1.61803398874989,1.,0.618033988749895),(-0.618033988749895,1.61803398874989,-1.),(-1.61803398874989,1.,-0.618033988749895),(1.61803398874989,-1.,0.618033988749895),(2.,0.,0.),(-1.61803398874989,-1.,0.618033988749895),(-2.,0.,0.),(-0.,0.,-2.),(-0.618033988749895,-1.61803398874989,-1.),(0.618033988749895,-1.61803398874989,-1.),(-1.,-0.618033988749895,-1.61803398874989),(1.,-0.618033988749895,-1.61803398874989),(-1.,0.618033988749895,-1.61803398874989),(1.,0.618033988749895,-1.61803398874989),(0.,-2.,-0.),(-1.61803398874989,-1.,-0.618033988749895),(1.61803398874989,-1.,-0.618033988749895)));
#47=IFCINDEXEDPOLYGONALFACE((1,17,13));
#48=IFCINDEXEDPOLYGONALFACE((17,6,19));
#49=IFCINDEXEDPOLYGONALFACE((17,19,13));
#50=IFCINDEXEDPOLYGONALFACE((13,19,2));
#51=IFCINDEXEDPOLYGONALFACE((1,15,17));
#52=IFCINDEXEDPOLYGONALFACE((15,4,26));
#53=IFCINDEXEDPOLYGONALFACE((15,26,17));
#54=IFCINDEXEDPOLYGONALFACE((17,26,6));
#55=IFCINDEXEDPOLYGONALFACE((1,14,15));
#56=IFCINDEXEDPOLYGONALFACE((14,3,22));
#57=IFCINDEXEDPOLYGONALFACE((14,22,15));
#58=IFCINDEXEDPOLYGONALFACE((15,22,4));
#59=IFCINDEXEDPOLYGONALFACE((1,16,14));
#60=IFCINDEXEDPOLYGONALFACE((16,5,23));
#61=IFCINDEXEDPOLYGONALFACE((16,23,14));
#62=IFCINDEXEDPOLYGONALFACE((14,23,3));
#63=IFCINDEXEDPOLYGONALFACE((1,13,16));
#64=IFCINDEXEDPOLYGONALFACE((13,2,18));
#65=IFCINDEXEDPOLYGONALFACE((13,18,16));
#66=IFCINDEXEDPOLYGONALFACE((16,18,5));
#67=IFCINDEXEDPOLYGONALFACE((2,19,20));
#68=IFCINDEXEDPOLYGONALFACE((19,6,31));
#69=IFCINDEXEDPOLYGONALFACE((19,31,20));
#70=IFCINDEXEDPOLYGONALFACE((20,31,9));
#71=IFCINDEXEDPOLYGONALFACE((6,26,32));
#72=IFCINDEXEDPOLYGONALFACE((26,4,28));
#73=IFCINDEXEDPOLYGONALFACE((26,28,32));
#74=IFCINDEXEDPOLYGONALFACE((32,28,11));
#75=IFCINDEXEDPOLYGONALFACE((4,22,27));
#76=IFCINDEXEDPOLYGONALFACE((22,3,24));
#77=IFCINDEXEDPOLYGONALFACE((22,24,27));
#78=IFCINDEXEDPOLYGONALFACE((27,24,8));
#79=IFCINDEXEDPOLYGONALFACE((3,23,25));
#80=IFCINDEXEDPOLYGONALFACE((23,5,30));
#81=IFCINDEXEDPOLYGONALFACE((23,30,25));
#82=IFCINDEXEDPOLYGONALFACE((25,30,12));
#83=IFCINDEXEDPOLYGONALFACE((5,18,29));
#84=IFCINDEXEDPOLYGONALFACE((18,2,21));
#85=IFCINDEXEDPOLYGONALFACE((18,21,29));
#86=IFCINDEXEDPOLYGONALFACE((29,21,10));
#87=IFCINDEXEDPOLYGONALFACE((8,39,33));
#88=IFCINDEXEDPOLYGONALFACE((39,12,37));
#89=IFCINDEXEDPOLYGONALFACE((39,37,33));
#90=IFCINDEXEDPOLYGONALFACE((33,37,7));
#91=IFCINDEXEDPOLYGONALFACE((12,42,37));
#92=IFCINDEXEDPOLYGONALFACE((42,10,35));
#93=IFCINDEXEDPOLYGONALFACE((42,35,37));
#94=IFCINDEXEDPOLYGONALFACE((37,35,7));
#95=IFCINDEXEDPOLYGONALFACE((10,40,35));
#96=IFCINDEXEDPOLYGONALFACE((40,9,34));
#97=IFCINDEXEDPOLYGONALFACE((40,34,35));
#98=IFCINDEXEDPOLYGONALFACE((35,34,7));
#99=IFCINDEXEDPOLYGONALFACE((9,41,34));
#100=IFCINDEXEDPOLYGONALFACE((41,11,36));
#101=IFCINDEXEDPOLYGONALFACE((41,36,34));
#102=IFCINDEXEDPOLYGONALFACE((34,36,7));
#103=IFCINDEXEDPOLYGONALFACE((11,38,36));
#104=IFCINDEXEDPOLYGONALFACE((38,8,33));
#105=IFCINDEXEDPOLYGONALFACE((38,33,36));
#106=IFCINDEXEDPOLYGONALFACE((36,33,7));
#107=IFCINDEXEDPOLYGONALFACE((3,25,24));
#108=IFCINDEXEDPOLYGONALFACE((25,12,39));
#109=IFCINDEXEDPOLYGONALFACE((25,39,24));
#110=IFCINDEXEDPOLYGONALFACE((24,39,8));
#111=IFCINDEXEDPOLYGONALFACE((5,29,30));
#112=IFCINDEXEDPOLYGONALFACE((29,10,42));
#113=IFCINDEXEDPOLYGONALFACE((29,42,30));
#114=IFCINDEXEDPOLYGONALFACE((30,42,12));
#115=IFCINDEXEDPOLYGONALFACE((2,20,21));
#116=IFCINDEXEDPOLYGONALFACE((20,9,40));
#117=IFCINDEXEDPOLYGONALFACE((20,40,21));
#118=IFCINDEXEDPOLYGONALFACE((21,40,10));
#119=IFCINDEXEDPOLYGONALFACE((6,32,31));
#120=IFCINDEXEDPOLYGONALFACE((32,11,41));
#121=IFCINDEXEDPOLYGONALFACE((32,41,31));
#122=IFCINDEXEDPOLYGONALFACE((31,41,9));
#123=IFCINDEXEDPOLYGONALFACE((4,27,28));
#124=IFCINDEXEDPOLYGONALFACE((27,8,38));
#125=IFCINDEXEDPOLYGONALFACE((27,38,28));
#126=IFCINDEXEDPOLYGONALFACE((28,38,11));
#127=IFCPOLYGONALFACESET(#46,$,(#47,#48,#49,#50,#51,#52,#53,#54,#55,#56,#57,#58,#59,#60,#61,#62,#63,#64,#65,#66,#67,#68,#69,#70,#71,#72,#73,#74,#75,#76,#77,#78,#79,#80,#81,#82,#83,#84,#85,#86,#87,#88,#89,#90,#91,#92,#93,#94,#95,#96,#97,#98,#99,#100,#101,#102,#103,#104,#105,#106,#107,#108,#109,#110,#111,#112,#113,#114,#115,#116,#117,#118,#119,#120,#121,#122,#123,#124,#125,#126),$);
#128=IFCSHAPEREPRESENTATION(#18,'Body','Tessellation',(#127));
#129=IFCPRODUCTDEFINITIONSHAPE($,$,(#128));
#130=IFCSURFACESTYLE('Style',.BOTH.,(#131));
#131=IFCSURFACESTYLESHADING(#132,0.);
#132=IFCCOLOURRGB($,0.22,0.55,0.26);
#133=IFCSTYLEDITEM(#127,(#130),'Style');
#139=IFCRELCONTAINEDINSPATIALSTRUCTURE('1cDPd7wZvCa8Ve3lX0WHx3',$,$,$,(#168,#19),#2);
#140=IFCRELAGGREGATES('1FM2cVr1fDjfqbCs6EqC7j',$,$,$,#19,(#20,#21));
#141=IFCCARTESIANPOINT((565524.31,5934365.08,0.));
#142=IFCDIRECTION((0.,0.,1.));
#143=IFCDIRECTION((1.,0.,0.));
#144=IFCAXIS2PLACEMENT3D(#141,#142,#143);
#145=IFCLOCALPLACEMENT($,#144);
#146=IFCCARTESIANPOINT((565524.31,5934365.08,5.));
#147=IFCDIRECTION((0.,-0.515038074910054,0.857167300702112));
#148=IFCDIRECTION((0.981627183447664,0.163555231516595,0.0982738976542571));
#149=IFCAXIS2PLACEMENT3D(#146,#147,#148);
#150=IFCLOCALPLACEMENT($,#149);
#151=IFCPROPERTYSET('2_rOXkTfHENgI7ZLs9ZI3$',$,'Pset_Objektinformation',$,(#153,#154,#155,#156,#157,#158,#159,#160,#161,#162,#163,#164,#165,#166,#167));
#152=IFCRELDEFINESBYPROPERTIES('2cuL54TDjFgOAcStZJNsGl',$,$,$,(#19),#151);
#153=IFCPROPERTYSINGLEVALUE('_Baumnummer',$,IFCLABEL('G072-1-1'),$);
#154=IFCPROPERTYSINGLEVALUE('_Gattung',$,IFCLABEL('Eiche'),$);
#155=IFCPROPERTYSINGLEVALUE('_BaumID',$,IFCLABEL('100388939'),$);
#156=IFCPROPERTYSINGLEVALUE('_ArtBaum',$,IFCLABEL('Sumpf-Eiche'),$);
#157=IFCPROPERTYSINGLEVALUE('_Sorte',$,IFCLABEL('Sumpf-Eiche'),$);
#158=IFCPROPERTYSINGLEVALUE('_Strasse',$,IFCLABEL('Gerhofstra\X2\00DF\X0\e'),$);
#159=IFCPROPERTYSINGLEVALUE('_Stadtteil',$,IFCLABEL('Neustadt'),$);
#160=IFCPROPERTYSINGLEVALUE('_Bezirk',$,IFCLABEL('Hamburg-Mitte'),$);
#161=IFCPROPERTYSINGLEVALUE('_Kronendurchmesser',$,IFCINTEGER(4),$);
#162=IFCPROPERTYSINGLEVALUE('_Stammdurchmesser',$,IFCLABEL('0.1592'),$);
#163=IFCPROPERTYSINGLEVALUE('_Pflanzjahr',$,IFCLABEL('2017'),$);
#164=IFCPROPERTYSINGLEVALUE('_LoG',$,IFCINTEGER(100),$);
#165=IFCPROPERTYSINGLEVALUE('_LoI',$,IFCINTEGER(100),$);
#166=IFCPROPERTYSINGLEVALUE('_StatusVegetation',$,IFCLABEL('Bestand'),$);
#167=IFCPROPERTYSINGLEVALUE('_AufnahmedatumVermessung',$,IFCLABEL('2019-01-01'),$);
#168=IFCBUILDINGELEMENTPROXY('0nCclodOv0BfZquKhHY$Yb',$,'_Nullpunktobjekt_1x1x2',$,$,#187,#182,$,$);
#169=IFCCARTESIANPOINTLIST3D(((-0.5,-0.5,1.),(0.5,-0.5,1.),(0.5,0.5,1.),(-0.5,0.5,1.),(-0.5,-0.5,-1.),(0.5,-0.5,-1.),(0.5,0.5,-1.),(-0.5,0.5,-1.),(0.,0.,0.)));
#170=IFCINDEXEDPOLYGONALFACE((1,2,9));
#171=IFCINDEXEDPOLYGONALFACE((2,3,9));
#172=IFCINDEXEDPOLYGONALFACE((3,4,9));
#173=IFCINDEXEDPOLYGONALFACE((4,1,9));
#174=IFCINDEXEDPOLYGONALFACE((6,5,9));
#175=IFCINDEXEDPOLYGONALFACE((7,6,9));
#176=IFCINDEXEDPOLYGONALFACE((8,7,9));
#177=IFCINDEXEDPOLYGONALFACE((5,8,9));
#178=IFCINDEXEDPOLYGONALFACE((1,2,3,4));
#179=IFCINDEXEDPOLYGONALFACE((8,7,6,5));
#180=IFCPOLYGONALFACESET(#169,$,(#170,#171,#172,#173,#174,#175,#176,#177,#178,#179),$);
#181=IFCSHAPEREPRESENTATION(#18,'Body','Tessellation',(#180));
#182=IFCPRODUCTDEFINITIONSHAPE($,$,(#181));
#183=IFCCARTESIANPOINT((565529.31,5934365.08,0.));
#184=IFCDIRECTION((0.,0.,1.));
#185=IFCDIRECTION((1.,0.,0.));
#186=IFCAXIS2PLACEMENT3D(#183,#184,#185);
#187=IFCLOCALPLACEMENT($,#186);
#188=IFCSURFACESTYLE('Style',.BOTH.,(#189));
#189=IFCSURFACESTYLESHADING(#190,0.);
#190=IFCCOLOURRGB($,0.94,0.48,0.48);
#191=IFCSTYLEDITEM(#180,(#188),'Style');
#192=IFCPROPERTYSET('2fPRMhPx53Df6HTxRwQfiP',$,'Pset_Georeferenzierung',$,(#194,#195,#196,#197));
#193=IFCRELDEFINESBYPROPERTIES('1p74uF4SD3pfOpWfde0lvq',$,$,$,(#168),#192);
#194=IFCPROPERTYSINGLEVALUE('_Hoehenstatus',$,IFCLABEL('HS170'),$);
#195=IFCPROPERTYSINGLEVALUE('_Hoehensystem',$,IFCLABEL('DHHN2016'),$);
#196=IFCPROPERTYSINGLEVALUE('_Koordinatensystem',$,IFCLABEL('ETRS89-UTM32N'),$);
#197=IFCPROPERTYSINGLEVALUE('_Lagestatus',$,IFCLABEL('LS310'),$);
#198=IFCPROPERTYSET('19z7bFrzTBUvBdjT8g1a6D',$,'Pset_Objektinformation',$,(#200,#201,#202));
#199=IFCRELDEFINESBYPROPERTIES('02jRXDHJnFTxtAErfxrJ8m',$,$,$,(#168),#198);
#200=IFCPROPERTYSINGLEVALUE('_IDEbene1',$,IFCLABEL('Nullpunktobjekt'),$);
#201=IFCPROPERTYSINGLEVALUE('_IDEbene2',$,IFCLABEL('Nullpunktobjekt'),$);
#202=IFCPROPERTYSINGLEVALUE('_IDEbene3',$,IFCLABEL('Nullpunktobjekt'),$);
#203=IFCPROPERTYSET('3NeCJi1i57agtD9Sntuz9d',$,'Pset_Modellinformation',$,(#205,#206,#207,#208,#209,#210,#211,#212));
#204=IFCRELDEFINESBYPROPERTIES('0SGo7SlG94ZQD5FPA97hSM',$,$,$,(#168),#203);
#205=IFCPROPERTYSINGLEVALUE('_ArtFachmodell',$,IFCLABEL('Ingenieurbau/Bauwerk'),$);
#206=IFCPROPERTYSINGLEVALUE('_ArtTeilmodell',$,IFCLABEL('Bruecke'),$);
#207=IFCPROPERTYSINGLEVALUE('_Auftraggeber',$,IFCLABEL('Musterfirma'),$);
#208=IFCPROPERTYSINGLEVALUE('_Ersteller',$,IFCLABEL('Ahmed Salem'),$);
#209=IFCPROPERTYSINGLEVALUE('_Erstelldatum',$,IFCLABEL('2024-08-12'),$);
#210=IFCPROPERTYSINGLEVALUE('_GemObjektkatalog',$,IFCLABEL('Allgemein/Master_V004'),$);
#211=IFCPROPERTYSINGLEVALUE('_Projektname',$,IFCLABEL('Musterprojekt'),$);
#212=IFCPROPERTYSINGLEVALUE('_Projektnummer',$,IFCLABEL('12345'),$);
#213=IFCPROPERTYSET('1FSPh83dDFgQxME9gXlaaC',$,'Pset_Hyperlink',$,(#215,#216));
#214=IFCRELDEFINESBYPROPERTIES('2eghQ$nM55OQ35Ix2pAxLc',$,$,$,(#168),#213);
#215=IFCPROPERTYSINGLEVALUE('_Hyperlink_001',$,IFCLABEL('www.bim.hamburg.de'),$);
#216=IFCPROPERTYSINGLEVALUE('_Hyperlink_001_bemerkung',$,IFCLABEL('LinkZurHomepageVonBIM.Hamburg'),$);
ENDSEC;
END-ISO-10303-21;
